<svg xmlns="http://www.w3.org/2000/svg" viewBox="0 0 31.75 28.5"><defs><style>.cls-1,.cls-2{fill:none;stroke:#faad5c;stroke-width:1.5px;}.cls-1{stroke-miterlimit:10;}.cls-2{stroke-linecap:round;stroke-linejoin:round;}</style></defs><g id="Layer_2" data-name="Layer 2"><g id="Stroke"><path class="cls-1" d="M12.5.75h-.44A3.12,3.12,0,0,0,9.2,3.2l-6,22.1A3.49,3.49,0,0,1,0,27.75H0"/><path class="cls-1" d="M4,13.05h6l-.65,2.43a1.87,1.87,0,0,0,.54,2"/><path class="cls-1" d="M17.49,15.05a3.35,3.35,0,0,1-3,2.36,1.75,1.75,0,0,1-1.75-2.36,3,3,0,0,1,3-2.08,4.1,4.1,0,0,1,2.21.64"/><path class="cls-1" d="M18.15,12.62l-2,7.33A3.49,3.49,0,0,1,13,22.41h-.16"/><line class="cls-2" x1="11.35" y1="8.91" x2="11.35" y2="8.91"/><line class="cls-2" x1="22" y1="16.75" x2="22" y2="16.75"/><polyline class="cls-1" points="28 5.75 31 2.75 31 16.75"/></g></g></svg>