<svg xmlns="http://www.w3.org/2000/svg" viewBox="0 0 121 121"><defs><style>.cls-1{fill:#76ddd1;}.cls-2{fill:#fbae5c;}.cls-3{fill:#7077fc;}</style></defs><g id="Layer_2" data-name="Layer 2"><g id="Stroke"><path class="cls-1" d="M60.5,121A60.5,60.5,0,0,1,17.72,17.72h0a60.5,60.5,0,0,1,85.56,85.56A60.1,60.1,0,0,1,60.5,121Zm0-108A47.19,47.19,0,0,0,26.91,26.91h0A47.5,47.5,0,0,0,94.09,94.09,47.5,47.5,0,0,0,60.5,13Z"/><path class="cls-2" d="M60.5,121A60.5,60.5,0,0,1,17.72,17.72l9.19,9.19A47.5,47.5,0,0,0,94.09,94.09l9.19,9.19A60.1,60.1,0,0,1,60.5,121Z"/><path class="cls-3" d="M107.18,51.7A47.51,47.51,0,0,0,26.91,26.91l-9.19-9.19A60.51,60.51,0,0,1,120,49.3Z"/></g></g></svg>