<svg xmlns="http://www.w3.org/2000/svg" viewBox="0 0 35.16 21.8"><defs><style>.cls-1{fill:#ff85bf;}</style></defs><g id="Layer_2" data-name="Layer 2"><g id="Stroke"><path class="cls-1" d="M18.07,5.12a5.81,5.81,0,0,1-5,4.5C15.7,9.87,18,11.13,18,14a8.14,8.14,0,0,1-.12,1.23c-.84,4-4.57,6.39-9,6.39H.31A.29.29,0,0,1,0,21.34c0-.22.19-.31.43-.34a2.83,2.83,0,0,0,2.41-.92,6.26,6.26,0,0,0,1.08-2.93L6.23,5.43a10.44,10.44,0,0,0,.25-1.85c0-1.24-.37-1.76-1.64-1.76a8.32,8.32,0,0,0-1.42.12c-.06,0-.09,0-.15,0S3,1.88,3,1.7a.45.45,0,0,1,.34-.41A31.74,31.74,0,0,1,11.87,0c2.75,0,6.29.59,6.29,4.1A5.86,5.86,0,0,1,18.07,5.12Zm-10.36,5-1.57,8a3.77,3.77,0,0,0-.13.93c0,1.51,1,1.6,2.29,1.6,3.85,0,6-1.94,6.72-5.33A7.36,7.36,0,0,0,15.14,14c0-3.27-3-3.82-5.61-3.82Zm1.79-9-1.61,8h.68c3.06,0,6.08,0,6.88-3.89a5.43,5.43,0,0,0,.12-1.2c0-2.4-1.78-3.21-3.91-3.21A8.35,8.35,0,0,0,9.5,1.2Z"/><path class="cls-1" d="M34.32,15.36H28.77c-.12.68-1.14,5.79-1.14,5.79a.8.8,0,0,1-.83.65.57.57,0,0,1-.62-.55,3.34,3.34,0,0,1,.09-.56l1.08-5.33H21.8a.61.61,0,0,1-.58-.62.81.81,0,0,1,.83-.74h5.58c.12-.68,1.11-5.74,1.11-5.74a.94.94,0,0,1,.83-.67.61.61,0,0,1,.65.55v0c0,.34-.52,2.75-1,5a5.64,5.64,0,0,1-.18.83h5.49a.59.59,0,0,1,.62.62A.8.8,0,0,1,34.32,15.36Z"/></g></g></svg>