<svg xmlns="http://www.w3.org/2000/svg" viewBox="0 0 230.56 103.75"><defs><style>.cls-1{fill:none;}.cls-2{fill:#fbae5c;}</style></defs><g id="Layer_2" data-name="Layer 2"><g id="Stroke"><path class="cls-1" d="M199.54,52.65H167.77v48.4h30c18,0,30.12-10,30.12-24.88S217.54,52.65,199.54,52.65Z"/><path class="cls-1" d="M224.56,25.92C224.56,11.38,214,2.7,196.39,2.7H167.77v46h28.92C213.62,48.7,224.56,39.76,224.56,25.92Z"/><path class="cls-2" d="M62.57,30.27C62.57,15.8,52.51,1.2,30,1.2,12.36,1.2,4.58,15.72,4.5,15.86s-.15.35-.15.35.05.06.24.19l1,.58s.07,0,.18-.19S13.05,2.5,30,2.5c21.47,0,31.08,14,31.08,27.77,0,11.18-5.44,21-18.2,32.86h0L.17,103a.35.35,0,0,0-.15.42.46.46,0,0,0,.48.3H61.39a.41.41,0,0,0,.43-.43v-.6a.4.4,0,0,0-.43-.42H3L43.87,64C57,51.78,62.57,41.69,62.57,30.27Z"/><path class="cls-2" d="M131.89,52.35H95.44c-.09,0-.27,0-.27.42v.6c0,.43.18.43.27.43h36.45a.42.42,0,0,0,.28-.43v-.6A.41.41,0,0,0,131.89,52.35Z"/><path class="cls-2" d="M208.72,50.84l-2.51-.48,2.45-.74c11.82-3.53,18.61-12.17,18.61-23.7,0-16-11.84-25.92-30.88-25.92h-30.9a.4.4,0,0,0-.42.42v102.9a.41.41,0,0,0,.42.43h32.25c19.33,0,32.82-11.34,32.82-27.58C230.56,62.52,222.81,53.53,208.72,50.84ZM166.52,1.45h29.87c18.42,0,29.42,9.15,29.42,24.47,0,14.6-11.43,24-29.12,24H166.52ZM197.74,102.3H166.52V51.4h33c18.8,0,29.57,9,29.57,24.77S216.51,102.3,197.74,102.3Z"/></g></g></svg>