<svg xmlns="http://www.w3.org/2000/svg" viewBox="0 0 189.85 76.2"><defs><style>.cls-1{fill:#76ddd1;}.cls-2{fill:#7077fc;}.cls-3{fill:#fc0001;}.cls-4{fill:#ff85bf;}</style></defs><g id="Layer_2" data-name="Layer 2"><g id="Stroke"><path class="cls-1" d="M18,23.87a1.63,1.63,0,0,1-1.43-.82c-2-2.92-3.43-7-4.79-10.44H10.61c-.51,0-.85-.07-1.4-.13L8,18.8a8.58,8.58,0,0,0-.31,2.45c.07,1.77,1.56,1.77,3,1.9a.34.34,0,0,1,.31.34.37.37,0,0,1-.41.38H1.29A.33.33,0,0,1,1,23.53a.4.4,0,0,1,.44-.38A3.06,3.06,0,0,0,4.18,22a7.05,7.05,0,0,0,1.05-3.1L7.89,5.64A8,8,0,0,0,8.09,4c0-1.16-.24-1.87-1.6-2a6.62,6.62,0,0,0-1.87.17h-.1c-.17,0-.27-.14-.31-.31s.17-.34.51-.44A33.38,33.38,0,0,1,14.07,0c3.23,0,8,.68,8,4.9,0,3.7-3.2,6.56-7.28,7.27a48.11,48.11,0,0,0,4.42,9.28c1,1.43,1.84,1.57,3.3,1.7a.33.33,0,0,1,.27.34.36.36,0,0,1-.37.38Zm1-19C19,2.41,17.37,1,14,1a9.86,9.86,0,0,0-2.65.31L9.45,11.15a6.93,6.93,0,0,0,2.18.37c4.08,0,6.56-1.56,7.31-5.3A10.7,10.7,0,0,0,19,4.9Z"/><path class="cls-1" d="M27.84,17.47a8.3,8.3,0,0,0-.06.89c0,2.24,1,4.25,3.5,4.25,1.94,0,3.67-1.46,4.72-2.86a.55.55,0,0,1,.41-.24.32.32,0,0,1,.31.34.81.81,0,0,1-.1.34,7.68,7.68,0,0,1-6.5,4c-3.3,0-5-2.28-5-5.41A9.81,9.81,0,0,1,25.5,16c1.05-3.53,4.59-7.44,8.43-7.44,1.73,0,3,.81,3,2.61C36.89,15.3,31.62,17.44,27.84,17.47ZM28,16.39c.37,0,.75.06,1.09.06,3.09,0,5.68-2.1,5.68-5.3,0-1.05-.48-1.77-1.64-1.77C30.09,9.38,28.42,14,28,16.39Z"/><path class="cls-1" d="M50.25,9.45a13.22,13.22,0,0,1-.88,3.13.38.38,0,0,1-.34.27h0a.24.24,0,0,1-.24-.24.83.83,0,0,1,0-.27c0-.34,0-.65,0-1a1.93,1.93,0,0,0-2.21-2.07,2.57,2.57,0,0,0-2.78,2.55V12c.13,2.52,5,3.4,5.2,7.07v.24A4.57,4.57,0,0,1,47.8,22.4a5.71,5.71,0,0,1-4.45,1.81c-1.5,0-3.64-.38-3.61-1.06a18.71,18.71,0,0,1,.55-3.36.43.43,0,0,1,.37-.31.3.3,0,0,1,.31.31v.85c.1,1.69.78,2.72,2.72,2.72a2.88,2.88,0,0,0,3.16-2.86v-.17c-.14-2.86-4.89-3.57-5.06-7v-.2c0-2.72,2.48-4.59,5.3-4.59,1.32,0,3.09.24,3.16.81Z"/><path class="cls-1" d="M59.67,24.17A4.09,4.09,0,0,1,56,22.23L54.57,29.3a13.68,13.68,0,0,0-.34,2.32c0,1.53,1.83,1.42,2.89,1.49.2,0,.37.17.37.34a.39.39,0,0,1-.41.38H49a.34.34,0,0,1-.34-.31c0-.24.13-.34.37-.37a3.35,3.35,0,0,0,2.41-1,8,8,0,0,0,.89-2.86l3.09-15.46a10,10,0,0,0,.31-2.25.82.82,0,0,0-.95-.85,5.61,5.61,0,0,0-.68.07c-.21,0-.38.07-.48.07s-.34-.07-.34-.27a.53.53,0,0,1,.31-.41,34.6,34.6,0,0,1,4.45-1.6.56.56,0,0,1,.2,0,.36.36,0,0,1,.41.37.25.25,0,0,1,0,.14L58.07,12c1.6-1.67,3.37-3.47,5.51-3.47,3.09,0,4.31,2.52,4.31,5.24C67.89,18.94,64.73,24.17,59.67,24.17ZM57,17a12,12,0,0,0-.28,2.52c0,2.21,1,3.71,3.23,3.71,3.4,0,5.41-4.9,5.41-8.47,0-1.9-.51-4.55-3-4.55C59.06,10.17,57.53,14.31,57,17Z"/><path class="cls-1" d="M78.37,21C77.59,22.4,75.75,24.1,74,24.1c-1.06,0-1.74-.71-1.74-2.14a8.25,8.25,0,0,1,.14-1.19l1.39-7a9.29,9.29,0,0,0,.31-2.14.8.8,0,0,0-.92-.92,5.13,5.13,0,0,0-.71.07,4.24,4.24,0,0,1-.51.06c-.17,0-.31-.06-.31-.27a.38.38,0,0,1,.31-.37A28.81,28.81,0,0,1,76.4,8.57a.34.34,0,0,1,.2,0,.34.34,0,0,1,.37.38v.17L74.7,20.36a5.34,5.34,0,0,0-.11.92c0,.65.24,1.12.92,1.12,1,0,2-1.08,2.45-1.73a.4.4,0,0,1,.31-.24.23.23,0,0,1,.23.24A.92.92,0,0,1,78.37,21ZM76.46,4.15a1.3,1.3,0,0,1-1.36-1.4A2,2,0,0,1,77,.65,1.29,1.29,0,0,1,78.4,2,2,2,0,0,1,76.46,4.15Z"/><path class="cls-1" d="M91.7,10.1a.82.82,0,0,1-.79.47H86.73L85.07,18.8a11.32,11.32,0,0,0-.28,1.9c0,.89.31,1.63,1.3,1.63a7.17,7.17,0,0,0,3.74-1.8.39.39,0,0,1,.23-.1.28.28,0,0,1,.31.27.77.77,0,0,1-.2.45c-.92,1.12-3.88,3-5.78,3-1.67,0-2-1.22-2-2.62a12.74,12.74,0,0,1,.37-2.78c.65-2.89,1.19-5.34,1.77-8.23H82.24a.33.33,0,0,1-.27-.31c0-.17.1-.34.38-.41a6.78,6.78,0,0,0,2.58-1.56A13.39,13.39,0,0,0,87,5.51a.65.65,0,0,1,.51-.38.39.39,0,0,1,.41.41,1.14,1.14,0,0,1-.11.44A27.2,27.2,0,0,0,87.11,9h4.52c.24,0,.37.14.37.31a.34.34,0,0,1,0,.17C91.87,9.72,91.76,10,91.7,10.1Z"/><path class="cls-1" d="M96.08,17.47a8.24,8.24,0,0,0-.07.89c0,2.24,1,4.25,3.51,4.25,1.93,0,3.67-1.46,4.72-2.86a.53.53,0,0,1,.41-.24.32.32,0,0,1,.31.34.71.71,0,0,1-.11.34,7.67,7.67,0,0,1-6.49,4c-3.3,0-5-2.28-5-5.41A9.47,9.47,0,0,1,93.74,16c1.05-3.53,4.59-7.44,8.43-7.44,1.73,0,3,.81,3,2.61C105.12,15.3,99.86,17.44,96.08,17.47Zm.14-1.08c.37,0,.75.06,1.09.06,3.09,0,5.67-2.1,5.67-5.3,0-1.05-.47-1.77-1.63-1.77C98.33,9.38,96.66,14,96.22,16.39Z"/><path class="cls-2" d="M125.46,21c-.79,1.36-2.62,3.06-4.42,3.06-1.06,0-1.74-.71-1.74-2.14a8.25,8.25,0,0,1,.14-1.19l1.39-7a9.29,9.29,0,0,0,.31-2.14.8.8,0,0,0-.92-.92,5.13,5.13,0,0,0-.71.07,4.24,4.24,0,0,1-.51.06c-.17,0-.31-.06-.31-.27a.38.38,0,0,1,.31-.37,29,29,0,0,1,4.48-1.63.39.39,0,0,1,.21,0,.34.34,0,0,1,.37.38v.17l-2.27,11.28a5.34,5.34,0,0,0-.11.92c0,.65.24,1.12.92,1.12,1,0,2-1.08,2.45-1.73a.4.4,0,0,1,.3-.24.23.23,0,0,1,.24.24A1.1,1.1,0,0,1,125.46,21ZM123.55,4.15a1.3,1.3,0,0,1-1.36-1.4,2,2,0,0,1,1.94-2.1A1.29,1.29,0,0,1,125.49,2,2,2,0,0,1,123.55,4.15Z"/><path class="cls-2" d="M138.61,9.45a12.76,12.76,0,0,1-.88,3.13.37.37,0,0,1-.34.27h0a.23.23,0,0,1-.24-.24.63.63,0,0,1,0-.27c0-.34,0-.65,0-1a1.94,1.94,0,0,0-2.21-2.07,2.57,2.57,0,0,0-2.79,2.55V12c.14,2.52,5,3.4,5.2,7.07v.24a4.61,4.61,0,0,1-1.15,3.09,5.75,5.75,0,0,1-4.46,1.81c-1.49,0-3.63-.38-3.6-1.06a18.74,18.74,0,0,1,.54-3.36.45.45,0,0,1,.38-.31.29.29,0,0,1,.3.31v.85c.11,1.69.79,2.72,2.72,2.72a2.87,2.87,0,0,0,3.16-2.86v-.17c-.13-2.86-4.89-3.57-5.06-7v-.2c0-2.72,2.48-4.59,5.3-4.59,1.33,0,3.1.24,3.16.81Z"/><path class="cls-2" d="M158.61,21c-.79,1.36-2.62,3.06-4.42,3.06-1.06,0-1.74-.71-1.74-2.14a8.25,8.25,0,0,1,.14-1.19l1.39-7a9.29,9.29,0,0,0,.31-2.14.8.8,0,0,0-.92-.92,5.13,5.13,0,0,0-.71.07,4.24,4.24,0,0,1-.51.06c-.17,0-.31-.06-.31-.27a.38.38,0,0,1,.31-.37,29,29,0,0,1,4.48-1.63.39.39,0,0,1,.21,0,.34.34,0,0,1,.37.38v.17l-2.28,11.28a6.33,6.33,0,0,0-.1.92c0,.65.24,1.12.92,1.12,1,0,2-1.08,2.45-1.73a.4.4,0,0,1,.3-.24.23.23,0,0,1,.24.24A1.1,1.1,0,0,1,158.61,21ZM156.7,4.15a1.3,1.3,0,0,1-1.36-1.4,2,2,0,0,1,1.94-2.1A1.29,1.29,0,0,1,158.64,2,2,2,0,0,1,156.7,4.15Z"/><path class="cls-2" d="M162.75,10.78c-.54.1-.78.1-.81-.14s.07-.34.31-.44a33.93,33.93,0,0,1,4.48-1.63c.38-.11.65.06.58.51l-1.05,5.23c1.36-2.48,4.14-5.74,7.17-5.74A2.33,2.33,0,0,1,176.05,11a11,11,0,0,1-.34,2.72l-1.33,6.8c-.27,1.36.07,1.87.75,1.9,1,.07,2.07-1.08,2.52-1.73.13-.17.3-.31.47-.17s.07.34,0,.54c-.82,1.36-2.65,3.06-4.42,3.06-1.36,0-2-1.12-1.6-3.33l1.53-7.89a4.57,4.57,0,0,0,.1-1.39,1.37,1.37,0,0,0-1.53-1.5,3.76,3.76,0,0,0-2.31,1c-2.28,1.66-4.05,5.44-4.69,8.6l-.75,3.74a.64.64,0,0,1-.71.58h-1c-.33,0-.64-.14-.54-.62l1.87-9.45a9,9,0,0,0,.27-2.17C164.32,10.78,163.88,10.57,162.75,10.78Z"/><path class="cls-3" d="M15.4,46.9c-.1.34-.27.64-.54.64s-.31-.2-.31-.41v-.06c0-.48.07-.86.07-1.26,0-2.28-1.43-3.06-3.57-3.06-2.86,0-5.17,1.87-5.17,4.52v.34c.14,1.8,1.6,3,3.26,4.08,2.76,1.87,4.83,3.09,5.24,6.05,0,.41.07.78.07,1.12,0,4.42-3.57,7.65-9,7.65a12.52,12.52,0,0,1-5-1.05A.72.72,0,0,1,0,64.74v-.1c.14-1.56.48-3.33.65-4.25.06-.27.2-.47.47-.47s.31.23.34.57C1.5,64,3.3,65.32,6,65.32c3.36,0,5.57-2.07,5.57-5.27a4.16,4.16,0,0,0,0-.61c-.2-2.72-2.58-3.84-5.13-5.54-1.67-1.12-3.1-2.48-3.23-4.73a1.39,1.39,0,0,1,0-.41,7.65,7.65,0,0,1,.17-1.49c.85-3.64,4.22-5.58,8.26-5.58a15.2,15.2,0,0,1,4,.58c.41.14.68.24.68.78v.14A24.9,24.9,0,0,1,15.4,46.9Z"/><path class="cls-3" d="M34.34,63c-.78,1.36-2.62,3.06-4.42,3.06-1.05,0-1.7-.71-1.7-2.14a7.72,7.72,0,0,1,.1-1.19l1.5-7.89A5.37,5.37,0,0,0,30,53.63c0-1.06-.45-1.64-1.57-1.64a3.8,3.8,0,0,0-2.34.92c-2.25,1.67-3.91,4.76-4.73,8.88l-.71,3.43a.72.72,0,0,1-.75.65h-.95a.49.49,0,0,1-.55-.51.25.25,0,0,1,0-.17l4.18-21.12a7.62,7.62,0,0,0,.2-1.49c0-.68-.37-.89-.95-.89-.24,0-.48,0-.78.07a1.13,1.13,0,0,1-.44.07c-.21,0-.34-.07-.34-.27s.13-.27.3-.38a37.32,37.32,0,0,1,4.52-1.63.78.78,0,0,1,.24,0,.34.34,0,0,1,.38.37s0,.1,0,.14L22.47,56.24c1.5-2.48,4.12-5.67,7.18-5.67a2.38,2.38,0,0,1,2.65,2.68A11.76,11.76,0,0,1,32,55.7l-1.29,6.66a5.34,5.34,0,0,0-.11.92c0,.65.24,1.12.92,1.12,1,0,2-1.08,2.45-1.73a.4.4,0,0,1,.31-.24.23.23,0,0,1,.23.24A.92.92,0,0,1,34.34,63Z"/><path class="cls-3" d="M43.25,66.21c-3.64,0-5.58-2.83-5.58-6.19,0-4.56,3.64-9.56,9-9.56,3.6,0,5.57,2.83,5.57,6.19C52.22,61.17,48.58,66.21,43.25,66.21Zm-2.86-5.92c0,2,.75,5,3.33,5,4.18,0,5.78-5.64,5.78-8.94,0-2.11-.75-5.07-3.4-5.07C42,51.31,40.39,57,40.39,60.29Z"/><path class="cls-3" d="M66.54,53.73c-.68,0-.85-1.12-2.15-1.12a2.63,2.63,0,0,0-2,1.32c-1.9,2.65-3.29,7.28-4.11,11.26a.8.8,0,0,1-.85.68h-1a.48.48,0,0,1-.54-.51.38.38,0,0,1,0-.17l2-10.14A5,5,0,0,0,58,53.52c0-.61-.41-.78-.89-.78a7.22,7.22,0,0,0-.75.07,3.06,3.06,0,0,1-.47,0c-.21,0-.34,0-.34-.27a.42.42,0,0,1,.3-.37,34.12,34.12,0,0,1,4.46-1.63c.07,0,.13,0,.2,0a.33.33,0,0,1,.34.38.36.36,0,0,1,0,.17c-1.5,6.8-1.7,7.58-1.7,7.58h.17a27.87,27.87,0,0,1,3-6.16,4.06,4.06,0,0,1,3.2-2c1,0,2.17.44,2.17,1.6C67.69,52.84,67.28,53.73,66.54,53.73Z"/><path class="cls-3" d="M80.48,52.1a.83.83,0,0,1-.79.47H75.51L73.85,60.8a11.32,11.32,0,0,0-.28,1.9c0,.89.31,1.63,1.3,1.63a7.17,7.17,0,0,0,3.74-1.8.39.39,0,0,1,.23-.1.28.28,0,0,1,.31.27.77.77,0,0,1-.2.45c-.92,1.12-3.88,3-5.78,3-1.67,0-2-1.22-2-2.62a12.74,12.74,0,0,1,.37-2.78c.65-2.89,1.19-5.34,1.77-8.23H71a.33.33,0,0,1-.27-.31c0-.17.1-.34.38-.41a6.78,6.78,0,0,0,2.58-1.56,13.39,13.39,0,0,0,2.11-2.75.65.65,0,0,1,.51-.38.39.39,0,0,1,.41.41,1.14,1.14,0,0,1-.11.44A27.2,27.2,0,0,0,75.89,51h4.52c.24,0,.37.14.37.31a.34.34,0,0,1,0,.17C80.65,51.72,80.54,52,80.48,52.1Z"/><path class="cls-4" d="M108.05,46.9c-.1.34-.27.64-.55.64s-.3-.2-.3-.41v-.06c0-.48.07-.86.07-1.26,0-2.28-1.43-3.06-3.57-3.06-2.86,0-5.17,1.87-5.17,4.52v.34c.14,1.8,1.6,3,3.26,4.08,2.76,1.87,4.83,3.09,5.24,6.05,0,.41.07.78.07,1.12,0,4.42-3.57,7.65-9,7.65a12.47,12.47,0,0,1-5-1.05.72.72,0,0,1-.44-.72v-.1c.13-1.56.47-3.33.64-4.25.07-.27.21-.47.48-.47s.31.23.34.57c0,3.54,1.84,4.83,4.49,4.83,3.36,0,5.57-2.07,5.57-5.27a4.16,4.16,0,0,0,0-.61c-.21-2.72-2.59-3.84-5.14-5.54-1.66-1.12-3.09-2.48-3.22-4.73a1.39,1.39,0,0,1,0-.41,7.65,7.65,0,0,1,.17-1.49c.85-3.64,4.22-5.58,8.26-5.58a15.2,15.2,0,0,1,4,.58c.4.14.68.24.68.78v.14A27.73,27.73,0,0,1,108.05,46.9Z"/><path class="cls-4" d="M127.12,63c-.81,1.36-2.65,3.06-4.42,3.06-1.08,0-1.73-.71-1.73-2.14a4.9,4.9,0,0,1,.14-1.19l.4-2.14c-1.09,2.07-3.84,5.51-6.73,5.51a2.64,2.64,0,0,1-2.89-2.93,10.92,10.92,0,0,1,.31-2.38l1-5a11,11,0,0,0,.31-2.07c0-.68-.2-1-.92-1a5.13,5.13,0,0,0-.71.07,4.24,4.24,0,0,1-.51.06c-.17,0-.31-.06-.31-.27s.1-.27.31-.37a33.59,33.59,0,0,1,4.49-1.63c.06,0,.13,0,.2,0a.34.34,0,0,1,.37.38v.17l-2,9.86a7.86,7.86,0,0,0-.24,1.76c0,1.06.41,1.84,1.6,1.84a4.17,4.17,0,0,0,2.18-.75c2.34-1.56,3.7-4.59,4.48-8a10,10,0,0,0,.34-2.08v-.13c0-.61-.34-.85-1-.85a5.13,5.13,0,0,0-.71.07,4.69,4.69,0,0,1-.48.06c-.2,0-.34-.06-.34-.27s.1-.27.31-.37a33.59,33.59,0,0,1,4.49-1.63c.06,0,.13,0,.2,0a.34.34,0,0,1,.37.38v.17l-2.27,11.28a5.34,5.34,0,0,0-.11.92c0,.68.24,1.12,1,1.12a3.57,3.57,0,0,0,2.41-1.73c.1-.14.2-.24.34-.24a.23.23,0,0,1,.2.24A1.59,1.59,0,0,1,127.12,63Z"/><path class="cls-4" d="M136.81,66.17a4.1,4.1,0,0,1-3.67-1.94l-1.43,7.07a14.77,14.77,0,0,0-.34,2.32c0,1.53,1.84,1.42,2.89,1.49.21,0,.38.17.38.34a.39.39,0,0,1-.41.38h-8.06a.34.34,0,0,1-.34-.31c0-.24.14-.34.38-.37a3.35,3.35,0,0,0,2.41-1,8,8,0,0,0,.88-2.86l3.1-15.46a10,10,0,0,0,.3-2.25c0-.64-.4-.85-1-.85a6,6,0,0,0-.68.07c-.2,0-.37.07-.47.07s-.34-.07-.34-.27a.51.51,0,0,1,.3-.41,35.16,35.16,0,0,1,4.45-1.6.61.61,0,0,1,.21,0,.36.36,0,0,1,.41.37.2.2,0,0,1,0,.14L135.21,54c1.6-1.67,3.37-3.47,5.51-3.47,3.1,0,4.32,2.52,4.32,5.24C145,60.94,141.88,66.17,136.81,66.17ZM134.16,59a12.6,12.6,0,0,0-.27,2.52c0,2.21,1,3.71,3.23,3.71,3.4,0,5.4-4.9,5.4-8.47,0-1.9-.51-4.55-3-4.55C136.2,52.17,134.67,56.31,134.16,59Z"/><path class="cls-4" d="M154.8,66.17a4.1,4.1,0,0,1-3.67-1.94L149.7,71.3a13.68,13.68,0,0,0-.34,2.32c0,1.53,1.84,1.42,2.89,1.49.2,0,.37.17.37.34a.39.39,0,0,1-.41.38h-8.05a.34.34,0,0,1-.34-.31c0-.24.13-.34.37-.37a3.38,3.38,0,0,0,2.42-1,8.19,8.19,0,0,0,.88-2.86l3.09-15.46a10,10,0,0,0,.31-2.25c0-.64-.41-.85-.95-.85a5.82,5.82,0,0,0-.68.07c-.21,0-.38.07-.48.07s-.34-.07-.34-.27a.53.53,0,0,1,.31-.41,35.16,35.16,0,0,1,4.45-1.6.56.56,0,0,1,.2,0,.36.36,0,0,1,.41.37.25.25,0,0,1,0,.14L153.2,54c1.6-1.67,3.37-3.47,5.51-3.47,3.09,0,4.32,2.52,4.32,5.24C163,60.94,159.86,66.17,154.8,66.17ZM152.15,59a11.9,11.9,0,0,0-.27,2.52c0,2.21,1,3.71,3.22,3.71,3.4,0,5.41-4.9,5.41-8.47,0-1.9-.51-4.55-3-4.55C154.19,52.17,152.66,56.31,152.15,59Z"/><path class="cls-4" d="M169.21,62.36a3.58,3.58,0,0,0-.13.92c0,.65.24,1.12.95,1.12a3.53,3.53,0,0,0,2.41-1.73c.11-.14.21-.24.34-.24a.23.23,0,0,1,.24.24,1.1,1.1,0,0,1-.13.37c-.82,1.36-2.62,3.06-4.42,3.06-1.09,0-1.74-.71-1.74-2.1a5.53,5.53,0,0,1,.14-1.23l3.7-18.7a6,6,0,0,0,.21-1.42c0-.68-.27-1-.95-1-.21,0-.48,0-.75.07a1.37,1.37,0,0,1-.48.07c-.2,0-.34-.07-.34-.27s.14-.27.31-.38a40.69,40.69,0,0,1,4.52-1.63.75.75,0,0,1,.24,0,.33.33,0,0,1,.37.37.24.24,0,0,1,0,.14Z"/><path class="cls-4" d="M182.17,67.57C177.78,74,175,76.2,172.51,76.2c-1.63,0-2.38-.82-2.38-1.7a2,2,0,0,1,.27-1,1.63,1.63,0,0,1,1.23-.89,1,1,0,0,1,.88.62,1.43,1.43,0,0,0,1.46,1c3.06,0,6.19-5.57,6.6-9.45.07-.75.1-1.43.1-2.14a22.53,22.53,0,0,0-.75-5.61,8.57,8.57,0,0,0-1.53-3.84,2.33,2.33,0,0,0-1.9-.61c-.24,0-.48,0-.48-.31s.14-.24.28-.34a25.63,25.63,0,0,1,3.4-1.36,1.09,1.09,0,0,1,.3-.07.41.41,0,0,1,.41.27,30.46,30.46,0,0,1,2.45,11.94c0,.51,0,1,0,1.43H183c1.9-2.08,4.73-6.77,4.73-9.83a3.57,3.57,0,0,0-.07-.88c-.21-.92-.85-1.7-.85-2.66a1.52,1.52,0,0,1,1.43-1.66c1.32,0,1.66,1.26,1.66,2.31C189.85,55.36,185.91,62.09,182.17,67.57Z"/></g></g></svg>