<svg xmlns="http://www.w3.org/2000/svg" viewBox="0 0 25.72 48.22"><defs><style>.cls-1{fill:none;stroke:#fbae5c;stroke-linejoin:round;stroke-width:0.72px;}</style></defs><g id="Layer_2" data-name="Layer 2"><g id="Stroke"><path class="cls-1" d="M5.68,47.86C2.46,43.5.36,37,.36,32.7a12.67,12.67,0,0,1,12.5-12.83A12.67,12.67,0,0,1,25.36,32.7c0,4.34-2.1,10.8-5.32,15.16Z"/><path class="cls-1" d="M18.34,2.79l7-2.43H.36l7,2.43a8.28,8.28,0,0,1,5.48,7.85v0A8.28,8.28,0,0,1,18.34,2.79Z"/><polyline class="cls-1" points="15.42 47.86 8.31 38.63 13.28 33.53"/><line class="cls-1" x1="10.79" y1="36.08" x2="5.82" y2="30.98"/></g></g></svg>