<?xml version="1.0" encoding="utf-8"?>
<!-- Generator: Adobe Illustrator 25.2.3, SVG Export Plug-In . SVG Version: 6.00 Build 0)  -->
<svg version="1.1" id="Layer_1" xmlns="http://www.w3.org/2000/svg" xmlns:xlink="http://www.w3.org/1999/xlink" x="0px" y="0px"
	 viewBox="0 0 22.7 43.7" style="enable-background:new 0 0 22.7 43.7;" xml:space="preserve">
<style type="text/css">
	.st0{fill:none;stroke:#FBAE5C;stroke-width:0.72;stroke-linejoin:round;}
</style>
<g id="Layer_2_1_">
	<g id="Stroke">
		<path class="st0" d="M5,43.4c-2.8-4.1-4.4-8.8-4.6-13.7c0-6.4,4.9-11.6,11-11.6s11,5.2,11,11.6c-0.3,4.9-1.9,9.7-4.7,13.7L5,43.4z
			"/>
		<path class="st0" d="M16.2,2.6l6.2-2.2h-22l6.2,2.2c2.9,1.1,4.9,4,4.8,7.1l0,0C11.3,6.5,13.2,3.7,16.2,2.6z"/>
		<polyline class="st0" points="13.6,43.4 7.3,35 11.7,30.4 		"/>
		<line class="st0" x1="9.5" y1="32.7" x2="5.2" y2="28.1"/>
	</g>
</g>
<line class="st0" x1="11.4" y1="9.7" x2="11.4" y2="18"/>
</svg>
