<svg xmlns="http://www.w3.org/2000/svg" viewBox="0 0 157.57 157.57"><defs><style>.cls-1,.cls-2{fill:none;stroke:#fbae5c;stroke-width:0.8px;}.cls-1{stroke-miterlimit:10;}.cls-2{stroke-linejoin:round;}</style></defs><g id="Layer_2" data-name="Layer 2"><g id="Stroke"><polygon class="cls-1" points="133.83 102.85 157.01 78.78 133.83 54.71 133.83 23.73 102.85 23.73 78.78 0.56 54.71 23.73 23.73 23.73 23.73 54.71 0.56 78.78 23.73 102.85 23.73 133.83 54.71 133.83 78.78 157.01 102.85 133.83 133.83 133.83 133.83 102.85"/><path class="cls-1" d="M119.21,70.22a34.17,34.17,0,0,0-2.67-15.77A40.6,40.6,0,0,0,80.09,29.53c-22.32-.34-40.52,16.94-40.52,38.3,0,.8,0,1.59.08,2.37a24.5,24.5,0,0,1-2.29,12.35,28.89,28.89,0,0,0-2.45,17.26c2,12.29,12.05,22.33,24.75,24.74a32.48,32.48,0,0,0,11.66.12,47.5,47.5,0,0,1,16.22,0,32.42,32.42,0,0,0,11.65-.12C111.89,122.14,122,112.1,124,99.81a28.9,28.9,0,0,0-2.46-17.26A24.39,24.39,0,0,1,119.21,70.22Z"/><path class="cls-1" d="M71.76,93.08H87.09a2.22,2.22,0,0,1,2.26,2.18h0a2.21,2.21,0,0,1-2.26,2.17H71.76a2.22,2.22,0,0,1-2.26-2.17h0A2.23,2.23,0,0,1,71.76,93.08Z"/><path class="cls-2" d="M100.85,81.7a3.23,3.23,0,1,1,3.23-3.23A3.23,3.23,0,0,1,100.85,81.7Z"/><path class="cls-2" d="M58,81.7a3.23,3.23,0,1,1,3.23-3.23A3.23,3.23,0,0,1,58,81.7Z"/></g></g></svg>