<svg xmlns="http://www.w3.org/2000/svg" viewBox="0 0 50.95 40.8"><defs><style>.cls-1{fill:none;stroke:#fbae5c;stroke-miterlimit:10;stroke-width:0.8px;}</style></defs><g id="Layer_2" data-name="Layer 2"><g id="Stroke"><path class="cls-1" d="M49.85,21.25a2.4,2.4,0,0,0-3.38,0l-3.92,3.93A14.54,14.54,0,0,0,28,11.31c-.33,0-.65,0-1,0,0,0,0,0,0,0A10.91,10.91,0,0,0,5.52,8.92H2.79a2.39,2.39,0,0,0,0,4.78H5.52A10.93,10.93,0,0,0,14,22a14.71,14.71,0,0,0-.53,3.84,14.55,14.55,0,0,0,24.82,10.3.43.43,0,0,0,.1-.09L49.85,24.63A2.4,2.4,0,0,0,49.85,21.25ZM16.16,14.54a3.23,3.23,0,1,1,3.23-3.23A3.23,3.23,0,0,1,16.16,14.54Z"/></g></g></svg>