<?xml version="1.0" encoding="utf-8"?>
<!-- Generator: Adobe Illustrator 25.4.1, SVG Export Plug-In . SVG Version: 6.00 Build 0)  -->
<svg version="1.1" id="Layer_1" xmlns="http://www.w3.org/2000/svg" xmlns:xlink="http://www.w3.org/1999/xlink" x="0px" y="0px"
	 viewBox="0 0 146.1 146.1" style="enable-background:new 0 0 146.1 146.1;" xml:space="preserve">
<style type="text/css">
	.st0{fill:#FFFFFF;stroke:#FBAE5C;stroke-width:1.2;stroke-miterlimit:10;}
</style>
<g id="Layer_2_00000143612744022651764420000015330849079470962103_">
	<g id="Stroke">
		<polygon class="st0" points="124.1,95.4 145.6,73.1 124.1,50.8 124.1,22 95.4,22 73.1,0.6 50.8,22 22,22 22,50.8 0.6,73.1 
			22,95.4 22,124.1 50.8,124.1 73.1,145.6 95.4,124.1 124.1,124.1 		"/>
		<path class="st0" d="M112.6,76.6c-1.7-3.6-2.4-7.5-2.1-11.4c0.3-5-0.5-10-2.5-14.6c-5.7-13.7-18.9-22.7-33.7-23.1
			c-20.7-0.3-37.5,15.7-37.5,35.5c0,0.7,0,1.5,0.1,2.2c0.3,3.9-0.4,7.9-2.1,11.4c-2.4,5-3.2,10.6-2.3,16
			c1.8,11.4,11.2,20.7,22.9,22.9c3.6,0.7,7.2,0.7,10.8,0.1c5-0.9,10-0.9,15,0c3.6,0.6,7.2,0.6,10.8-0.1
			c11.8-2.2,21.1-11.5,22.9-22.9C115.8,87.1,115,81.5,112.6,76.6z M53.8,75.8c-1.7,0-3-1.3-3-3s1.3-3,3-3s3,1.3,3,3
			S55.5,75.8,53.8,75.8z M80.8,90.3H66.6c-1.1,0-2-0.9-2-2s0.9-2,2-2h14.2c1.1,0,2,0.9,2,2S81.9,90.3,80.8,90.3L80.8,90.3z
			 M93.5,75.8c-1.7,0-3-1.3-3-3s1.3-3,3-3s3,1.3,3,3S95.2,75.8,93.5,75.8z"/>
	</g>
</g>
</svg>
