<svg xmlns="http://www.w3.org/2000/svg" viewBox="0 0 90.4 53.3"><defs><style>.cls-1{fill:none;stroke-width:0.8px;}.cls-1,.cls-2{stroke:#fbae5c;stroke-linejoin:round;}.cls-2{fill:#fff;stroke-width:0.72px;}</style></defs><g id="Layer_2" data-name="Layer 2"><g id="Stroke"><path class="cls-1" d="M37.9,19C37.9-5.8.4-5.8.4,19V32.5h0c0,.24,0,.49,0,.73C.4,44.09,8.79,52.9,19.15,52.9S37.9,44.09,37.9,33.23c0-.24,0-.49,0-.73h0ZM7.56,32.19A3.23,3.23,0,1,1,10.79,29,3.23,3.23,0,0,1,7.56,32.19Zm22.44,0A3.23,3.23,0,1,1,33.23,29,3.23,3.23,0,0,1,30,32.19Z"/><line class="cls-2" x1="90.4" y1="27.9" x2="37.9" y2="27.9"/></g></g></svg>