<?xml version="1.0" encoding="utf-8"?>
<!-- Generator: Adobe Illustrator 25.4.1, SVG Export Plug-In . SVG Version: 6.00 Build 0)  -->
<svg version="1.1" id="Layer_1" xmlns="http://www.w3.org/2000/svg" xmlns:xlink="http://www.w3.org/1999/xlink" x="0px" y="0px"
	 viewBox="0 0 51 40.8" style="enable-background:new 0 0 51 40.8;" xml:space="preserve">
<style type="text/css">
	.st0{fill:#FFFFFF;stroke:#FBAE5C;stroke-width:1.2;stroke-miterlimit:10;}
</style>
<g id="Layer_2_00000097488566634561979130000010974401373422742919_">
	<g id="Stroke">
		<path class="st0" d="M49.8,21.2c-0.9-0.9-2.4-0.9-3.4,0l-3.9,3.9c-0.4-7.8-6.8-13.9-14.5-13.9c-0.3,0-0.6,0-1,0l0,0
			c-0.2-6-5.2-10.8-11.2-10.6C10.9,0.8,6.7,4.2,5.5,8.9H2.8c-1.3,0-2.4,1.1-2.4,2.4s1.1,2.4,2.4,2.4h2.7c0.9,4.2,4.3,7.4,8.5,8.3
			c-0.3,1.3-0.5,2.5-0.5,3.8c0,8,6.5,14.5,14.6,14.5c3.8,0,7.5-1.5,10.3-4.2c0,0,0.1-0.1,0.1-0.1l11.5-11.4
			C50.8,23.7,50.8,22.2,49.8,21.2z M16.2,15.2c-2.1,0-3.9-1.7-3.9-3.8c0-2.1,1.7-3.9,3.8-3.9S20,9.1,20,11.3c0,0,0,0,0,0
			C20,13.4,18.3,15.2,16.2,15.2z"/>
	</g>
</g>
</svg>
