<svg xmlns="http://www.w3.org/2000/svg" viewBox="0 0 86.93 11.6"><defs><style>.cls-1{fill:#fbae5c;}</style></defs><g id="Layer_2" data-name="Layer 2"><g id="Stroke"><path class="cls-1" d="M0,.29A.22.22,0,0,1,.24.08H.51l7.69,10h0V.45A.22.22,0,0,1,8.42.24h.32A.22.22,0,0,1,9,.45v11c0,.14-.13.2-.26.2H8.48s-.14,0-7.74-10.1h0v9.74a.21.21,0,0,1-.21.2H.21a.21.21,0,0,1-.21-.2Z"/><path class="cls-1" d="M21.3.08a5.76,5.76,0,1,1-5.76,5.78A5.76,5.76,0,0,1,21.3.08Zm0,10.82a5.06,5.06,0,1,0-5.06-5A5,5,0,0,0,21.3,10.9Z"/><path class="cls-1" d="M40.46,10l.15-.2c.11-.12.22-.17.35-.06a4.67,4.67,0,0,0,3,1.23,2.49,2.49,0,0,0,2.69-2.14c0-1.43-1.17-2.07-3.11-2.72s-3.08-1.32-3.08-3.16c0-1.2,1-2.83,3.45-2.83A5.26,5.26,0,0,1,46.63.9a.23.23,0,0,1,.06.33,1.73,1.73,0,0,0-.13.21.22.22,0,0,1-.35.08A4.73,4.73,0,0,0,43.86.77c-2,0-2.71,1.21-2.71,2.13,0,1.36,1,1.95,2.66,2.48,2.19.75,3.58,1.52,3.58,3.38,0,1.6-1.64,2.84-3.48,2.84a5.24,5.24,0,0,1-3.4-1.31C40.42,10.21,40.34,10.13,40.46,10Z"/><path class="cls-1" d="M52.22,11.25,57.15.11a.26.26,0,0,1,.2-.11h0a.22.22,0,0,1,.21.11l4.88,11.14c0,.1,0,.19-.14.19h-.42a.26.26,0,0,1-.22-.14L60.4,8.36H54.29L53,11.3a.26.26,0,0,1-.23.14h-.44C52.22,11.44,52.18,11.38,52.22,11.25Zm7.91-3.52L57.39,1.28h0L54.58,7.73Z"/><path class="cls-1" d="M68.27.45a.22.22,0,0,1,.21-.21h.35A.21.21,0,0,1,69,.45V10.77h5.11c.19,0,.21.1.21.21v.29c0,.11-.1.17-.21.17H68.48a.21.21,0,0,1-.21-.2Z"/><path class="cls-1" d="M80.1.45a.21.21,0,0,1,.2-.21h6.42a.22.22,0,0,1,.21.21V.72a.22.22,0,0,1-.21.21H80.86V5.35h5.08a.21.21,0,0,1,.21.2v.28a.21.21,0,0,1-.21.2H80.86v4.74h5.86a.22.22,0,0,1,.21.21v.26a.21.21,0,0,1-.21.2H80.3a.2.2,0,0,1-.2-.2Z"/></g></g></svg>