<svg xmlns="http://www.w3.org/2000/svg" viewBox="0 0 122.61 11.52"><defs><style>.cls-1{fill:#fbae5c;}</style></defs><g id="Layer_2" data-name="Layer 2"><g id="Stroke"><path class="cls-1" d="M0,.37A.22.22,0,0,1,.21.16H3.65A3.63,3.63,0,0,1,7.27,3.75a3.64,3.64,0,0,1-3.6,3.63H.75v3.78c0,.11-.09.2-.25.2H.21a.21.21,0,0,1-.21-.2ZM3.62,6.64a2.92,2.92,0,0,0,2.9-2.91A2.88,2.88,0,0,0,3.6.91H.75V6.64Z"/><path class="cls-1" d="M13.5.37a.2.2,0,0,1,.21-.21h4a3.47,3.47,0,0,1,3.57,3.43,3.5,3.5,0,0,1-2.64,3.34L21,11.08c.08.12.05.28-.11.28h-.5a.21.21,0,0,1-.22-.14L17.79,7H14.26v4.12c0,.11-.1.2-.26.2h-.29a.21.21,0,0,1-.21-.2Zm4.15,6a2.79,2.79,0,0,0,2.83-2.78A2.75,2.75,0,0,0,17.63.9H14.27V6.37Z"/><path class="cls-1" d="M27.9.37a.22.22,0,0,1,.21-.21h.35a.21.21,0,0,1,.21.21V11.16a.21.21,0,0,1-.22.2h-.34a.21.21,0,0,1-.21-.2Z"/><path class="cls-1" d="M36.06.21A.22.22,0,0,1,36.3,0h.28l7.68,10h0V.37a.21.21,0,0,1,.2-.21h.32A.21.21,0,0,1,45,.37v11c0,.14-.13.2-.25.2h-.21s-.15,0-7.75-10.1h0v9.74a.2.2,0,0,1-.2.2h-.31a.21.21,0,0,1-.21-.2Z"/><path class="cls-1" d="M54.1.85H51c-.16,0-.21-.1-.21-.24V.37A.2.2,0,0,1,51,.16h6.88a.2.2,0,0,1,.21.21V.64a.2.2,0,0,1-.21.21H54.85V11.16c0,.11-.1.2-.26.2H54.3a.2.2,0,0,1-.2-.2Z"/><path class="cls-1" d="M76.42,0a5.47,5.47,0,0,1,3.89,1.49.21.21,0,0,1,0,.29l-.25.27c-.1.1-.18.08-.28,0a5,5,0,0,0-8.37,3.75,5,5,0,0,0,5,5,5.07,5.07,0,0,0,3.37-1.34.2.2,0,0,1,.26,0l.27.27a.18.18,0,0,1,0,.27,5.51,5.51,0,0,1-3.9,1.55A5.76,5.76,0,1,1,76.42,0Z"/><path class="cls-1" d="M91.83,0a5.76,5.76,0,1,1-5.77,5.78A5.76,5.76,0,0,1,91.83,0Zm0,10.82a5.06,5.06,0,1,0-5.06-5A5,5,0,0,0,91.83,10.82Z"/><path class="cls-1" d="M103.52,9.88l.14-.2c.12-.12.23-.17.36-.06a4.67,4.67,0,0,0,3,1.23,2.49,2.49,0,0,0,2.69-2.14c0-1.43-1.17-2.07-3.11-2.72s-3.09-1.32-3.09-3.16c0-1.2,1-2.83,3.46-2.83a5.24,5.24,0,0,1,2.75.82.22.22,0,0,1,.07.33,1.73,1.73,0,0,0-.13.21c-.1.13-.19.18-.35.08a4.74,4.74,0,0,0-2.36-.75c-2,0-2.7,1.21-2.7,2.13,0,1.36,1,1.95,2.66,2.48,2.19.75,3.58,1.52,3.58,3.38,0,1.6-1.65,2.84-3.49,2.84a5.23,5.23,0,0,1-3.39-1.31C103.47,10.13,103.39,10.05,103.52,9.88Z"/><path class="cls-1" d="M118.58.85h-3.06c-.16,0-.21-.1-.21-.24V.37a.2.2,0,0,1,.21-.21h6.88a.2.2,0,0,1,.21.21V.64a.2.2,0,0,1-.21.21h-3.07V11.16c0,.11-.1.2-.26.2h-.29a.2.2,0,0,1-.2-.2Z"/></g></g></svg>