<?xml version="1.0" encoding="utf-8"?>
<!-- Generator: Adobe Illustrator 25.2.3, SVG Export Plug-In . SVG Version: 6.00 Build 0)  -->
<svg version="1.1" id="Layer_1" xmlns="http://www.w3.org/2000/svg" xmlns:xlink="http://www.w3.org/1999/xlink" x="0px" y="0px"
	 viewBox="0 0 141.4 19.1" style="enable-background:new 0 0 141.4 19.1;" xml:space="preserve">
<style type="text/css">
	.st0{enable-background:new    ;}
	.st1{fill:#FBAE5C;}
</style>
<g id="Layer_2_1_">
	<g id="Stroke">
		<g class="st0">
			<path class="st1" d="M5.1,2.1C5.1,2.1,5.1,2.1,5.1,2.1l0.1-0.1c0,0,0.1,0,0.1,0.1l4.8,11.4c0,0,0,0.1,0,0.1l-0.1,0
				c0,0-0.1,0-0.1,0l-1.4-3.3H1.8l-1.4,3.3c0,0,0,0.1-0.1,0l-0.1,0c0,0-0.1,0,0-0.1L5.1,2.1z M8.3,10L5.2,2.6L2,10H8.3z"/>
			<path class="st1" d="M15.4,12.3L15.4,12.3c0.1-0.1,0.2-0.1,0.2,0c0.2,0.2,1.4,1.2,3.2,1.2c1.7,0,3.2-1.1,3.2-2.5
				c0-1.7-1.4-2.4-3.4-2.9c-1.9-0.5-3.3-1.1-3.3-3c0-1.3,1-2.8,3.5-2.8c1.6,0,2.8,0.8,2.8,0.8c0,0,0.1,0.1,0,0.1l-0.1,0.1
				c0,0-0.1,0.1-0.1,0c0,0-1.1-0.8-2.6-0.8c-2.3,0-3.2,1.3-3.2,2.5c0,1.6,1.3,2.2,3.1,2.7c2.2,0.6,3.6,1.3,3.6,3.2
				c0,1.5-1.7,2.8-3.5,2.8c-1.9,0-3.2-1.1-3.4-1.3C15.3,12.4,15.3,12.3,15.4,12.3z"/>
			<path class="st1" d="M28.3,12.3L28.3,12.3c0.1-0.1,0.2-0.1,0.2,0c0.2,0.2,1.4,1.2,3.2,1.2c1.7,0,3.2-1.1,3.2-2.5
				c0-1.7-1.4-2.4-3.4-2.9c-1.9-0.5-3.3-1.1-3.3-3c0-1.3,1-2.8,3.5-2.8c1.6,0,2.8,0.8,2.8,0.8c0,0,0.1,0.1,0,0.1l-0.1,0.1
				c0,0-0.1,0.1-0.1,0c0,0-1.1-0.8-2.6-0.8c-2.3,0-3.2,1.3-3.2,2.5c0,1.6,1.3,2.2,3.1,2.7c2.2,0.6,3.6,1.3,3.6,3.2
				c0,1.5-1.7,2.8-3.5,2.8c-1.9,0-3.2-1.1-3.4-1.3C28.2,12.4,28.2,12.3,28.3,12.3z"/>
			<path class="st1" d="M41.8,2.5c0-0.1,0-0.1,0.1-0.1h6.5c0.1,0,0.1,0,0.1,0.1v0.1c0,0.1,0,0.1-0.1,0.1h-6.3v4.9h5.6
				c0.1,0,0.1,0,0.1,0.1v0.1c0,0.1,0,0.1-0.1,0.1h-5.6v5.4h6.3c0.1,0,0.1,0,0.1,0.1v0.1c0,0.1,0,0.1-0.1,0.1h-6.5
				c-0.1,0-0.1,0-0.1-0.1V2.5z"/>
			<path class="st1" d="M57.3,2.7H54c-0.1,0-0.1,0-0.1-0.1V2.5c0-0.1,0-0.1,0.1-0.1h7c0.1,0,0.1,0,0.1,0.1v0.1c0,0.1,0,0.1-0.1,0.1
				h-3.4v10.8c0,0.1,0,0.1-0.1,0.1h-0.1c-0.1,0-0.1,0-0.1-0.1V2.7z"/>
		</g>
		<g class="st0">
			<path class="st1" d="M72.6,2.5C72.5,2.5,72.6,2.4,72.6,2.5l0.2-0.1c0,0,0.1,0,0.1,0l4.6,10.9l4.8-10.9c0,0,0-0.1,0.1,0l0.1,0
				c0,0,0.1,0,0,0.1l-4.9,11.3c0,0.1-0.1,0.1-0.2,0L72.6,2.5z"/>
		</g>
		<g class="st0">
			<path class="st1" d="M91.3,2.1C91.3,2.1,91.3,2.1,91.3,2.1l0.1-0.1c0,0,0.1,0,0.1,0.1l4.8,11.4c0,0,0,0.1,0,0.1l-0.1,0
				c0,0-0.1,0-0.1,0l-1.4-3.3h-6.5l-1.4,3.3c0,0,0,0.1-0.1,0l-0.1,0c0,0-0.1,0,0-0.1L91.3,2.1z M94.5,10l-3.1-7.3L88.2,10H94.5z"/>
		</g>
		<g class="st0">
			<path class="st1" d="M102.5,2.5c0-0.1,0-0.1,0.1-0.1h0.1c0,0,0.1,0,0.1,0.1v10.8h5.6c0.1,0,0.1,0,0.1,0.1v0.1
				c0,0.1,0,0.1-0.1,0.1h-5.7c-0.1,0-0.1,0-0.1-0.1V2.5z"/>
		</g>
		<g class="st0">
			<path class="st1" d="M113.9,2.5c0-0.1,0-0.1,0.1-0.1h0.1c0.1,0,0.1,0,0.1,0.1v7.1c0,2.3,1.5,3.9,3.8,3.9c2.4,0,3.9-1.6,3.9-3.9
				V2.5c0-0.1,0-0.1,0.1-0.1h0.1c0.1,0,0.1,0,0.1,0.1v7.1c0,2.5-1.6,4.2-4.2,4.2c-2.5,0-4.1-1.7-4.1-4.2V2.5z"/>
			<path class="st1" d="M129.6,2.5c0-0.1,0-0.1,0.1-0.1h6.5c0.1,0,0.1,0,0.1,0.1v0.1c0,0.1,0,0.1-0.1,0.1h-6.3v4.9h5.6
				c0.1,0,0.1,0,0.1,0.1v0.1c0,0.1,0,0.1-0.1,0.1h-5.6v5.4h6.3c0.1,0,0.1,0,0.1,0.1v0.1c0,0.1,0,0.1-0.1,0.1h-6.5
				c-0.1,0-0.1,0-0.1-0.1V2.5z"/>
		</g>
	</g>
</g>
</svg>
