<svg xmlns="http://www.w3.org/2000/svg" viewBox="0 0 24.76 7.92"><defs><style>.cls-1{fill:#fbae5c;}</style></defs><g id="Layer_2" data-name="Layer 2"><g id="Stroke"><path class="cls-1" d="M0,.32A.22.22,0,0,1,.21.11H.63A.21.21,0,0,1,.84.32V4.91A2.05,2.05,0,0,0,2.9,7.14,2,2,0,0,0,5,4.93V.32A.21.21,0,0,1,5.2.11h.42a.22.22,0,0,1,.21.21V5a2.84,2.84,0,0,1-2.93,3A2.82,2.82,0,0,1,0,5Z"/><path class="cls-1" d="M9.68,6.66l.16-.21c.12-.15.24-.23.39-.1a3.09,3.09,0,0,0,1.86.83A1.32,1.32,0,0,0,13.56,6c0-.76-.66-1.21-1.92-1.73S9.7,3.21,9.7,2A2.1,2.1,0,0,1,12,0a3.64,3.64,0,0,1,1.89.56A.26.26,0,0,1,14,.94l-.13.2a.24.24,0,0,1-.38.1A3.16,3.16,0,0,0,12,.74c-1.16,0-1.51.75-1.51,1.21,0,.73.56,1.16,1.48,1.55,1.49.6,2.44,1.16,2.44,2.44a2.19,2.19,0,0,1-2.37,2A3.58,3.58,0,0,1,9.75,7C9.66,7,9.55,6.86,9.68,6.66Z"/><path class="cls-1" d="M18.24.32a.21.21,0,0,1,.2-.21H20.9a3.85,3.85,0,1,1,0,7.7H18.44a.21.21,0,0,1-.2-.21Zm2.48,6.73A3,3,0,0,0,23.84,4,3,3,0,0,0,20.72.86H19.07V7.05Z"/></g></g></svg>