<svg xmlns="http://www.w3.org/2000/svg" viewBox="0 0 183.32 37"><defs><style>.cls-1{fill:#fbae5c;}</style></defs><g id="Layer_2" data-name="Layer 2"><g id="Stroke"><path class="cls-1" d="M29.45.21A.2.2,0,0,1,29.64,0h2.47a3.85,3.85,0,1,1,0,7.7H29.64a.2.2,0,0,1-.19-.21Zm2.48,6.73a3,3,0,0,0,3.12-3.1A3,3,0,0,0,31.93.75H30.28V6.94Z"/><path class="cls-1" d="M38.67.75a.53.53,0,1,1,.52.52A.53.53,0,0,1,38.67.75Zm.16,2.76A.22.22,0,0,1,39,3.3h.34a.22.22,0,0,1,.21.21v4a.22.22,0,0,1-.21.21H39a.22.22,0,0,1-.21-.21Z"/><path class="cls-1" d="M43.1,6.23a1.94,1.94,0,0,1-.35-1.1A1.85,1.85,0,0,1,44.6,3.19h1.86a.21.21,0,0,1,.21.21v.19c0,.07,0,.17-.12.18L46,3.89a1.56,1.56,0,0,1,.49,1.24A1.81,1.81,0,0,1,44.6,7a1.71,1.71,0,0,1-1-.28.83.83,0,0,0-.48.66.54.54,0,0,0,.6.54h1.58c.93,0,1.66.45,1.66,1.41a2.08,2.08,0,0,1-2.28,1.78c-1.48,0-2.12-.79-2.12-1.52a1.19,1.19,0,0,1,.64-1v0a1.08,1.08,0,0,1-.8-1A1.57,1.57,0,0,1,43.1,6.23Zm1.53,4.17c.72,0,1.47-.41,1.47-1.05,0-.14-.07-.71-.84-.71H44s-.73.19-.73.84S43.88,10.4,44.63,10.4Zm1.09-5.3a1.11,1.11,0,0,0-1.1-1.23A1.15,1.15,0,0,0,43.46,5.1a1.15,1.15,0,0,0,1.16,1.24A1.12,1.12,0,0,0,45.72,5.1Z"/><path class="cls-1" d="M49.34.75a.53.53,0,1,1,.52.52A.53.53,0,0,1,49.34.75Zm.16,2.76a.22.22,0,0,1,.21-.21h.34a.22.22,0,0,1,.21.21v4a.22.22,0,0,1-.21.21h-.34a.22.22,0,0,1-.21-.21Z"/><path class="cls-1" d="M53.76,4h-.57a.2.2,0,0,1-.2-.21V3.51a.2.2,0,0,1,.2-.21h.57V2.08A.21.21,0,0,1,54,1.87l.35,0a.2.2,0,0,1,.19.21V3.3h1.28a.21.21,0,0,1,.21.21v.24a.21.21,0,0,1-.21.21H54.51V6.54c0,.44.11.52.37.52a2,2,0,0,0,.8-.24c.17-.09.21,0,.27.07l.16.27c.08.13,0,.2-.08.28a2.81,2.81,0,0,1-1.26.37c-.88,0-1-.53-1-1.21Z"/><path class="cls-1" d="M60.32,4.91a3.68,3.68,0,0,1,.94.14c0-.81-.09-1.19-.72-1.19a4.11,4.11,0,0,0-1.32.24c-.11.05-.17,0-.21-.11l-.08-.27c0-.13,0-.2.12-.24a3.89,3.89,0,0,1,1.53-.29c1.12,0,1.39.57,1.39,1.86V7.49a.22.22,0,0,1-.21.21h-.2c-.13,0-.16-.06-.19-.16l-.09-.3a1.9,1.9,0,0,1-1.36.57,1.34,1.34,0,0,1-1.36-1.44C58.56,5.53,59.19,4.91,60.32,4.91ZM60,7.15a1.58,1.58,0,0,0,1.21-.61V5.67a1.92,1.92,0,0,0-.93-.18c-.61,0-1,.31-1,.88A.74.74,0,0,0,60,7.15Z"/><path class="cls-1" d="M65.16.21A.22.22,0,0,1,65.37,0h.34a.22.22,0,0,1,.21.21V7.49a.22.22,0,0,1-.21.21h-.34a.22.22,0,0,1-.21-.21Z"/><path class="cls-1" d="M69.6,6.56c.35,0,.72.19.72,1a3,3,0,0,1-.92,2c-.11.1-.2.09-.27,0L69,9.45c-.06,0,0-.16.07-.26a1.9,1.9,0,0,0,.68-1.39H69.6A.63.63,0,0,1,69,7.18.62.62,0,0,1,69.6,6.56Z"/><path class="cls-1" d="M77.79.21A.22.22,0,0,1,78,0h.43a.21.21,0,0,1,.21.21V3.42H83.1V.21A.21.21,0,0,1,83.31,0h.43A.22.22,0,0,1,84,.21V7.49a.22.22,0,0,1-.21.21h-.43a.21.21,0,0,1-.21-.21V4.16H78.64V7.49a.21.21,0,0,1-.21.21H78a.22.22,0,0,1-.21-.21Z"/><path class="cls-1" d="M88.74,4.91a3.65,3.65,0,0,1,.93.14c0-.81-.09-1.19-.71-1.19a4,4,0,0,0-1.32.24c-.11.05-.18,0-.21-.11l-.09-.27c0-.13,0-.2.12-.24A4,4,0,0,1,89,3.19c1.12,0,1.4.57,1.4,1.86V7.49a.22.22,0,0,1-.21.21H90c-.12,0-.16-.06-.19-.16l-.09-.3a1.9,1.9,0,0,1-1.36.57A1.33,1.33,0,0,1,87,6.37C87,5.53,87.6,4.91,88.74,4.91Zm-.29,2.24a1.58,1.58,0,0,0,1.21-.61V5.67a1.9,1.9,0,0,0-.92-.18c-.62,0-1.06.31-1.06.88A.74.74,0,0,0,88.45,7.15Z"/><path class="cls-1" d="M93.56,3.51a.22.22,0,0,1,.21-.21H94a.19.19,0,0,1,.19.15l.09.32a1.64,1.64,0,0,1,1.32-.58c.33,0,.88.06.77.36l-.13.38c-.06.14-.16.14-.27.1a1,1,0,0,0-.43-.09,1.43,1.43,0,0,0-1.2.61V7.49a.22.22,0,0,1-.21.21h-.34a.22.22,0,0,1-.21-.21Z"/><path class="cls-1" d="M100.68,3.19a2.33,2.33,0,0,1,1.18.29V.21a.22.22,0,0,1,.21-.21h.34a.22.22,0,0,1,.21.21V7.49a.22.22,0,0,1-.21.21h-.23a.2.2,0,0,1-.19-.17l-.07-.3a2,2,0,0,1-1.35.58,2.18,2.18,0,0,1-2-2.32A2.11,2.11,0,0,1,100.68,3.19Zm0,3.93a1.49,1.49,0,0,0,1.2-.73V4.19a2.39,2.39,0,0,0-1.07-.26A1.41,1.41,0,0,0,99.34,5.5,1.46,1.46,0,0,0,100.65,7.12Z"/><path class="cls-1" d="M106,5.08V4.87a.21.21,0,0,1,.21-.21h2.3a.21.21,0,0,1,.21.21v.21a.2.2,0,0,1-.21.2h-2.3A.2.2,0,0,1,106,5.08Z"/><path class="cls-1" d="M112.17.21a.2.2,0,0,1,.2-.21h2.85a2.36,2.36,0,0,1,2.4,2.34A2.46,2.46,0,0,1,116,4.59l1.51,2.79a.21.21,0,0,1-.19.32h-.56a.17.17,0,0,1-.17-.1l-1.47-2.91H113v2.8a.22.22,0,0,1-.21.21h-.43a.2.2,0,0,1-.2-.21Zm3,3.75a1.6,1.6,0,0,0,1.58-1.61A1.6,1.6,0,0,0,115.17.8H113V4Z"/><path class="cls-1" d="M122.27,3.19a2.25,2.25,0,0,1,2.19,2.3,2.19,2.19,0,1,1-4.38,0A2.26,2.26,0,0,1,122.27,3.19Zm0,3.91a1.51,1.51,0,0,0,1.43-1.61,1.44,1.44,0,1,0-2.86,0A1.52,1.52,0,0,0,122.27,7.1Z"/><path class="cls-1" d="M127.3,3.51a.22.22,0,0,1,.21-.21h.35a.22.22,0,0,1,.21.21V5.83c0,.84.38,1.24,1,1.24a1.74,1.74,0,0,0,1.31-.62V3.51a.22.22,0,0,1,.21-.21h.34a.22.22,0,0,1,.21.21v4a.22.22,0,0,1-.21.21h-.21c-.12,0-.16-.08-.2-.19l-.07-.28a2,2,0,0,1-1.43.58c-1.28,0-1.71-.82-1.71-2Z"/><path class="cls-1" d="M134.34,3.51a.22.22,0,0,1,.21-.21h.21a.15.15,0,0,1,.17.13l.1.34a2.48,2.48,0,0,1,1.55-.58c1.27,0,1.7.84,1.7,2V7.49a.22.22,0,0,1-.21.21h-.35a.22.22,0,0,1-.21-.21V5.17c0-.84-.37-1.24-1-1.24a2.16,2.16,0,0,0-1.42.62V7.49a.22.22,0,0,1-.21.21h-.34a.22.22,0,0,1-.21-.21Z"/><path class="cls-1" d="M143.23,3.19a2.33,2.33,0,0,1,1.18.29V.21a.21.21,0,0,1,.21-.21H145a.22.22,0,0,1,.21.21V7.49a.22.22,0,0,1-.21.21h-.23a.2.2,0,0,1-.19-.17l-.07-.3a2,2,0,0,1-1.35.58,2.18,2.18,0,0,1-2-2.32A2.11,2.11,0,0,1,143.23,3.19Zm0,3.93a1.49,1.49,0,0,0,1.2-.73V4.19a2.44,2.44,0,0,0-1.07-.26,1.41,1.41,0,0,0-1.44,1.57A1.45,1.45,0,0,0,143.2,7.12Z"/><path class="cls-1" d="M152.82.21A.21.21,0,0,1,153,0h2.41a2.07,2.07,0,0,1,2.25,2,2.07,2.07,0,0,1-1.07,1.76,2,2,0,0,1,1.32,1.8,2.18,2.18,0,0,1-2.4,2.12H153a.21.21,0,0,1-.21-.21ZM155.63,7A1.35,1.35,0,0,0,157,5.57a1.46,1.46,0,0,0-1.57-1.36h-1.82V7Zm-.19-3.51a1.27,1.27,0,0,0,1.32-1.37A1.22,1.22,0,0,0,155.44.76h-1.79V3.45Z"/><path class="cls-1" d="M160.86,3.51a.22.22,0,0,1,.21-.21h.21a.19.19,0,0,1,.19.15l.09.32a1.61,1.61,0,0,1,1.32-.58c.33,0,.87.06.77.36l-.14.38c0,.14-.15.14-.26.1a1,1,0,0,0-.43-.09,1.41,1.41,0,0,0-1.2.61V7.49a.22.22,0,0,1-.21.21h-.34a.22.22,0,0,1-.21-.21Z"/><path class="cls-1" d="M166.13,3.51a.22.22,0,0,1,.21-.21h.35a.22.22,0,0,1,.21.21V5.83c0,.84.37,1.24,1,1.24a1.74,1.74,0,0,0,1.31-.62V3.51a.22.22,0,0,1,.21-.21h.34a.22.22,0,0,1,.21.21v4a.22.22,0,0,1-.21.21h-.21c-.12,0-.16-.08-.2-.19l-.07-.28a2,2,0,0,1-1.43.58c-1.28,0-1.71-.82-1.71-2Z"/><path class="cls-1" d="M172.91,7.08c0-.06.12-.21.15-.27a.2.2,0,0,1,.3,0,1.85,1.85,0,0,0,1,.38c.45,0,.72-.23.72-.53s-.33-.56-1-.88-1.26-.67-1.26-1.42a1.24,1.24,0,0,1,1.4-1.14,2.28,2.28,0,0,1,1.22.34.26.26,0,0,1,.07.34l-.09.18a.25.25,0,0,1-.32.1,2.14,2.14,0,0,0-.88-.27c-.49,0-.62.26-.62.44,0,.37.36.53.81.75.76.37,1.44.71,1.44,1.5a1.39,1.39,0,0,1-1.52,1.24A2.29,2.29,0,0,1,173,7.32.23.23,0,0,1,172.91,7.08Z"/><path class="cls-1" d="M178.75.21A.22.22,0,0,1,179,0h.34a.22.22,0,0,1,.21.21V3.77A2.24,2.24,0,0,1,181,3.19c1.09,0,1.71.69,1.71,2V7.49a.22.22,0,0,1-.21.21h-.36a.21.21,0,0,1-.2-.21V5.17c0-.84-.38-1.24-1-1.24a2.15,2.15,0,0,0-1.42.61v3a.22.22,0,0,1-.21.21H179a.22.22,0,0,1-.21-.21Z"/><path class="cls-1" d="M0,30.24C0,27,1.34,26,2.6,25.91c.12,0,.18,0,.19.11l0,.3a.15.15,0,0,1-.11.19C1.32,26.78.77,28.08.77,30.24S1.32,33.69,2.71,34a.14.14,0,0,1,.11.18l0,.3c0,.09-.07.12-.19.11C1.34,34.49,0,33.47,0,30.24Z"/><path class="cls-1" d="M4.85,31.8v-.41L9,26.17a.18.18,0,0,1,.17-.07h.22a.2.2,0,0,1,.2.21l0,5h.89a.2.2,0,0,1,.21.19v.25a.2.2,0,0,1-.21.2H9.63v1.51a.22.22,0,0,1-.21.21H9a.22.22,0,0,1-.21-.21V32H5.06A.21.21,0,0,1,4.85,31.8Zm4-.48V27.5L5.77,31.32Z"/><path class="cls-1" d="M13.57,30c0-2.41,1-3.85,2.68-3.85s2.67,1.44,2.67,3.85-1,3.85-2.67,3.85S13.57,32.37,13.57,30Zm4.57,0c0-2-.68-3.13-1.89-3.13S14.36,28,14.36,30,15,33.1,16.25,33.1,18.14,32,18.14,30Z"/><path class="cls-1" d="M22.92,36.79a.21.21,0,0,1-.21.21h-.34a.21.21,0,0,1-.2-.21V29.51a.21.21,0,0,1,.2-.21h.23c.1,0,.14,0,.18.14l.08.21a2,2,0,0,1,1.27-.46,2.32,2.32,0,0,1,0,4.62,2,2,0,0,1-1.18-.36ZM24,33.07a1.61,1.61,0,0,0,.06-3.19,1.51,1.51,0,0,0-1.13.54v2.27A1.89,1.89,0,0,0,24,33.07Z"/><path class="cls-1" d="M30.14,31.46l-1.4-1.87c-.11-.15,0-.29.15-.29h.46a.21.21,0,0,1,.17.09l1.05,1.49h0l1.09-1.49a.21.21,0,0,1,.18-.09h.46c.19,0,.25.14.14.29l-1.4,1.86,1.41,2c.1.14,0,.28-.14.28h-.41a.21.21,0,0,1-.16-.1L30.58,32h0l-1.15,1.63a.19.19,0,0,1-.17.09h-.41c-.18,0-.24-.14-.14-.28Z"/><path class="cls-1" d="M36.91,30.24c0-2.16-.56-3.46-1.94-3.73a.15.15,0,0,1-.11-.19l0-.3c0-.09.08-.12.2-.11,1.25.07,2.59,1.09,2.59,4.33s-1.34,4.25-2.59,4.32c-.12,0-.19,0-.2-.11l0-.3A.14.14,0,0,1,35,34C36.35,33.69,36.91,32.39,36.91,30.24Z"/><path class="cls-1" d="M41.2,32.56c.35,0,.72.19.72,1a3,3,0,0,1-.92,2c-.11.1-.2.09-.27,0l-.15-.15c-.06-.05,0-.16.07-.26a1.93,1.93,0,0,0,.68-1.39H41.2a.63.63,0,0,1-.63-.63A.62.62,0,0,1,41.2,32.56Z"/><path class="cls-1" d="M48.8,32.57l.29-.26a.19.19,0,0,1,.3.06,2.23,2.23,0,0,0,1.64.76,1.44,1.44,0,0,0,1.58-1.38c0-.74-.58-1.44-1.94-1.44h-.62c-.12,0-.21-.06-.21-.24v-.26c0-.18.06-.25.23-.25h.61c1.17,0,1.75-.6,1.75-1.33A1.36,1.36,0,0,0,51,26.84a1.93,1.93,0,0,0-1.45.71.18.18,0,0,1-.28,0L49,27.36a.2.2,0,0,1,0-.28,2.85,2.85,0,0,1,2-1,2,2,0,0,1,1.13,3.75v0a2.08,2.08,0,0,1,1.32,1.79A2.19,2.19,0,0,1,51,33.81a2.72,2.72,0,0,1-2.22-1A.18.18,0,0,1,48.8,32.57Z"/><path class="cls-1" d="M56.57,30c0-2.41,1-3.85,2.68-3.85s2.67,1.44,2.67,3.85-1,3.85-2.67,3.85S56.57,32.37,56.57,30Zm4.57,0c0-2-.68-3.13-1.89-3.13S57.35,28,57.35,30s.69,3.14,1.9,3.14S61.14,32,61.14,30Z"/><path class="cls-1" d="M64.76,27.36a1.49,1.49,0,1,1,1.48,1.49A1.48,1.48,0,0,1,64.76,27.36Zm2.32,0a.85.85,0,1,0-.84.86A.85.85,0,0,0,67.08,27.36Zm2.47-1.25a.2.2,0,0,1,.19-.11h.18a.2.2,0,0,1,.18.3l-3.79,7.29a.2.2,0,0,1-.19.11H66a.2.2,0,0,1-.19-.3Zm.17,4.74a1.49,1.49,0,1,1-1.49,1.49A1.49,1.49,0,0,1,69.72,30.85Zm0,2.35a.85.85,0,1,0-.86-.86A.85.85,0,0,0,69.72,33.2Z"/><path class="cls-1" d="M78.32,29.51a.22.22,0,0,1,.21-.21h.21a.15.15,0,0,1,.17.13l.1.34a2,2,0,0,1,1.43-.58,1.54,1.54,0,0,1,1.41.72,2.67,2.67,0,0,1,1.64-.72c1.28,0,1.71.84,1.71,2v2.32a.22.22,0,0,1-.21.21h-.36a.22.22,0,0,1-.21-.21V31.17c0-.82-.35-1.24-1-1.24a2,2,0,0,0-1.34.61,3.06,3.06,0,0,1,.06.63v2.32a.22.22,0,0,1-.21.21h-.35a.22.22,0,0,1-.21-.21V31.17c0-.84-.38-1.24-1-1.24a1.69,1.69,0,0,0-1.25.62v2.94a.22.22,0,0,1-.21.21h-.34a.22.22,0,0,1-.21-.21Z"/><path class="cls-1" d="M88.2,26.75a.52.52,0,1,1,1,0,.52.52,0,1,1-1,0Zm.15,2.76a.22.22,0,0,1,.21-.21h.34a.22.22,0,0,1,.21.21v4a.22.22,0,0,1-.21.21h-.34a.22.22,0,0,1-.21-.21Z"/><path class="cls-1" d="M92.32,29.51a.22.22,0,0,1,.21-.21h.21a.17.17,0,0,1,.18.13l.09.34a2.48,2.48,0,0,1,1.55-.58c1.27,0,1.7.84,1.7,2v2.32a.22.22,0,0,1-.21.21H95.7a.22.22,0,0,1-.21-.21V31.17c0-.84-.37-1.24-1-1.24a2.16,2.16,0,0,0-1.42.62v2.94a.22.22,0,0,1-.21.21h-.34a.22.22,0,0,1-.21-.21Z"/><path class="cls-1" d="M99.26,26.75a.53.53,0,1,1,1,0,.53.53,0,0,1-1,0Zm.16,2.76a.22.22,0,0,1,.21-.21H100a.22.22,0,0,1,.21.21v4a.22.22,0,0,1-.21.21h-.34a.22.22,0,0,1-.21-.21Z"/><path class="cls-1" d="M103.39,29.51a.22.22,0,0,1,.21-.21h.21a.15.15,0,0,1,.17.13l.1.34a2,2,0,0,1,1.43-.58,1.54,1.54,0,0,1,1.41.72,2.63,2.63,0,0,1,1.64-.72c1.27,0,1.7.84,1.7,2v2.32a.21.21,0,0,1-.2.21h-.36a.22.22,0,0,1-.21-.21V31.17c0-.82-.35-1.24-1-1.24a2,2,0,0,0-1.34.61,4,4,0,0,1,.06.63v2.32a.22.22,0,0,1-.21.21h-.35a.22.22,0,0,1-.21-.21V31.17c0-.84-.38-1.24-1-1.24a1.69,1.69,0,0,0-1.25.62v2.94a.22.22,0,0,1-.21.21h-.34a.22.22,0,0,1-.21-.21Z"/><path class="cls-1" d="M113.36,29.51a.22.22,0,0,1,.21-.21h.36a.21.21,0,0,1,.2.21v2.32c0,.84.38,1.24,1,1.24a1.74,1.74,0,0,0,1.31-.62V29.51a.22.22,0,0,1,.21-.21H117a.22.22,0,0,1,.21.21v4a.22.22,0,0,1-.21.21h-.2c-.13,0-.17-.08-.2-.19l-.08-.28a2,2,0,0,1-1.43.58c-1.28,0-1.71-.82-1.71-2Z"/><path class="cls-1" d="M120.41,29.51a.21.21,0,0,1,.2-.21h.21a.16.16,0,0,1,.18.13l.1.34a2,2,0,0,1,1.43-.58,1.54,1.54,0,0,1,1.41.72,2.63,2.63,0,0,1,1.64-.72c1.27,0,1.7.84,1.7,2v2.32a.22.22,0,0,1-.21.21h-.35a.22.22,0,0,1-.21-.21V31.17c0-.82-.35-1.24-1-1.24a2,2,0,0,0-1.34.61,4,4,0,0,1,0,.63v2.32a.22.22,0,0,1-.21.21h-.35a.22.22,0,0,1-.21-.21V31.17c0-.84-.37-1.24-1-1.24a1.73,1.73,0,0,0-1.26.62v2.94a.21.21,0,0,1-.21.21h-.34a.21.21,0,0,1-.2-.21Z"/><path class="cls-1" d="M136.32,29.19a2.33,2.33,0,0,1,1.18.29V26.21a.22.22,0,0,1,.21-.21h.34a.22.22,0,0,1,.21.21v7.28a.22.22,0,0,1-.21.21h-.23a.2.2,0,0,1-.19-.17l-.07-.3a2,2,0,0,1-1.35.58,2.18,2.18,0,0,1-2-2.32A2.11,2.11,0,0,1,136.32,29.19Zm0,3.93a1.49,1.49,0,0,0,1.2-.73v-2.2a2.39,2.39,0,0,0-1.07-.26A1.41,1.41,0,0,0,135,31.5,1.46,1.46,0,0,0,136.29,33.12Z"/><path class="cls-1" d="M141.33,26.75a.52.52,0,1,1,1,0,.52.52,0,1,1-1,0Zm.15,2.76a.22.22,0,0,1,.21-.21H142a.22.22,0,0,1,.21.21v4a.22.22,0,0,1-.21.21h-.34a.22.22,0,0,1-.21-.21Z"/><path class="cls-1" d="M146.89,30.91a3.68,3.68,0,0,1,.94.14c0-.81-.09-1.19-.72-1.19a4.11,4.11,0,0,0-1.32.24c-.11,0-.17,0-.21-.11l-.08-.27c-.05-.13,0-.2.12-.24a3.89,3.89,0,0,1,1.53-.29c1.12,0,1.39.57,1.39,1.86v2.44a.22.22,0,0,1-.21.21h-.21c-.12,0-.15-.06-.18-.16l-.09-.3a1.9,1.9,0,0,1-1.36.57,1.34,1.34,0,0,1-1.36-1.44C145.13,31.53,145.76,30.91,146.89,30.91Zm-.28,2.24a1.58,1.58,0,0,0,1.21-.61v-.87a2,2,0,0,0-.93-.18c-.61,0-1,.31-1,.88A.74.74,0,0,0,146.61,33.15Z"/><path class="cls-1" d="M151.72,29.51a.22.22,0,0,1,.21-.21h.21a.17.17,0,0,1,.18.13l.09.34a2,2,0,0,1,1.43-.58,1.53,1.53,0,0,1,1.41.72,2.67,2.67,0,0,1,1.64-.72c1.28,0,1.71.84,1.71,2v2.32a.22.22,0,0,1-.21.21H158a.22.22,0,0,1-.21-.21V31.17c0-.82-.35-1.24-1-1.24a2,2,0,0,0-1.34.61,4,4,0,0,1,.05.63v2.32a.22.22,0,0,1-.21.21H155a.22.22,0,0,1-.21-.21V31.17c0-.84-.37-1.24-1.05-1.24a1.69,1.69,0,0,0-1.25.62v2.94a.22.22,0,0,1-.21.21h-.34a.22.22,0,0,1-.21-.21Z"/><path class="cls-1" d="M163.59,29.19a1.94,1.94,0,0,1,2,2c0,.08,0,.22,0,.3a.21.21,0,0,1-.2.19h-3.17a1.56,1.56,0,0,0,1.48,1.43,2.16,2.16,0,0,0,1.09-.33c.15-.09.22-.14.31,0l.18.25c.08.1.12.16,0,.29a2.83,2.83,0,0,1-1.62.5,2.32,2.32,0,0,1,0-4.62Zm1.23,1.88a1.27,1.27,0,0,0-1.23-1.21,1.37,1.37,0,0,0-1.39,1.21Z"/><path class="cls-1" d="M168.72,30h-.56a.2.2,0,0,1-.21-.21v-.24a.2.2,0,0,1,.21-.21h.56V28.08a.22.22,0,0,1,.2-.21l.36,0a.21.21,0,0,1,.2.21V29.3h1.27a.21.21,0,0,1,.21.21v.24a.21.21,0,0,1-.21.21h-1.27v2.58c0,.44.1.52.36.52a2,2,0,0,0,.8-.24c.17-.09.21,0,.27.07l.16.27c.08.13,0,.2-.08.28a2.81,2.81,0,0,1-1.26.37c-.88,0-1-.53-1-1.21Z"/><path class="cls-1" d="M175.68,29.19a1.94,1.94,0,0,1,2,2c0,.08,0,.22,0,.3a.21.21,0,0,1-.2.19h-3.17a1.56,1.56,0,0,0,1.48,1.43,2.16,2.16,0,0,0,1.09-.33c.15-.09.22-.14.3,0s.12.16.19.25.12.16,0,.29a2.83,2.83,0,0,1-1.62.5,2.32,2.32,0,0,1,0-4.62Zm1.23,1.88a1.27,1.27,0,0,0-1.23-1.21,1.37,1.37,0,0,0-1.39,1.21Z"/><path class="cls-1" d="M180.52,29.51a.22.22,0,0,1,.21-.21h.21a.19.19,0,0,1,.18.15l.09.32a1.64,1.64,0,0,1,1.32-.58c.33,0,.88.06.77.36l-.13.38c0,.14-.15.14-.26.1a1.06,1.06,0,0,0-.43-.09,1.41,1.41,0,0,0-1.2.61v2.94a.22.22,0,0,1-.21.21h-.34a.22.22,0,0,1-.21-.21Z"/></g></g></svg>