<svg xmlns="http://www.w3.org/2000/svg" viewBox="0 0 260.8 298.8"><defs><style>.cls-1{fill:none;stroke:#fbae5c;stroke-linejoin:round;stroke-width:0.8px;}.cls-2{fill:#fbae5c;}</style></defs><g id="Layer_2" data-name="Layer 2"><g id="Stroke"><rect class="cls-1" x="0.4" y="0.4" width="260" height="298"/><path class="cls-2" d="M56.69,173.11l3.34-7.4a.19.19,0,0,1,.19-.12h.11a.18.18,0,0,1,.18.12l3.33,7.4a.2.2,0,0,1-.19.29h-.44a.21.21,0,0,1-.19-.12l-.81-1.82H58.3l-.8,1.82a.21.21,0,0,1-.19.12h-.44A.19.19,0,0,1,56.69,173.11Zm5.22-2.33c-.54-1.2-1.07-2.41-1.6-3.61h-.09l-1.61,3.61Z"/><path class="cls-2" d="M67.24,165.91a.21.21,0,0,1,.2-.21h.44a.22.22,0,0,1,.21.21v7.28a.22.22,0,0,1-.21.21h-.44a.21.21,0,0,1-.2-.21Z"/><path class="cls-2" d="M72.54,165.91a.2.2,0,0,1,.2-.21H75.2a3.85,3.85,0,1,1,0,7.7H72.74a.2.2,0,0,1-.2-.21ZM75,172.64a3.1,3.1,0,1,0,0-6.19H73.37v6.19Z"/><path class="cls-2" d="M81.85,173.11l3.35-7.4a.19.19,0,0,1,.19-.12h.1a.19.19,0,0,1,.19.12l3.32,7.4a.19.19,0,0,1-.18.29h-.44a.21.21,0,0,1-.19-.12l-.81-1.82H83.47l-.8,1.82a.21.21,0,0,1-.19.12H82A.2.2,0,0,1,81.85,173.11Zm5.23-2.33c-.54-1.2-1.07-2.41-1.61-3.61h-.08l-1.61,3.61Z"/><path class="cls-2" d="M92.4,165.79a.21.21,0,0,1,.21-.2h.28l5,6.18h0v-5.86a.21.21,0,0,1,.21-.21h.38a.22.22,0,0,1,.21.21v7.4a.21.21,0,0,1-.21.2h-.19l-5-6.3h0v6a.21.21,0,0,1-.21.21h-.39a.22.22,0,0,1-.21-.21Z"/><path class="cls-2" d="M107.26,172.24c.06-.06.11-.14.17-.2s.23-.24.38-.1a3.09,3.09,0,0,0,1.86.83,1.33,1.33,0,0,0,1.48-1.21c0-.76-.66-1.21-1.93-1.74s-1.94-1-1.94-2.27a2.1,2.1,0,0,1,2.35-2,3.59,3.59,0,0,1,1.88.56.24.24,0,0,1,.07.37c0,.07-.09.15-.14.21a.24.24,0,0,1-.38.1,3.16,3.16,0,0,0-1.44-.5c-1.17,0-1.52.74-1.52,1.21,0,.73.56,1.16,1.48,1.55,1.49.6,2.45,1.16,2.45,2.44a2.19,2.19,0,0,1-2.38,2,3.58,3.58,0,0,1-2.32-.89A.25.25,0,0,1,107.26,172.24Z"/><path class="cls-2" d="M114.76,173.11l3.35-7.4a.19.19,0,0,1,.19-.12h.11a.18.18,0,0,1,.18.12l3.33,7.4a.2.2,0,0,1-.19.29h-.44a.21.21,0,0,1-.19-.12l-.81-1.82h-3.91l-.8,1.82a.21.21,0,0,1-.19.12H115A.2.2,0,0,1,114.76,173.11Zm5.23-2.33c-.54-1.2-1.07-2.41-1.61-3.61h-.08l-1.61,3.61Z"/><path class="cls-2" d="M125.31,166a.26.26,0,0,1,.27-.26h.32a.26.26,0,0,1,.26.26v3.12l3.43-3.27a.33.33,0,0,1,.21-.11h.54a.21.21,0,0,1,.13.38L127,169.33l3.64,3.73a.22.22,0,0,1-.19.34h-.56a.27.27,0,0,1-.2-.08l-3.53-3.68v3.5a.26.26,0,0,1-.26.26h-.32a.26.26,0,0,1-.27-.26Z"/><path class="cls-2" d="M133.26,173.11l3.34-7.4a.19.19,0,0,1,.19-.12h.11a.18.18,0,0,1,.18.12l3.33,7.4a.2.2,0,0,1-.19.29h-.44a.21.21,0,0,1-.19-.12l-.81-1.82h-3.91l-.8,1.82a.21.21,0,0,1-.19.12h-.44A.19.19,0,0,1,133.26,173.11Zm5.22-2.33c-.54-1.2-1.07-2.41-1.6-3.61h-.09l-1.61,3.61Z"/><path class="cls-2" d="M143.8,165.91a.21.21,0,0,1,.21-.21h2.85a2.36,2.36,0,0,1,2.4,2.34,2.47,2.47,0,0,1-1.63,2.25l1.51,2.79a.21.21,0,0,1-.19.32h-.56a.18.18,0,0,1-.17-.1l-1.47-2.91h-2.1v2.8a.22.22,0,0,1-.21.21H144a.21.21,0,0,1-.21-.21Zm3,3.75a1.58,1.58,0,1,0,0-3.16h-2.14v3.16Z"/><path class="cls-2" d="M154.83,169.69,152.18,166a.2.2,0,0,1,.17-.32h.52a.2.2,0,0,1,.17.1l2.23,3.07,2.22-3.07a.22.22,0,0,1,.17-.1h.52a.2.2,0,0,1,.18.32l-2.69,3.66v3.51a.22.22,0,0,1-.2.21H155a.2.2,0,0,1-.21-.21Z"/><path class="cls-2" d="M160.08,173.11l3.35-7.4a.19.19,0,0,1,.19-.12h.11a.19.19,0,0,1,.18.12l3.33,7.4a.2.2,0,0,1-.19.29h-.44a.21.21,0,0,1-.19-.12l-.81-1.82H161.7l-.8,1.82a.21.21,0,0,1-.19.12h-.44A.2.2,0,0,1,160.08,173.11Zm5.23-2.33c-.54-1.2-1.07-2.41-1.61-3.61h-.08L162,170.78Z"/><path class="cls-2" d="M176.14,165.74a.21.21,0,0,1,.2-.15h.18a.21.21,0,0,1,.19.12l2.17,6.06h.06l2.14-6.06a.21.21,0,0,1,.19-.12h.18a.22.22,0,0,1,.2.15l1.41,7.4a.19.19,0,0,1-.19.26h-.44a.23.23,0,0,1-.2-.15l-1-5.67h0l-2,5.81a.21.21,0,0,1-.19.12h-.19a.21.21,0,0,1-.19-.12l-2.05-5.81h0l-1,5.67a.22.22,0,0,1-.2.15h-.44a.19.19,0,0,1-.19-.26Z"/><path class="cls-2" d="M187,165.91a.22.22,0,0,1,.21-.21h.44a.22.22,0,0,1,.21.21v7.28a.22.22,0,0,1-.21.21h-.44a.22.22,0,0,1-.21-.21Z"/><path class="cls-2" d="M192.26,165.91a.21.21,0,0,1,.21-.21h.43a.22.22,0,0,1,.21.21v6.75h3.17a.2.2,0,0,1,.2.21v.32a.2.2,0,0,1-.2.21h-3.81a.21.21,0,0,1-.21-.21Z"/><path class="cls-2" d="M199.86,165.91a.21.21,0,0,1,.21-.21h.43a.22.22,0,0,1,.21.21v6.75h3.17a.2.2,0,0,1,.2.21v.32a.2.2,0,0,1-.2.21h-3.81a.21.21,0,0,1-.21-.21Z"/><path class="cls-2" d="M207.46,165.91a.22.22,0,0,1,.21-.21h.44a.22.22,0,0,1,.21.21v7.28a.22.22,0,0,1-.21.21h-.44a.22.22,0,0,1-.21-.21Z"/><path class="cls-2" d="M212.76,166a.26.26,0,0,1,.27-.26h.32a.26.26,0,0,1,.26.26v3.12l3.43-3.27a.33.33,0,0,1,.21-.11h.54a.21.21,0,0,1,.13.38l-3.47,3.25,3.64,3.73a.22.22,0,0,1-.19.34h-.56a.27.27,0,0,1-.2-.08l-3.53-3.68v3.5a.26.26,0,0,1-.26.26H213a.26.26,0,0,1-.27-.26Z"/><path class="cls-2" d="M221.71,165.91a.22.22,0,0,1,.2-.21h.45a.22.22,0,0,1,.21.21v7.28a.22.22,0,0,1-.21.21h-.45a.22.22,0,0,1-.2-.21Z"/><path class="cls-2" d="M227,165.79a.21.21,0,0,1,.21-.2h.27l5,6.18h0v-5.86a.2.2,0,0,1,.21-.21h.38a.22.22,0,0,1,.21.21v7.4a.21.21,0,0,1-.21.2h-.2l-5.05-6.3h0v6a.21.21,0,0,1-.21.21h-.38a.22.22,0,0,1-.21-.21Z"/><path class="cls-2" d="M182.71,195.93c0-3.23,1.34-4.25,2.6-4.32.12,0,.18,0,.2.11l0,.3a.16.16,0,0,1-.11.19c-1.39.27-1.94,1.57-1.94,3.72s.55,3.46,1.94,3.73a.15.15,0,0,1,.11.19l0,.3c0,.09-.08.12-.2.11C184.05,200.19,182.71,199.17,182.71,195.93Z"/><path class="cls-2" d="M188.3,191.91a.22.22,0,0,1,.21-.21h.34a.22.22,0,0,1,.21.21v3.27a2.33,2.33,0,0,1,1.18-.29,2.11,2.11,0,0,1,2.11,2.3,2.18,2.18,0,0,1-2,2.32,2,2,0,0,1-1.36-.58l-.06.29c0,.1-.09.18-.19.18h-.23a.22.22,0,0,1-.21-.21Zm2,6.91a1.46,1.46,0,0,0,1.31-1.62,1.41,1.41,0,0,0-1.44-1.57,2.39,2.39,0,0,0-1.07.26v2.2A1.49,1.49,0,0,0,190.27,198.82Z"/><path class="cls-2" d="M195.7,198.26a.61.61,0,0,1,.63.62.63.63,0,1,1-1.25,0A.62.62,0,0,1,195.7,198.26Z"/><path class="cls-2" d="M204.33,193.28l-.8.62a.16.16,0,0,1-.25,0l-.21-.23a.18.18,0,0,1,0-.24l1.55-1.5h.29a.21.21,0,0,1,.2.21v7.06a.21.21,0,0,1-.2.21h-.39a.2.2,0,0,1-.21-.21Z"/><path class="cls-2" d="M209.53,198.89c.49-.16,2.44-1.25,2.83-2.74a3.27,3.27,0,0,1-1.68.5,2.32,2.32,0,0,1-2.36-2.39,2.5,2.5,0,0,1,2.43-2.52c1.78,0,2.56,1.39,2.56,3.14,0,2.92-2.5,4.27-3.62,4.71a.18.18,0,0,1-.24-.11l-.12-.27C209.28,199.08,209.32,199,209.53,198.89Zm3-3.67c.19-1.1-.24-2.75-1.75-2.75a1.71,1.71,0,0,0-1.65,1.75,1.67,1.67,0,0,0,1.66,1.71A2.72,2.72,0,0,0,212.5,195.22Z"/><path class="cls-2" d="M217.15,198.89c.5-.16,2.45-1.25,2.83-2.74a3.26,3.26,0,0,1-1.67.5,2.33,2.33,0,0,1-2.37-2.39,2.5,2.5,0,0,1,2.43-2.52c1.79,0,2.57,1.39,2.57,3.14,0,2.92-2.51,4.27-3.62,4.71a.18.18,0,0,1-.24-.11l-.13-.27C216.9,199.08,216.94,199,217.15,198.89Zm3-3.67c.19-1.1-.24-2.75-1.75-2.75a1.71,1.71,0,0,0-1.65,1.75,1.68,1.68,0,0,0,1.67,1.71A2.67,2.67,0,0,0,220.12,195.22Z"/><path class="cls-2" d="M223.89,198.22l.25-.24c.1-.09.18-.11.27,0a2,2,0,0,0,1.63.82,1.78,1.78,0,0,0,1.73-1.81,1.54,1.54,0,0,0-1.73-1.58h-1.67A.37.37,0,0,1,224,195v-2.9a.21.21,0,0,1,.21-.21h3.32a.21.21,0,0,1,.21.21v.32a.21.21,0,0,1-.21.21h-2.8v2H226c1.66,0,2.54.87,2.54,2.31a2.49,2.49,0,0,1-2.55,2.52,2.61,2.61,0,0,1-2.12-.91C223.76,198.43,223.75,198.36,223.89,198.22Z"/><path class="cls-2" d="M233,195.93c0-2.15-.55-3.45-1.93-3.72A.14.14,0,0,1,231,192l0-.3c0-.09.08-.12.2-.11,1.25.07,2.59,1.09,2.59,4.32s-1.34,4.26-2.59,4.33c-.12,0-.19,0-.2-.11l0-.3a.14.14,0,0,1,.11-.19C232.44,199.39,233,198.09,233,195.93Z"/><path class="cls-2" d="M80.43,235.91a.21.21,0,0,1,.2-.21H83.1a3.85,3.85,0,1,1,0,7.7H80.63a.21.21,0,0,1-.2-.21Zm2.49,6.73a3.1,3.1,0,1,0,0-6.19H81.27v6.19Z"/><path class="cls-2" d="M89.66,236.45a.53.53,0,1,1,.52.51A.52.52,0,0,1,89.66,236.45Zm.16,2.76A.22.22,0,0,1,90,239h.34a.22.22,0,0,1,.21.21v4a.22.22,0,0,1-.21.21H90a.22.22,0,0,1-.21-.21Z"/><path class="cls-2" d="M94.08,241.93a2,2,0,0,1-.35-1.1,1.86,1.86,0,0,1,1.86-1.94h1.86a.21.21,0,0,1,.21.21v.19c0,.07,0,.17-.12.18l-.59.12a1.56,1.56,0,0,1,.49,1.24,1.81,1.81,0,0,1-1.85,1.87,1.71,1.71,0,0,1-1-.28s-.49.22-.49.66a.55.55,0,0,0,.61.54h1.58c.93,0,1.65.45,1.65,1.41a2.07,2.07,0,0,1-2.27,1.78c-1.48,0-2.12-.79-2.12-1.52a1.19,1.19,0,0,1,.64-1v0a1.07,1.07,0,0,1-.8-1.05A1.57,1.57,0,0,1,94.08,241.93Zm1.53,4.17c.73,0,1.48-.41,1.48-1,0-.14-.07-.71-.84-.71H95s-.74.19-.74.84S94.87,246.1,95.61,246.1Zm1.09-5.3a1.11,1.11,0,0,0-1.1-1.23,1.24,1.24,0,0,0,0,2.47A1.12,1.12,0,0,0,96.7,240.8Z"/><path class="cls-2" d="M100.33,236.45a.53.53,0,1,1,.52.51A.52.52,0,0,1,100.33,236.45Zm.16,2.76a.22.22,0,0,1,.21-.21H101a.22.22,0,0,1,.21.21v4a.22.22,0,0,1-.21.21h-.34a.22.22,0,0,1-.21-.21Z"/><path class="cls-2" d="M104.74,239.66h-.56a.21.21,0,0,1-.21-.21v-.24a.21.21,0,0,1,.21-.21h.56v-1.22a.22.22,0,0,1,.21-.21l.36,0a.21.21,0,0,1,.19.21V239h1.28a.21.21,0,0,1,.21.21v.24a.21.21,0,0,1-.21.21H105.5v2.57c0,.44.11.53.37.53a2,2,0,0,0,.8-.24c.16-.09.21,0,.26.07l.17.27c.08.13,0,.2-.08.28a2.86,2.86,0,0,1-1.26.37c-.88,0-1-.53-1-1.21Z"/><path class="cls-2" d="M111.31,240.61a3.78,3.78,0,0,1,.94.14c0-.82-.09-1.19-.72-1.19a4.11,4.11,0,0,0-1.32.24c-.11,0-.18,0-.21-.11l-.09-.27a.18.18,0,0,1,.12-.24,4,4,0,0,1,1.53-.29c1.13,0,1.4.57,1.4,1.86v2.44a.22.22,0,0,1-.21.21h-.21c-.12,0-.15-.07-.18-.16l-.09-.3a1.91,1.91,0,0,1-1.37.57,1.33,1.33,0,0,1-1.35-1.44C109.55,241.23,110.18,240.61,111.31,240.61Zm-.28,2.24a1.57,1.57,0,0,0,1.21-.62v-.87a2.13,2.13,0,0,0-.93-.17c-.62,0-1.06.31-1.06.88A.75.75,0,0,0,111,242.85Z"/><path class="cls-2" d="M116.15,235.91a.22.22,0,0,1,.21-.21h.34a.22.22,0,0,1,.21.21v7.28a.22.22,0,0,1-.21.21h-.34a.22.22,0,0,1-.21-.21Z"/><path class="cls-2" d="M120.58,242.26c.36,0,.73.19.73,1a3,3,0,0,1-.92,2c-.11.1-.2.09-.27,0l-.15-.15c-.06-.06,0-.17.06-.26a1.9,1.9,0,0,0,.69-1.39h-.14a.63.63,0,0,1-.62-.63A.62.62,0,0,1,120.58,242.26Z"/><path class="cls-2" d="M128.78,235.91a.22.22,0,0,1,.21-.21h.43a.21.21,0,0,1,.21.21v3.21h4.46v-3.21a.21.21,0,0,1,.21-.21h.43a.22.22,0,0,1,.21.21v7.28a.22.22,0,0,1-.21.21h-.43a.21.21,0,0,1-.21-.21v-3.33h-4.46v3.33a.21.21,0,0,1-.21.21H129a.22.22,0,0,1-.21-.21Z"/><path class="cls-2" d="M139.72,240.61a3.68,3.68,0,0,1,.94.14c0-.82-.09-1.19-.72-1.19a4.11,4.11,0,0,0-1.32.24c-.11,0-.17,0-.21-.11l-.08-.27c-.05-.13,0-.2.12-.24a3.89,3.89,0,0,1,1.53-.29c1.12,0,1.39.57,1.39,1.86v2.44a.22.22,0,0,1-.21.21H141c-.13,0-.16-.07-.19-.16l-.09-.3a1.9,1.9,0,0,1-1.36.57,1.34,1.34,0,0,1-1.36-1.44C138,241.23,138.59,240.61,139.72,240.61Zm-.28,2.24a1.55,1.55,0,0,0,1.21-.62v-.87a2.1,2.1,0,0,0-.93-.17c-.61,0-1.05.31-1.05.88A.74.74,0,0,0,139.44,242.85Z"/><path class="cls-2" d="M144.55,239.21a.22.22,0,0,1,.21-.21H145a.18.18,0,0,1,.19.15l.08.32a1.65,1.65,0,0,1,1.33-.58c.33,0,.88.05.77.36l-.14.38c0,.14-.15.14-.26.1a1,1,0,0,0-.43-.09,1.41,1.41,0,0,0-1.2.61v2.94a.22.22,0,0,1-.21.21h-.34a.22.22,0,0,1-.21-.21Z"/><path class="cls-2" d="M151.67,238.89a2.33,2.33,0,0,1,1.18.29v-3.27a.22.22,0,0,1,.21-.21h.34a.22.22,0,0,1,.21.21v7.28a.22.22,0,0,1-.21.21h-.23a.2.2,0,0,1-.19-.18l-.07-.29a2,2,0,0,1-1.35.58,2.18,2.18,0,0,1-2-2.32A2.11,2.11,0,0,1,151.67,238.89Zm0,3.93a1.49,1.49,0,0,0,1.2-.73v-2.2a2.44,2.44,0,0,0-1.07-.26,1.41,1.41,0,0,0-1.44,1.57A1.45,1.45,0,0,0,151.64,242.82Z"/><path class="cls-2" d="M157,240.78v-.21a.21.21,0,0,1,.21-.21h2.3a.21.21,0,0,1,.21.21v.21a.2.2,0,0,1-.21.2h-2.3A.2.2,0,0,1,157,240.78Z"/><path class="cls-2" d="M163.15,235.91a.21.21,0,0,1,.21-.21h2.85a2.36,2.36,0,0,1,2.4,2.34,2.47,2.47,0,0,1-1.63,2.25l1.51,2.79a.21.21,0,0,1-.19.32h-.56a.18.18,0,0,1-.17-.1l-1.47-2.91H164v2.8a.22.22,0,0,1-.21.21h-.43a.21.21,0,0,1-.21-.21Zm3,3.75a1.58,1.58,0,1,0,0-3.16H164v3.16Z"/><path class="cls-2" d="M173.26,238.89a2.31,2.31,0,1,1-2.19,2.3A2.26,2.26,0,0,1,173.26,238.89Zm0,3.91a1.51,1.51,0,0,0,1.43-1.61,1.44,1.44,0,1,0-2.86,0A1.52,1.52,0,0,0,173.26,242.8Z"/><path class="cls-2" d="M178.29,239.21a.22.22,0,0,1,.21-.21h.35a.22.22,0,0,1,.21.21v2.32c0,.84.37,1.24,1,1.24a1.74,1.74,0,0,0,1.31-.62v-2.94a.22.22,0,0,1,.21-.21h.34a.22.22,0,0,1,.21.21v4a.22.22,0,0,1-.21.21h-.21c-.12,0-.17-.08-.2-.19l-.08-.28a2,2,0,0,1-1.43.58c-1.27,0-1.7-.83-1.7-2Z"/><path class="cls-2" d="M185.33,239.21a.22.22,0,0,1,.21-.21h.21a.15.15,0,0,1,.17.13l.1.34a2.47,2.47,0,0,1,1.54-.58c1.28,0,1.71.84,1.71,2v2.32a.22.22,0,0,1-.21.21h-.35a.22.22,0,0,1-.21-.21v-2.32c0-.84-.38-1.24-1-1.24a2.16,2.16,0,0,0-1.42.62v2.94a.22.22,0,0,1-.21.21h-.34a.22.22,0,0,1-.21-.21Z"/><path class="cls-2" d="M194.22,238.89a2.31,2.31,0,0,1,1.17.29v-3.27a.22.22,0,0,1,.21-.21h.34a.22.22,0,0,1,.21.21v7.28a.22.22,0,0,1-.21.21h-.23c-.1,0-.16-.08-.18-.18l-.07-.29a2,2,0,0,1-1.35.58,2.19,2.19,0,0,1-2-2.32A2.11,2.11,0,0,1,194.22,238.89Zm0,3.93a1.47,1.47,0,0,0,1.2-.73v-2.2a2.37,2.37,0,0,0-1.06-.26,1.41,1.41,0,0,0-1.45,1.57A1.46,1.46,0,0,0,194.18,242.82Z"/><path class="cls-2" d="M203.81,235.91a.21.21,0,0,1,.21-.21h2.41a2,2,0,0,1,1.17,3.78,2,2,0,0,1,1.32,1.8,2.17,2.17,0,0,1-2.39,2.12H204a.21.21,0,0,1-.21-.21Zm2.8,6.75a1.35,1.35,0,0,0,1.39-1.39,1.46,1.46,0,0,0-1.57-1.36h-1.82v2.75Zm-.18-3.51a1.27,1.27,0,0,0,1.32-1.37,1.22,1.22,0,0,0-1.32-1.32h-1.8v2.69Z"/><path class="cls-2" d="M211.85,239.21a.22.22,0,0,1,.21-.21h.21a.19.19,0,0,1,.19.15l.08.32a1.64,1.64,0,0,1,1.32-.58c.33,0,.88.05.77.36l-.13.38c-.05.14-.15.14-.26.1a1.06,1.06,0,0,0-.43-.09,1.41,1.41,0,0,0-1.2.61v2.94a.22.22,0,0,1-.21.21h-.34a.22.22,0,0,1-.21-.21Z"/><path class="cls-2" d="M217.12,239.21a.22.22,0,0,1,.21-.21h.35a.22.22,0,0,1,.21.21v2.32c0,.84.37,1.24,1,1.24a1.74,1.74,0,0,0,1.31-.62v-2.94a.22.22,0,0,1,.21-.21h.34a.22.22,0,0,1,.21.21v4a.22.22,0,0,1-.21.21h-.21c-.12,0-.17-.08-.2-.19l-.08-.28a2,2,0,0,1-1.43.58c-1.27,0-1.7-.83-1.7-2Z"/><path class="cls-2" d="M223.9,242.78c0-.06.12-.22.15-.27a.2.2,0,0,1,.3,0,1.85,1.85,0,0,0,1,.38c.45,0,.71-.23.71-.53s-.33-.56-1-.88-1.26-.67-1.26-1.42a1.24,1.24,0,0,1,1.4-1.14,2.28,2.28,0,0,1,1.22.34.27.27,0,0,1,.07.34l-.09.18a.25.25,0,0,1-.32.1,2.14,2.14,0,0,0-.88-.27c-.5,0-.63.26-.63.44,0,.37.37.53.82.75.76.36,1.44.7,1.44,1.5a1.4,1.4,0,0,1-1.52,1.24A2.2,2.2,0,0,1,224,243,.21.21,0,0,1,223.9,242.78Z"/><path class="cls-2" d="M229.74,235.91a.21.21,0,0,1,.2-.21h.35a.21.21,0,0,1,.2.21v3.56a2.28,2.28,0,0,1,1.48-.58c1.09,0,1.7.69,1.7,2v2.32a.22.22,0,0,1-.2.21h-.36a.22.22,0,0,1-.21-.21v-2.32c0-.84-.37-1.24-1-1.24a2.18,2.18,0,0,0-1.42.61v2.95a.21.21,0,0,1-.2.21h-.35a.21.21,0,0,1-.2-.21Z"/><path class="cls-2" d="M51,265.93c0-3.23,1.34-4.25,2.59-4.32.13,0,.19,0,.2.11l0,.3a.14.14,0,0,1-.11.19c-1.38.27-1.93,1.57-1.93,3.72s.55,3.46,1.93,3.73a.14.14,0,0,1,.11.19l0,.3c0,.09-.07.12-.2.11C52.33,270.19,51,269.17,51,265.93Z"/><path class="cls-2" d="M55.84,267.5v-.41L60,261.86a.19.19,0,0,1,.16-.06h.22a.21.21,0,0,1,.21.21v5h.89a.2.2,0,0,1,.21.2v.24a.2.2,0,0,1-.21.21h-.89v1.51a.22.22,0,0,1-.21.21H60a.22.22,0,0,1-.21-.21v-1.48H56.05A.21.21,0,0,1,55.84,267.5Zm4-.48v-3.83L56.76,267Z"/><path class="cls-2" d="M64.56,265.66c0-2.41,1-3.85,2.68-3.85s2.67,1.44,2.67,3.85-1,3.85-2.67,3.85S64.56,268.07,64.56,265.66Zm4.57,0c0-2-.68-3.14-1.89-3.14s-1.9,1.15-1.9,3.14.69,3.14,1.9,3.14S69.13,267.67,69.13,265.66Z"/><path class="cls-2" d="M73.91,272.49a.22.22,0,0,1-.21.21h-.34a.22.22,0,0,1-.21-.21v-7.28a.22.22,0,0,1,.21-.21h.23c.1,0,.14,0,.18.14l.08.21a2,2,0,0,1,1.27-.46,2.32,2.32,0,0,1,0,4.62,2,2,0,0,1-1.18-.36ZM75,268.77a1.61,1.61,0,0,0,.06-3.19,1.51,1.51,0,0,0-1.13.54v2.27A1.89,1.89,0,0,0,75,268.77Z"/><path class="cls-2" d="M81.13,267.16l-1.4-1.87c-.11-.15,0-.29.14-.29h.47a.21.21,0,0,1,.17.09l1,1.49h0l1.09-1.49a.21.21,0,0,1,.17-.09h.47c.18,0,.25.14.14.29L82,267.14l1.41,2c.1.15,0,.29-.14.29H82.9a.23.23,0,0,1-.16-.1l-1.17-1.62h0l-1.15,1.63a.21.21,0,0,1-.17.09h-.41c-.19,0-.24-.14-.14-.29Z"/><path class="cls-2" d="M87.89,265.93c0-2.15-.55-3.45-1.93-3.72a.14.14,0,0,1-.11-.19l0-.3c0-.09.08-.12.2-.11,1.25.07,2.59,1.09,2.59,4.32s-1.34,4.26-2.59,4.33c-.12,0-.19,0-.2-.11l0-.3a.14.14,0,0,1,.11-.19C87.34,269.39,87.89,268.09,87.89,265.93Z"/><path class="cls-2" d="M92.18,268.26c.35,0,.73.19.73,1a3,3,0,0,1-.92,2c-.11.1-.2.09-.27,0l-.15-.15c-.06-.06,0-.17.06-.26a1.9,1.9,0,0,0,.69-1.39h-.14a.63.63,0,0,1-.62-.63A.62.62,0,0,1,92.18,268.26Z"/><path class="cls-2" d="M99.78,268.27l.3-.26a.19.19,0,0,1,.3.06,2.23,2.23,0,0,0,1.64.76,1.45,1.45,0,0,0,1.58-1.38c0-.75-.58-1.44-1.95-1.44H101c-.12,0-.21-.06-.21-.24v-.26c0-.18,0-.25.23-.25h.6c1.18,0,1.75-.6,1.75-1.33a1.37,1.37,0,0,0-1.44-1.4,1.91,1.91,0,0,0-1.44.72.18.18,0,0,1-.28,0l-.27-.21a.19.19,0,0,1,0-.28,2.82,2.82,0,0,1,2-1,2,2,0,0,1,1.14,3.75v0a2.1,2.1,0,0,1,1.32,1.79,2.2,2.2,0,0,1-2.45,2.13,2.7,2.7,0,0,1-2.21-1A.19.19,0,0,1,99.78,268.27Z"/><path class="cls-2" d="M107.56,265.66c0-2.41,1-3.85,2.67-3.85s2.68,1.44,2.68,3.85-1,3.85-2.68,3.85S107.56,268.07,107.56,265.66Zm4.57,0c0-2-.69-3.14-1.9-3.14s-1.89,1.15-1.89,3.14.68,3.14,1.89,3.14S112.13,267.67,112.13,265.66Z"/><path class="cls-2" d="M115.74,263.06a1.49,1.49,0,1,1,1.49,1.49A1.48,1.48,0,0,1,115.74,263.06Zm2.33,0a.85.85,0,0,0-.84-.83.85.85,0,1,0,.84.83Zm2.47-1.25a.19.19,0,0,1,.19-.11h.17a.2.2,0,0,1,.19.3l-3.79,7.29a.24.24,0,0,1-.19.11H117a.2.2,0,0,1-.18-.3Zm.17,4.74a1.49,1.49,0,1,1-1.49,1.49A1.49,1.49,0,0,1,120.71,266.55Zm0,2.34a.85.85,0,1,0-.86-.85A.84.84,0,0,0,120.71,268.89Z"/><path class="cls-2" d="M129.31,265.21a.22.22,0,0,1,.21-.21h.21a.16.16,0,0,1,.17.13l.1.34a2,2,0,0,1,1.43-.58,1.55,1.55,0,0,1,1.41.71,2.7,2.7,0,0,1,1.64-.71c1.27,0,1.7.84,1.7,2v2.32a.22.22,0,0,1-.21.21h-.35a.22.22,0,0,1-.21-.21v-2.32c0-.83-.35-1.24-1-1.24a2,2,0,0,0-1.34.61,4,4,0,0,1,.06.63v2.32a.22.22,0,0,1-.21.21h-.36a.21.21,0,0,1-.2-.21v-2.32c0-.84-.38-1.24-1.05-1.24a1.69,1.69,0,0,0-1.25.62v2.94a.22.22,0,0,1-.21.21h-.34a.22.22,0,0,1-.21-.21Z"/><path class="cls-2" d="M139.18,262.45a.53.53,0,1,1,1,0,.53.53,0,0,1-1,0Zm.16,2.76a.22.22,0,0,1,.21-.21h.34a.22.22,0,0,1,.21.21v4a.22.22,0,0,1-.21.21h-.34a.22.22,0,0,1-.21-.21Z"/><path class="cls-2" d="M143.31,265.21a.22.22,0,0,1,.21-.21h.21a.15.15,0,0,1,.17.13l.1.34a2.47,2.47,0,0,1,1.54-.58c1.28,0,1.71.84,1.71,2v2.32a.22.22,0,0,1-.21.21h-.35a.22.22,0,0,1-.21-.21v-2.32c0-.84-.38-1.24-1-1.24a2.16,2.16,0,0,0-1.42.62v2.94a.22.22,0,0,1-.21.21h-.34a.22.22,0,0,1-.21-.21Z"/><path class="cls-2" d="M150.25,262.45a.53.53,0,1,1,.52.51A.52.52,0,0,1,150.25,262.45Zm.15,2.76a.22.22,0,0,1,.21-.21H151a.21.21,0,0,1,.21.21v4a.21.21,0,0,1-.21.21h-.34a.22.22,0,0,1-.21-.21Z"/><path class="cls-2" d="M154.38,265.21a.22.22,0,0,1,.2-.21h.21a.16.16,0,0,1,.18.13l.1.34a2,2,0,0,1,1.43-.58,1.55,1.55,0,0,1,1.41.71,2.7,2.7,0,0,1,1.64-.71c1.27,0,1.7.84,1.7,2v2.32a.22.22,0,0,1-.21.21h-.35a.22.22,0,0,1-.21-.21v-2.32c0-.83-.35-1.24-1-1.24a2,2,0,0,0-1.34.61,4,4,0,0,1,0,.63v2.32a.21.21,0,0,1-.2.21h-.36a.22.22,0,0,1-.21-.21v-2.32c0-.84-.37-1.24-1-1.24a1.69,1.69,0,0,0-1.25.62v2.94a.22.22,0,0,1-.21.21h-.35a.22.22,0,0,1-.2-.21Z"/><path class="cls-2" d="M164.35,265.21a.22.22,0,0,1,.21-.21h.35a.22.22,0,0,1,.21.21v2.32c0,.84.38,1.24,1,1.24a1.74,1.74,0,0,0,1.31-.62v-2.94a.22.22,0,0,1,.21-.21H168a.22.22,0,0,1,.21.21v4a.22.22,0,0,1-.21.21h-.21c-.12,0-.16-.08-.19-.19l-.08-.28a2,2,0,0,1-1.43.58c-1.28,0-1.71-.83-1.71-2Z"/><path class="cls-2" d="M171.39,265.21a.22.22,0,0,1,.21-.21h.21a.17.17,0,0,1,.18.13l.1.34a2,2,0,0,1,1.43-.58,1.54,1.54,0,0,1,1.4.71,2.74,2.74,0,0,1,1.64-.71c1.28,0,1.71.84,1.71,2v2.32a.22.22,0,0,1-.21.21h-.35a.22.22,0,0,1-.21-.21v-2.32c0-.83-.35-1.24-1-1.24a2,2,0,0,0-1.34.61,4,4,0,0,1,.05.63v2.32a.22.22,0,0,1-.21.21h-.35a.22.22,0,0,1-.21-.21v-2.32c0-.84-.37-1.24-1-1.24a1.7,1.7,0,0,0-1.26.62v2.94a.22.22,0,0,1-.21.21h-.34a.22.22,0,0,1-.21-.21Z"/><path class="cls-2" d="M187.31,264.89a2.33,2.33,0,0,1,1.18.29v-3.27a.22.22,0,0,1,.21-.21H189a.22.22,0,0,1,.21.21v7.28a.22.22,0,0,1-.21.21h-.23a.2.2,0,0,1-.19-.18l-.07-.29a2,2,0,0,1-1.35.58,2.18,2.18,0,0,1-2-2.32A2.11,2.11,0,0,1,187.31,264.89Zm0,3.93a1.49,1.49,0,0,0,1.2-.73v-2.2a2.44,2.44,0,0,0-1.07-.26A1.41,1.41,0,0,0,186,267.2,1.45,1.45,0,0,0,187.28,268.82Z"/><path class="cls-2" d="M192.31,262.45a.53.53,0,1,1,1.05,0,.53.53,0,0,1-1.05,0Zm.16,2.76a.22.22,0,0,1,.21-.21H193a.22.22,0,0,1,.21.21v4a.22.22,0,0,1-.21.21h-.34a.22.22,0,0,1-.21-.21Z"/><path class="cls-2" d="M197.88,266.61a3.78,3.78,0,0,1,.94.14c0-.82-.09-1.19-.72-1.19a4.11,4.11,0,0,0-1.32.24c-.11.05-.18,0-.21-.11l-.09-.27a.18.18,0,0,1,.12-.24,4,4,0,0,1,1.53-.29c1.13,0,1.4.57,1.4,1.86v2.44a.22.22,0,0,1-.21.21h-.21c-.12,0-.15-.07-.18-.16l-.09-.3a1.91,1.91,0,0,1-1.37.57,1.33,1.33,0,0,1-1.35-1.44C196.12,267.23,196.75,266.61,197.88,266.61Zm-.29,2.24a1.56,1.56,0,0,0,1.22-.62v-.87a2.17,2.17,0,0,0-.93-.17c-.62,0-1.06.31-1.06.88A.74.74,0,0,0,197.59,268.85Z"/><path class="cls-2" d="M202.71,265.21a.22.22,0,0,1,.21-.21h.21a.15.15,0,0,1,.17.13l.1.34a2,2,0,0,1,1.43-.58,1.55,1.55,0,0,1,1.41.71,2.74,2.74,0,0,1,1.64-.71c1.28,0,1.7.84,1.7,2v2.32a.21.21,0,0,1-.2.21H209a.21.21,0,0,1-.2-.21v-2.32c0-.83-.36-1.24-1-1.24a2,2,0,0,0-1.34.61,3.06,3.06,0,0,1,.06.63v2.32a.22.22,0,0,1-.21.21H206a.22.22,0,0,1-.21-.21v-2.32c0-.84-.38-1.24-1.05-1.24a1.69,1.69,0,0,0-1.25.62v2.94a.22.22,0,0,1-.21.21h-.34a.22.22,0,0,1-.21-.21Z"/><path class="cls-2" d="M214.58,264.89a1.94,1.94,0,0,1,2,2c0,.08,0,.22,0,.3a.21.21,0,0,1-.2.19h-3.17a1.55,1.55,0,0,0,1.47,1.43,2.1,2.1,0,0,0,1.09-.33c.16-.09.22-.15.31,0l.19.26c.08.1.12.16,0,.28a2.75,2.75,0,0,1-1.62.51,2.32,2.32,0,0,1,0-4.62Zm1.23,1.88a1.27,1.27,0,0,0-1.23-1.21,1.37,1.37,0,0,0-1.39,1.21Z"/><path class="cls-2" d="M219.7,265.66h-.56a.21.21,0,0,1-.21-.21v-.24a.21.21,0,0,1,.21-.21h.56v-1.22a.22.22,0,0,1,.21-.21l.36,0a.2.2,0,0,1,.19.21V265h1.28a.21.21,0,0,1,.21.21v.24a.21.21,0,0,1-.21.21h-1.28v2.57c0,.44.11.53.37.53a2,2,0,0,0,.8-.24c.16-.09.21,0,.26.07l.17.27c.08.13,0,.2-.08.28a2.86,2.86,0,0,1-1.26.37c-.88,0-1-.53-1-1.21Z"/><path class="cls-2" d="M226.67,264.89a1.94,1.94,0,0,1,2,2c0,.08,0,.22,0,.3a.21.21,0,0,1-.2.19h-3.17a1.54,1.54,0,0,0,1.47,1.43,2.1,2.1,0,0,0,1.09-.33c.16-.09.22-.15.31,0l.19.26c.07.1.12.16-.05.28a2.69,2.69,0,0,1-1.61.51,2.32,2.32,0,0,1,0-4.62Zm1.23,1.88a1.27,1.27,0,0,0-1.23-1.21,1.37,1.37,0,0,0-1.39,1.21Z"/><path class="cls-2" d="M231.51,265.21a.22.22,0,0,1,.21-.21h.2a.18.18,0,0,1,.19.15l.09.32a1.64,1.64,0,0,1,1.32-.58c.33,0,.88.05.77.36l-.13.38c-.06.14-.16.14-.27.1a1,1,0,0,0-.42-.09,1.41,1.41,0,0,0-1.2.61v2.94a.22.22,0,0,1-.21.21h-.34a.22.22,0,0,1-.21-.21Z"/><path class="cls-2" d="M12.37,53.86A4.86,4.86,0,0,1,15,49.7c.17-.08.29-.13.38,0l.12.25c.09.17.09.3-.12.38a4.06,4.06,0,0,0-2.19,3.49,4.48,4.48,0,0,0,.55,2.39,1.16,1.16,0,0,1,.84-.42,1,1,0,0,1,1,1,.94.94,0,0,1-1,.92C13.68,57.72,12.37,56.67,12.37,53.86Zm7.48,0a4.86,4.86,0,0,1,2.61-4.16c.16-.08.29-.13.37,0L23,50c.08.17.08.3-.13.38a4.06,4.06,0,0,0-2.18,3.49,4.39,4.39,0,0,0,.55,2.39,1.16,1.16,0,0,1,.84-.42,1,1,0,0,1,1,1,.94.94,0,0,1-1,.92C21.15,57.72,19.85,56.67,19.85,53.86Z"/><path class="cls-2" d="M238,107.3c-.08-.16-.08-.29.13-.37a4.06,4.06,0,0,0,2.18-3.49,4.47,4.47,0,0,0-.54-2.39,1.18,1.18,0,0,1-.85.41,1,1,0,0,1-1-1,.94.94,0,0,1,1-.93c.89,0,2.19,1.06,2.19,3.87a4.86,4.86,0,0,1-2.61,4.16c-.16.08-.29.12-.37,0Zm7.48,0c-.09-.16-.09-.29.12-.37a4.06,4.06,0,0,0,2.19-3.49,4.45,4.45,0,0,0-.55-2.39,1.15,1.15,0,0,1-.84.41,1,1,0,0,1-1-1,.94.94,0,0,1,1-.93c.88,0,2.19,1.06,2.19,3.87A4.86,4.86,0,0,1,246,107.6c-.17.08-.29.12-.38,0Z"/></g></g></svg>