<svg xmlns="http://www.w3.org/2000/svg" viewBox="0 0 10.64 8.1"><defs><style>.cls-1{fill:#fbae5c;}</style></defs><g id="Layer_2" data-name="Layer 2"><g id="Stroke"><path class="cls-1" d="M.05,7.73C0,7.56,0,7.44.18,7.35A4.06,4.06,0,0,0,2.36,3.86a4.5,4.5,0,0,0-.54-2.39A1.16,1.16,0,0,1,1,1.89a1,1,0,0,1-1-1A.94.94,0,0,1,1,0c.88,0,2.18,1.05,2.18,3.86A4.86,4.86,0,0,1,.56,8c-.17.09-.3.13-.38,0Zm7.48,0c-.08-.17-.08-.29.13-.38A4.06,4.06,0,0,0,9.84,3.86a4.39,4.39,0,0,0-.55-2.39,1.16,1.16,0,0,1-.84.42,1,1,0,0,1-1-1,.94.94,0,0,1,1-.92c.89,0,2.19,1.05,2.19,3.86A4.86,4.86,0,0,1,8,8c-.16.09-.29.13-.37,0Z"/></g></g></svg>