<svg xmlns="http://www.w3.org/2000/svg" viewBox="0 0 10.64 8.1"><defs><style>.cls-1{fill:#fbae5c;}</style></defs><g id="Layer_2" data-name="Layer 2"><g id="Stroke"><path class="cls-1" d="M0,4.23A4.86,4.86,0,0,1,2.61.07C2.77,0,2.9,0,3,.12l.13.25c.08.17.08.29-.13.38A4.06,4.06,0,0,0,.8,4.23a4.54,4.54,0,0,0,.54,2.4,1.18,1.18,0,0,1,.85-.42,1,1,0,0,1,1,1,.94.94,0,0,1-1,.93C1.3,8.1,0,7.05,0,4.23Zm7.48,0A4.86,4.86,0,0,1,10.08.07c.17-.08.3-.12.38,0l.13.25c.08.17.08.29-.13.38A4.06,4.06,0,0,0,8.28,4.23a4.54,4.54,0,0,0,.54,2.4,1.16,1.16,0,0,1,.84-.42,1,1,0,0,1,1,1,.94.94,0,0,1-1,.93C8.78,8.1,7.48,7.05,7.48,4.23Z"/></g></g></svg>