<?xml version="1.0" encoding="utf-8"?>
<!-- Generator: Adobe Illustrator 25.4.1, SVG Export Plug-In . SVG Version: 6.00 Build 0)  -->
<svg version="1.1" id="Layer_1" xmlns="http://www.w3.org/2000/svg" xmlns:xlink="http://www.w3.org/1999/xlink" x="0px" y="0px"
	 viewBox="0 0 260.8 298.8" style="enable-background:new 0 0 260.8 298.8;" xml:space="preserve">
<style type="text/css">
	.st0{fill:none;stroke:#FBAE5C;stroke-width:1.2;stroke-linejoin:round;}
	.st1{fill:#FBAE5C;}
</style>
<g id="Layer_2_00000070118162208056799290000007878568999120774588_">
	<g id="Stroke">
		<rect x="0.4" y="0.4" class="st0" width="260" height="298"/>
		<path class="st1" d="M56.7,173.1l3.3-7.4c0-0.1,0.1-0.1,0.2-0.1h0.1c0.1,0,0.2,0,0.2,0.1l3.3,7.4c0,0.1,0,0.2-0.1,0.3
			c0,0-0.1,0-0.1,0h-0.4c-0.1,0-0.2,0-0.2-0.1l-0.8-1.8h-3.9l-0.8,1.8c0,0.1-0.1,0.1-0.2,0.1h-0.4c-0.1,0-0.2-0.1-0.2-0.2
			C56.7,173.2,56.7,173.1,56.7,173.1z M61.9,170.8c-0.5-1.2-1.1-2.4-1.6-3.6h-0.1l-1.6,3.6H61.9z"/>
		<path class="st1" d="M67.2,165.9c0-0.1,0.1-0.2,0.2-0.2h0.4c0.1,0,0.2,0.1,0.2,0.2v7.3c0,0.1-0.1,0.2-0.2,0.2h-0.4
			c-0.1,0-0.2-0.1-0.2-0.2V165.9z"/>
		<path class="st1" d="M72.5,165.9c0-0.1,0.1-0.2,0.2-0.2c0,0,0,0,0,0h2.5c2.1,0,3.9,1.7,3.9,3.8c0,2.1-1.7,3.9-3.8,3.9c0,0,0,0,0,0
			h-2.5c-0.1,0-0.2-0.1-0.2-0.2c0,0,0,0,0,0V165.9z M75,172.6c1.7,0.1,3.2-1.2,3.3-2.9c0.1-1.7-1.2-3.2-2.9-3.3c-0.1,0-0.2,0-0.4,0
			h-1.6v6.2H75z"/>
		<path class="st1" d="M81.8,173.1l3.3-7.4c0-0.1,0.1-0.1,0.2-0.1h0.1c0.1,0,0.2,0,0.2,0.1l3.3,7.4c0.1,0.1,0,0.2-0.1,0.3
			c0,0-0.1,0-0.1,0h-0.4c-0.1,0-0.2,0-0.2-0.1l-0.8-1.8h-3.9l-0.8,1.8c0,0.1-0.1,0.1-0.2,0.1H82C81.9,173.4,81.8,173.3,81.8,173.1
			C81.8,173.2,81.8,173.1,81.8,173.1z M87.1,170.8c-0.5-1.2-1.1-2.4-1.6-3.6h-0.1l-1.6,3.6H87.1z"/>
		<path class="st1" d="M92.4,165.8c0-0.1,0.1-0.2,0.2-0.2h0.3l5,6.2l0,0v-5.9c0-0.1,0.1-0.2,0.2-0.2h0h0.4c0.1,0,0.2,0.1,0.2,0.2
			v7.4c0,0.1-0.1,0.2-0.2,0.2h-0.2l-5-6.3l0,0v6c0,0.1-0.1,0.2-0.2,0.2h0h-0.4c-0.1,0-0.2-0.1-0.2-0.2L92.4,165.8z"/>
		<path class="st1" d="M107.3,172.2c0.1-0.1,0.1-0.1,0.2-0.2s0.2-0.2,0.4-0.1c0.5,0.5,1.2,0.8,1.9,0.8c0.7,0.1,1.4-0.4,1.5-1.2
			c0,0,0,0,0,0c0-0.8-0.7-1.2-1.9-1.7s-1.9-1-1.9-2.3c0-1.2,1-2.1,2.2-2c0.1,0,0.1,0,0.2,0c0.7,0,1.3,0.2,1.9,0.6
			c0.1,0.1,0.2,0.2,0.1,0.3c0,0,0,0,0,0c0,0.1-0.1,0.1-0.1,0.2c0,0.1-0.2,0.2-0.3,0.1c0,0-0.1,0-0.1,0c-0.4-0.3-0.9-0.5-1.4-0.5
			c-1.2,0-1.5,0.7-1.5,1.2c0,0.7,0.6,1.2,1.5,1.6c1.5,0.6,2.4,1.2,2.4,2.4c-0.1,1.2-1.2,2.1-2.4,2c0,0,0,0,0,0
			c-0.9,0-1.7-0.3-2.3-0.9C107.2,172.5,107.2,172.4,107.3,172.2C107.3,172.3,107.3,172.2,107.3,172.2z"/>
		<path class="st1" d="M114.8,173.1l3.3-7.4c0-0.1,0.1-0.1,0.2-0.1h0.1c0.1,0,0.2,0,0.2,0.1l3.3,7.4c0,0.1,0,0.2-0.1,0.3
			c0,0-0.1,0-0.1,0h-0.4c-0.1,0-0.2,0-0.2-0.1l-0.8-1.8h-3.9l-0.8,1.8c0,0.1-0.1,0.1-0.2,0.1H115c-0.1,0-0.2,0-0.3-0.1
			C114.7,173.2,114.7,173.2,114.8,173.1z M120,170.8c-0.5-1.2-1.1-2.4-1.6-3.6h-0.1l-1.6,3.6H120z"/>
		<path class="st1" d="M125.3,166c0-0.1,0.1-0.3,0.3-0.3c0,0,0,0,0,0h0.3c0.1,0,0.3,0.1,0.3,0.3v3.1l3.4-3.3
			c0.1-0.1,0.1-0.1,0.2-0.1h0.5c0.1,0,0.2,0.1,0.2,0.2c0,0.1,0,0.1-0.1,0.2l-3.5,3.2l3.6,3.7c0.1,0.1,0,0.2-0.1,0.3c0,0-0.1,0-0.1,0
			h-0.6c-0.1,0-0.1,0-0.2-0.1l-3.5-3.7v3.5c0,0.1-0.1,0.3-0.3,0.3h-0.3c-0.1,0-0.3-0.1-0.3-0.2c0,0,0,0,0,0L125.3,166z"/>
		<path class="st1" d="M133.3,173.1l3.3-7.4c0-0.1,0.1-0.1,0.2-0.1h0.1c0.1,0,0.2,0,0.2,0.1l3.3,7.4c0,0.1,0,0.2-0.1,0.3
			c0,0-0.1,0-0.1,0h-0.4c-0.1,0-0.2,0-0.2-0.1l-0.8-1.8h-3.9l-0.8,1.8c0,0.1-0.1,0.1-0.2,0.1h-0.4c-0.1,0-0.2-0.1-0.2-0.2
			C133.2,173.2,133.2,173.1,133.3,173.1z M138.5,170.8c-0.5-1.2-1.1-2.4-1.6-3.6h-0.1l-1.6,3.6H138.5z"/>
		<path class="st1" d="M143.8,165.9c0-0.1,0.1-0.2,0.2-0.2h0h2.9c1.3,0,2.4,1,2.4,2.3c0,0,0,0,0,0c0,1-0.7,1.9-1.6,2.2l1.5,2.8
			c0.1,0.1,0,0.2-0.1,0.3c0,0-0.1,0-0.1,0h-0.6c-0.1,0-0.1,0-0.2-0.1l-1.5-2.9h-2.1v2.8c0,0.1-0.1,0.2-0.2,0.2H144
			c-0.1,0-0.2-0.1-0.2-0.2v0L143.8,165.9z M146.8,169.7c0.9,0,1.6-0.7,1.6-1.6s-0.7-1.6-1.6-1.6h-2.1v3.2H146.8z"/>
		<path class="st1" d="M154.8,169.7l-2.7-3.7c-0.1-0.1,0-0.2,0-0.3c0,0,0.1,0,0.1,0h0.5c0.1,0,0.1,0,0.2,0.1l2.2,3.1l2.2-3.1
			c0-0.1,0.1-0.1,0.2-0.1h0.5c0.1,0,0.2,0.1,0.2,0.2c0,0.1,0,0.1,0,0.1l-2.7,3.7v3.5c0,0.1-0.1,0.2-0.2,0.2H155
			c-0.1,0-0.2-0.1-0.2-0.2c0,0,0,0,0,0L154.8,169.7z"/>
		<path class="st1" d="M160.1,173.1l3.4-7.4c0-0.1,0.1-0.1,0.2-0.1h0.1c0.1,0,0.2,0,0.2,0.1l3.3,7.4c0,0.1,0,0.2-0.1,0.3
			c0,0-0.1,0-0.1,0h-0.4c-0.1,0-0.2,0-0.2-0.1l-0.8-1.8h-3.9l-0.8,1.8c0,0.1-0.1,0.1-0.2,0.1h-0.4c-0.1,0-0.2-0.1-0.2-0.2
			C160.1,173.2,160.1,173.1,160.1,173.1z M165.3,170.8c-0.5-1.2-1.1-2.4-1.6-3.6h-0.1l-1.6,3.6H165.3z"/>
		<path class="st1" d="M176.1,165.7c0-0.1,0.1-0.1,0.2-0.1h0.2c0.1,0,0.2,0,0.2,0.1l2.2,6.1h0.1l2.1-6.1c0-0.1,0.1-0.1,0.2-0.1h0.2
			c0.1,0,0.2,0.1,0.2,0.1l1.4,7.4c0,0.1,0,0.2-0.1,0.2c0,0-0.1,0-0.1,0h-0.4c-0.1,0-0.2-0.1-0.2-0.1l-1-5.7l0,0l-2,5.8
			c0,0.1-0.1,0.1-0.2,0.1h-0.2c-0.1,0-0.2,0-0.2-0.1l-2.1-5.8l0,0l-1,5.7c0,0.1-0.1,0.1-0.2,0.1H175c-0.1,0-0.2-0.1-0.2-0.2
			c0,0,0-0.1,0-0.1L176.1,165.7z"/>
		<path class="st1" d="M187,165.9c0-0.1,0.1-0.2,0.2-0.2h0.4c0.1,0,0.2,0.1,0.2,0.2v7.3c0,0.1-0.1,0.2-0.2,0.2h-0.4
			c-0.1,0-0.2-0.1-0.2-0.2V165.9z"/>
		<path class="st1" d="M192.3,165.9c0-0.1,0.1-0.2,0.2-0.2h0h0.4c0.1,0,0.2,0.1,0.2,0.2v6.8h3.2c0.1,0,0.2,0.1,0.2,0.2c0,0,0,0,0,0
			v0.3c0,0.1-0.1,0.2-0.2,0.2c0,0,0,0,0,0h-3.8c-0.1,0-0.2-0.1-0.2-0.2v0V165.9z"/>
		<path class="st1" d="M199.9,165.9c0-0.1,0.1-0.2,0.2-0.2h0h0.4c0.1,0,0.2,0.1,0.2,0.2v6.8h3.2c0.1,0,0.2,0.1,0.2,0.2c0,0,0,0,0,0
			v0.3c0,0.1-0.1,0.2-0.2,0.2c0,0,0,0,0,0h-3.8c-0.1,0-0.2-0.1-0.2-0.2v0V165.9z"/>
		<path class="st1" d="M207.5,165.9c0-0.1,0.1-0.2,0.2-0.2h0.4c0.1,0,0.2,0.1,0.2,0.2v7.3c0,0.1-0.1,0.2-0.2,0.2h-0.4
			c-0.1,0-0.2-0.1-0.2-0.2V165.9z"/>
		<path class="st1" d="M212.8,166c0-0.1,0.1-0.3,0.3-0.3c0,0,0,0,0,0h0.3c0.1,0,0.3,0.1,0.3,0.3v3.1l3.4-3.3
			c0.1-0.1,0.1-0.1,0.2-0.1h0.5c0.1,0,0.2,0.1,0.2,0.2c0,0.1,0,0.1-0.1,0.2l-3.5,3.2l3.6,3.7c0.1,0.1,0,0.2-0.1,0.3c0,0-0.1,0-0.1,0
			h-0.6c-0.1,0-0.1,0-0.2-0.1l-3.5-3.7v3.5c0,0.1-0.1,0.3-0.3,0.3H213c-0.1,0-0.3-0.1-0.3-0.2c0,0,0,0,0,0L212.8,166z"/>
		<path class="st1" d="M221.7,165.9c0-0.1,0.1-0.2,0.2-0.2h0.4c0.1,0,0.2,0.1,0.2,0.2v7.3c0,0.1-0.1,0.2-0.2,0.2h-0.4
			c-0.1,0-0.2-0.1-0.2-0.2V165.9z"/>
		<path class="st1" d="M227,165.8c0-0.1,0.1-0.2,0.2-0.2h0.3l5,6.2l0,0v-5.9c0-0.1,0.1-0.2,0.2-0.2c0,0,0,0,0,0h0.4
			c0.1,0,0.2,0.1,0.2,0.2v7.4c0,0.1-0.1,0.2-0.2,0.2h-0.2l-5.1-6.3l0,0v6c0,0.1-0.1,0.2-0.2,0.2h0h-0.4c-0.1,0-0.2-0.1-0.2-0.2
			L227,165.8z"/>
		<path class="st1" d="M182.7,195.9c0-3.2,1.3-4.2,2.6-4.3c0.1,0,0.2,0,0.2,0.1v0.3c0,0.1,0,0.2-0.1,0.2c-1.4,0.3-1.9,1.6-1.9,3.7
			s0.6,3.5,1.9,3.7c0.1,0,0.1,0.1,0.1,0.2c0,0,0,0,0,0v0.3c0,0.1-0.1,0.1-0.2,0.1C184.1,200.2,182.7,199.2,182.7,195.9z"/>
		<path class="st1" d="M188.3,191.9c0-0.1,0.1-0.2,0.2-0.2h0.3c0.1,0,0.2,0.1,0.2,0.2v3.3c0.4-0.2,0.8-0.3,1.2-0.3
			c1.2,0,2.1,0.9,2.1,2.1c0,0.1,0,0.1,0,0.2c0.1,1.2-0.8,2.2-2,2.3c-0.5,0-1-0.2-1.4-0.6l-0.1,0.3c0,0.1-0.1,0.2-0.2,0.2h-0.2
			c-0.1,0-0.2-0.1-0.2-0.2V191.9z M190.3,198.8c0.8-0.1,1.4-0.8,1.3-1.6c0,0,0,0,0,0c0.1-0.8-0.5-1.5-1.2-1.6c-0.1,0-0.1,0-0.2,0
			c-0.4,0-0.7,0.1-1.1,0.3v2.2C189.3,198.5,189.8,198.8,190.3,198.8L190.3,198.8z"/>
		<path class="st1" d="M195.7,198.3c0.3,0,0.6,0.3,0.6,0.6c0,0,0,0,0,0c0,0.3-0.2,0.7-0.5,0.7c-0.3,0-0.7-0.2-0.7-0.5
			c0-0.1,0-0.1,0-0.2C195.1,198.5,195.4,198.3,195.7,198.3z"/>
		<path class="st1" d="M204.3,193.3l-0.8,0.6c-0.1,0.1-0.2,0.1-0.2,0c0,0,0,0,0,0l-0.2-0.2c-0.1-0.1-0.1-0.2,0-0.2l1.6-1.5h0.3
			c0.1,0,0.2,0.1,0.2,0.2v7.1c0,0.1-0.1,0.2-0.2,0.2h-0.4c-0.1,0-0.2-0.1-0.2-0.2c0,0,0,0,0,0L204.3,193.3z"/>
		<path class="st1" d="M209.5,198.9c0.5-0.2,2.4-1.2,2.8-2.7c-0.5,0.3-1.1,0.5-1.7,0.5c-1.3,0-2.3-1-2.4-2.3c0,0,0-0.1,0-0.1
			c0-1.4,1.1-2.5,2.4-2.5c1.8,0,2.6,1.4,2.6,3.1c0,2.9-2.5,4.3-3.6,4.7c-0.1,0-0.2,0-0.2-0.1c0,0,0,0,0,0l-0.1-0.3
			C209.3,199.1,209.3,199,209.5,198.9z M212.5,195.2c0.2-1.1-0.2-2.8-1.8-2.8c-0.9,0-1.7,0.8-1.6,1.8c0,0.9,0.7,1.7,1.6,1.7
			c0,0,0,0,0,0C211.4,195.9,212,195.6,212.5,195.2L212.5,195.2z"/>
		<path class="st1" d="M217.1,198.9c0.5-0.2,2.4-1.2,2.8-2.7c-0.5,0.3-1.1,0.5-1.7,0.5c-1.3,0-2.3-1-2.4-2.3c0,0,0-0.1,0-0.1
			c0-1.4,1.1-2.5,2.4-2.5c1.8,0,2.6,1.4,2.6,3.1c0,2.9-2.5,4.3-3.6,4.7c-0.1,0-0.2,0-0.2-0.1c0,0,0,0,0,0l-0.1-0.3
			C216.9,199.1,216.9,199,217.1,198.9z M220.1,195.2c0.2-1.1-0.2-2.8-1.8-2.8c-0.9,0-1.7,0.8-1.6,1.8c0,0.9,0.7,1.7,1.6,1.7
			c0,0,0,0,0,0C219.1,195.9,219.7,195.7,220.1,195.2L220.1,195.2z"/>
		<path class="st1" d="M223.9,198.2l0.2-0.2c0.1-0.1,0.2-0.1,0.3,0c0.4,0.5,1,0.8,1.6,0.8c1,0,1.7-0.8,1.7-1.8
			c0-0.9-0.6-1.6-1.5-1.6c-0.1,0-0.2,0-0.2,0h-1.7c-0.2,0-0.4-0.2-0.4-0.4c0,0,0,0,0,0v-2.9c0-0.1,0.1-0.2,0.2-0.2h0h3.3
			c0.1,0,0.2,0.1,0.2,0.2v0v0.3c0,0.1-0.1,0.2-0.2,0.2h0h-2.8v2h1.3c1.7,0,2.5,0.9,2.5,2.3c0,1.4-1.1,2.5-2.5,2.5c0,0-0.1,0-0.1,0
			c-0.8,0-1.6-0.3-2.1-0.9C223.8,198.4,223.8,198.4,223.9,198.2z"/>
		<path class="st1" d="M233,195.9c0-2.1-0.6-3.4-1.9-3.7c-0.1,0-0.1-0.1-0.1-0.2c0,0,0,0,0,0v-0.3c0-0.1,0.1-0.1,0.2-0.1
			c1.2,0.1,2.6,1.1,2.6,4.3s-1.3,4.3-2.6,4.3c-0.1,0-0.2,0-0.2-0.1v-0.3c0-0.1,0-0.2,0.1-0.2c0,0,0,0,0,0
			C232.4,199.4,233,198.1,233,195.9z"/>
		<path class="st1" d="M80.4,235.9c0-0.1,0.1-0.2,0.2-0.2h2.5c2.1,0,3.9,1.7,3.9,3.8c0,2.1-1.7,3.9-3.8,3.9c0,0,0,0,0,0h-2.5
			c-0.1,0-0.2-0.1-0.2-0.2V235.9z M82.9,242.6c1.7,0.1,3.2-1.2,3.3-2.9c0.1-1.7-1.2-3.2-2.9-3.3c-0.1,0-0.2,0-0.4,0h-1.7v6.2H82.9z"
			/>
		<path class="st1" d="M89.7,236.4c0-0.3,0.2-0.5,0.5-0.5s0.5,0.2,0.5,0.5c0,0.3-0.2,0.5-0.5,0.5c0,0,0,0,0,0
			C89.9,237,89.7,236.7,89.7,236.4z M89.8,239.2c0-0.1,0.1-0.2,0.2-0.2h0.3c0.1,0,0.2,0.1,0.2,0.2v4c0,0.1-0.1,0.2-0.2,0.2H90
			c-0.1,0-0.2-0.1-0.2-0.2L89.8,239.2z"/>
		<path class="st1" d="M94.1,241.9c-0.2-0.3-0.3-0.7-0.3-1.1c0-1,0.8-1.9,1.8-1.9c0,0,0.1,0,0.1,0h1.9c0.1,0,0.2,0.1,0.2,0.2l0,0
			v0.2c0,0.1,0,0.2-0.1,0.2l-0.6,0.1c0.3,0.3,0.5,0.8,0.5,1.2c0,1-0.7,1.8-1.7,1.9c0,0-0.1,0-0.1,0c-0.4,0-0.7-0.1-1-0.3
			c0,0-0.5,0.2-0.5,0.7c0,0.3,0.3,0.5,0.6,0.5c0,0,0,0,0.1,0h1.6c0.9,0,1.7,0.4,1.7,1.4c-0.2,1.1-1.2,1.9-2.3,1.8
			c-1.5,0-2.1-0.8-2.1-1.5c0-0.4,0.3-0.8,0.6-1l0,0c-0.5-0.1-0.8-0.6-0.8-1.1C93.4,242.7,93.6,242.2,94.1,241.9z M95.6,246.1
			c0.7,0,1.5-0.4,1.5-1c0-0.1-0.1-0.7-0.8-0.7H95c0,0-0.7,0.2-0.7,0.8S94.9,246.1,95.6,246.1L95.6,246.1z M96.7,240.8
			c0.1-0.6-0.4-1.2-1-1.2c0,0-0.1,0-0.1,0c-0.7,0.1-1.2,0.7-1.1,1.3c0.1,0.6,0.5,1.1,1.1,1.1c0.6,0,1.1-0.5,1.1-1.1
			C96.7,240.9,96.7,240.8,96.7,240.8L96.7,240.8z"/>
		<path class="st1" d="M100.3,236.4c0-0.3,0.2-0.5,0.5-0.5s0.5,0.2,0.5,0.5c0,0.3-0.2,0.5-0.5,0.5c0,0,0,0,0,0
			C100.6,237,100.3,236.7,100.3,236.4z M100.5,239.2c0-0.1,0.1-0.2,0.2-0.2h0.3c0.1,0,0.2,0.1,0.2,0.2v4c0,0.1-0.1,0.2-0.2,0.2h-0.3
			c-0.1,0-0.2-0.1-0.2-0.2L100.5,239.2z"/>
		<path class="st1" d="M104.7,239.7h-0.6c-0.1,0-0.2-0.1-0.2-0.2l0,0v-0.2c0-0.1,0.1-0.2,0.2-0.2h0h0.6v-1.2c0-0.1,0.1-0.2,0.2-0.2
			h0.4c0.1,0,0.2,0.1,0.2,0.2v1.2h1.3c0.1,0,0.2,0.1,0.2,0.2l0,0v0.2c0,0.1-0.1,0.2-0.2,0.2h0h-1.3v2.6c0,0.4,0.1,0.5,0.4,0.5
			c0.3,0,0.6-0.1,0.8-0.2c0.2-0.1,0.2,0,0.3,0.1l0.2,0.3c0.1,0.1,0,0.2-0.1,0.3c-0.4,0.2-0.8,0.3-1.3,0.4c-0.9,0-1-0.5-1-1.2
			L104.7,239.7z"/>
		<path class="st1" d="M111.3,240.6c0.3,0,0.6,0.1,0.9,0.1c0-0.8-0.1-1.2-0.7-1.2c-0.5,0-0.9,0.1-1.3,0.2c-0.1,0-0.2,0-0.2-0.1
			l-0.1-0.3c0-0.1,0-0.2,0.1-0.2c0,0,0,0,0,0c0.5-0.2,1-0.3,1.5-0.3c1.1,0,1.4,0.6,1.4,1.9v2.4c0,0.1-0.1,0.2-0.2,0.2h-0.2
			c-0.1,0-0.2-0.1-0.2-0.2l-0.1-0.3c-0.4,0.4-0.9,0.6-1.4,0.6c-0.7,0-1.3-0.6-1.4-1.3c0,0,0-0.1,0-0.1
			C109.6,241.2,110.2,240.6,111.3,240.6z M111,242.9c0.5,0,0.9-0.2,1.2-0.6v-0.9c-0.3-0.1-0.6-0.2-0.9-0.2c-0.6,0-1.1,0.3-1.1,0.9
			C110.2,242.5,110.6,242.8,111,242.9C111,242.8,111,242.9,111,242.9L111,242.9z"/>
		<path class="st1" d="M116.2,235.9c0-0.1,0.1-0.2,0.2-0.2h0.3c0.1,0,0.2,0.1,0.2,0.2v7.3c0,0.1-0.1,0.2-0.2,0.2h-0.3
			c-0.1,0-0.2-0.1-0.2-0.2V235.9z"/>
		<path class="st1" d="M120.6,242.3c0.4,0,0.7,0.2,0.7,1c0,0.8-0.4,1.5-0.9,2c-0.1,0.1-0.2,0.1-0.3,0l-0.2-0.1
			c-0.1-0.1,0-0.2,0.1-0.3c0.4-0.3,0.7-0.8,0.7-1.4h-0.1c-0.3,0-0.6-0.3-0.6-0.6C120,242.5,120.3,242.3,120.6,242.3z"/>
		<path class="st1" d="M128.8,235.9c0-0.1,0.1-0.2,0.2-0.2h0.4c0.1,0,0.2,0.1,0.2,0.2v0v3.2h4.5v-3.2c0-0.1,0.1-0.2,0.2-0.2h0h0.4
			c0.1,0,0.2,0.1,0.2,0.2v7.3c0,0.1-0.1,0.2-0.2,0.2h-0.4c-0.1,0-0.2-0.1-0.2-0.2v0v-3.3h-4.5v3.3c0,0.1-0.1,0.2-0.2,0.2h0H129
			c-0.1,0-0.2-0.1-0.2-0.2L128.8,235.9z"/>
		<path class="st1" d="M139.7,240.6c0.3,0,0.6,0.1,0.9,0.1c0-0.8-0.1-1.2-0.7-1.2c-0.5,0-0.9,0.1-1.3,0.2c-0.1,0-0.2,0-0.2-0.1
			l-0.1-0.3c-0.1-0.1,0-0.2,0.1-0.2c0.5-0.2,1-0.3,1.5-0.3c1.1,0,1.4,0.6,1.4,1.9v2.4c0,0.1-0.1,0.2-0.2,0.2H141
			c-0.1,0-0.2-0.1-0.2-0.2l-0.1-0.3c-0.4,0.4-0.8,0.6-1.4,0.6c-0.7,0-1.4-0.6-1.4-1.3c0,0,0-0.1,0-0.1
			C138,241.2,138.6,240.6,139.7,240.6z M139.4,242.9c0.5,0,0.9-0.2,1.2-0.6v-0.9c-0.3-0.1-0.6-0.2-0.9-0.2c-0.6,0-1.1,0.3-1.1,0.9
			C138.6,242.5,139,242.8,139.4,242.9C139.4,242.9,139.4,242.9,139.4,242.9z"/>
		<path class="st1" d="M144.6,239.2c0-0.1,0.1-0.2,0.2-0.2h0.2c0.1,0,0.2,0.1,0.2,0.1l0.1,0.3c0.3-0.4,0.8-0.6,1.3-0.6
			c0.3,0,0.9,0.1,0.8,0.4l-0.1,0.4c0,0.1-0.1,0.1-0.3,0.1c-0.1-0.1-0.3-0.1-0.4-0.1c-0.5,0-0.9,0.2-1.2,0.6v2.9
			c0,0.1-0.1,0.2-0.2,0.2h-0.3c-0.1,0-0.2-0.1-0.2-0.2L144.6,239.2z"/>
		<path class="st1" d="M151.7,238.9c0.4,0,0.8,0.1,1.2,0.3v-3.3c0-0.1,0.1-0.2,0.2-0.2h0.3c0.1,0,0.2,0.1,0.2,0.2v7.3
			c0,0.1-0.1,0.2-0.2,0.2h-0.2c-0.1,0-0.2-0.1-0.2-0.2l-0.1-0.3c-0.4,0.4-0.8,0.6-1.4,0.6c-1.2-0.1-2.1-1.1-2-2.3
			c-0.1-1.2,0.8-2.2,1.9-2.3C151.5,238.9,151.6,238.9,151.7,238.9z M151.7,242.8c0.5,0,0.9-0.3,1.2-0.7v-2.2
			c-0.3-0.2-0.7-0.3-1.1-0.3c-0.8,0-1.4,0.6-1.4,1.4c0,0.1,0,0.1,0,0.2C150.3,242,150.8,242.7,151.7,242.8
			C151.6,242.8,151.6,242.8,151.7,242.8L151.7,242.8z"/>
		<path class="st1" d="M157,240.8v-0.2c0-0.1,0.1-0.2,0.2-0.2h0h2.3c0.1,0,0.2,0.1,0.2,0.2v0v0.2c0,0.1-0.1,0.2-0.2,0.2c0,0,0,0,0,0
			h-2.3C157.1,241,157,240.9,157,240.8C157,240.8,157,240.8,157,240.8z"/>
		<path class="st1" d="M163.1,235.9c0-0.1,0.1-0.2,0.2-0.2h0h2.9c1.3,0,2.4,1,2.4,2.3c0,0,0,0,0,0c0,1-0.7,1.9-1.6,2.2l1.5,2.8
			c0.1,0.1,0,0.2-0.1,0.3c0,0-0.1,0-0.1,0h-0.6c-0.1,0-0.1,0-0.2-0.1l-1.5-2.9H164v2.8c0,0.1-0.1,0.2-0.2,0.2h-0.4
			c-0.1,0-0.2-0.1-0.2-0.2v0V235.9z M166.1,239.7c0.9,0,1.6-0.7,1.6-1.6s-0.7-1.6-1.6-1.6H164v3.2H166.1z"/>
		<path class="st1" d="M173.3,238.9c1.3-0.1,2.4,0.9,2.4,2.2c0.1,1.3-0.9,2.4-2.2,2.4c-1.3,0.1-2.4-0.9-2.4-2.2c0,0,0-0.1,0-0.1
			C171,240,172,238.9,173.3,238.9z M173.3,242.8c0.8,0,1.5-0.8,1.4-1.6c0,0,0,0,0,0c0.1-0.8-0.5-1.5-1.3-1.6s-1.5,0.5-1.6,1.3
			c0,0.1,0,0.2,0,0.3C171.8,242,172.4,242.7,173.3,242.8C173.3,242.8,173.3,242.8,173.3,242.8z"/>
		<path class="st1" d="M178.3,239.2c0-0.1,0.1-0.2,0.2-0.2h0.4c0.1,0,0.2,0.1,0.2,0.2v2.3c0,0.8,0.4,1.2,1,1.2c0.5,0,1-0.2,1.3-0.6
			v-2.9c0-0.1,0.1-0.2,0.2-0.2h0.3c0.1,0,0.2,0.1,0.2,0.2v4c0,0.1-0.1,0.2-0.2,0.2h-0.2c-0.1,0-0.2-0.1-0.2-0.2l-0.1-0.3
			c-0.4,0.4-0.9,0.6-1.4,0.6c-1.3,0-1.7-0.8-1.7-2L178.3,239.2z"/>
		<path class="st1" d="M185.3,239.2c0-0.1,0.1-0.2,0.2-0.2h0.2c0.1,0,0.2,0,0.2,0.1c0,0,0,0,0,0l0.1,0.3c0.4-0.4,1-0.6,1.5-0.6
			c1.3,0,1.7,0.8,1.7,2v2.3c0,0.1-0.1,0.2-0.2,0.2h-0.4c-0.1,0-0.2-0.1-0.2-0.2v-2.3c0-0.8-0.4-1.2-1-1.2c-0.5,0-1,0.2-1.4,0.6v2.9
			c0,0.1-0.1,0.2-0.2,0.2h-0.3c-0.1,0-0.2-0.1-0.2-0.2L185.3,239.2z"/>
		<path class="st1" d="M194.2,238.9c0.4,0,0.8,0.1,1.2,0.3v-3.3c0-0.1,0.1-0.2,0.2-0.2h0.3c0.1,0,0.2,0.1,0.2,0.2v7.3
			c0,0.1-0.1,0.2-0.2,0.2h-0.2c-0.1,0-0.2-0.1-0.2-0.2l-0.1-0.3c-0.4,0.4-0.8,0.6-1.4,0.6c-1.2-0.1-2.1-1.1-2-2.3
			c-0.1-1.2,0.8-2.2,1.9-2.3C194.1,238.9,194.2,238.9,194.2,238.9z M194.2,242.8c0.5,0,0.9-0.3,1.2-0.7v-2.2
			c-0.3-0.2-0.7-0.3-1.1-0.3c-0.8,0-1.4,0.6-1.5,1.4c0,0.1,0,0.1,0,0.2C192.8,242,193.4,242.7,194.2,242.8L194.2,242.8z"/>
		<path class="st1" d="M203.8,235.9c0-0.1,0.1-0.2,0.2-0.2h0h2.4c1.1-0.2,2.1,0.6,2.3,1.7c0.1,0.9-0.3,1.7-1.1,2.1
			c0.8,0.3,1.3,1,1.3,1.8c0,1.2-1,2.2-2.2,2.1c-0.1,0-0.1,0-0.2,0H204c-0.1,0-0.2-0.1-0.2-0.2v0L203.8,235.9z M206.6,242.7
			c0.7,0,1.4-0.6,1.4-1.3c0,0,0-0.1,0-0.1c-0.1-0.8-0.7-1.4-1.6-1.4c0,0,0,0,0,0h-1.8v2.8H206.6z M206.4,239.2
			c0.7,0,1.3-0.5,1.3-1.2c0-0.1,0-0.1,0-0.2c0.1-0.7-0.4-1.3-1.1-1.3c-0.1,0-0.1,0-0.2,0h-1.8v2.7H206.4z"/>
		<path class="st1" d="M211.9,239.2c0-0.1,0.1-0.2,0.2-0.2h0.2c0.1,0,0.2,0.1,0.2,0.1l0.1,0.3c0.3-0.4,0.8-0.6,1.3-0.6
			c0.3,0,0.9,0.1,0.8,0.4l-0.1,0.4c-0.1,0.1-0.1,0.1-0.3,0.1c-0.1-0.1-0.3-0.1-0.4-0.1c-0.5,0-0.9,0.2-1.2,0.6v2.9
			c0,0.1-0.1,0.2-0.2,0.2h-0.3c-0.1,0-0.2-0.1-0.2-0.2L211.9,239.2z"/>
		<path class="st1" d="M217.1,239.2c0-0.1,0.1-0.2,0.2-0.2h0.4c0.1,0,0.2,0.1,0.2,0.2v2.3c0,0.8,0.4,1.2,1,1.2c0.5,0,1-0.2,1.3-0.6
			v-2.9c0-0.1,0.1-0.2,0.2-0.2h0.3c0.1,0,0.2,0.1,0.2,0.2v4c0,0.1-0.1,0.2-0.2,0.2h-0.2c-0.1,0-0.2-0.1-0.2-0.2l-0.1-0.3
			c-0.4,0.4-0.9,0.6-1.4,0.6c-1.3,0-1.7-0.8-1.7-2L217.1,239.2z"/>
		<path class="st1" d="M223.9,242.8c0-0.1,0.1-0.2,0.1-0.3c0.1-0.1,0.2-0.1,0.3,0c0,0,0,0,0,0c0.3,0.2,0.6,0.4,1,0.4
			c0.4,0,0.7-0.2,0.7-0.5s-0.3-0.6-1-0.9s-1.3-0.7-1.3-1.4c0-0.7,0.6-1.2,1.3-1.1c0,0,0,0,0.1,0c0.4,0,0.9,0.1,1.2,0.3
			c0.1,0.1,0.1,0.2,0.1,0.3l-0.1,0.2c-0.1,0.1-0.2,0.2-0.3,0.1c-0.3-0.2-0.6-0.2-0.9-0.3c-0.5,0-0.6,0.3-0.6,0.4
			c0,0.4,0.4,0.5,0.8,0.8c0.8,0.4,1.4,0.7,1.4,1.5c-0.1,0.8-0.8,1.3-1.5,1.2c-0.5,0-0.9-0.2-1.3-0.5
			C223.9,243,223.9,242.9,223.9,242.8z"/>
		<path class="st1" d="M229.7,235.9c0-0.1,0.1-0.2,0.2-0.2h0.4c0.1,0,0.2,0.1,0.2,0.2v3.6c0.4-0.4,0.9-0.6,1.5-0.6
			c1.1,0,1.7,0.7,1.7,2v2.3c0,0.1-0.1,0.2-0.2,0.2h-0.4c-0.1,0-0.2-0.1-0.2-0.2v-2.3c0-0.8-0.4-1.2-1-1.2c-0.5,0-1,0.2-1.4,0.6v2.9
			c0,0.1-0.1,0.2-0.2,0.2h-0.4c-0.1,0-0.2-0.1-0.2-0.2L229.7,235.9z"/>
		<path class="st1" d="M51,265.9c0-3.2,1.3-4.2,2.6-4.3c0.1,0,0.2,0,0.2,0.1v0.3c0,0.1,0,0.2-0.1,0.2c0,0,0,0,0,0
			c-1.4,0.3-1.9,1.6-1.9,3.7s0.5,3.5,1.9,3.7c0.1,0,0.1,0.1,0.1,0.2c0,0,0,0,0,0v0.3c0,0.1-0.1,0.1-0.2,0.1
			C52.3,270.2,51,269.2,51,265.9z"/>
		<path class="st1" d="M55.8,267.5v-0.4l4.2-5.2c0,0,0.1-0.1,0.2-0.1h0.2c0.1,0,0.2,0.1,0.2,0.2v5h0.9c0.1,0,0.2,0.1,0.2,0.2
			c0,0,0,0,0,0v0.2c0,0.1-0.1,0.2-0.2,0.2c0,0,0,0,0,0h-0.9v1.5c0,0.1-0.1,0.2-0.2,0.2H60c-0.1,0-0.2-0.1-0.2-0.2v-1.5H56
			C55.9,267.7,55.9,267.6,55.8,267.5z M59.8,267v-3.8l-3.1,3.8L59.8,267z"/>
		<path class="st1" d="M64.6,265.7c0-2.4,1-3.9,2.7-3.9s2.7,1.4,2.7,3.9s-1,3.9-2.7,3.9S64.6,268.1,64.6,265.7z M69.1,265.7
			c0-2-0.7-3.1-1.9-3.1s-1.9,1.1-1.9,3.1s0.7,3.1,1.9,3.1S69.1,267.7,69.1,265.7z"/>
		<path class="st1" d="M73.9,272.5c0,0.1-0.1,0.2-0.2,0.2h-0.3c-0.1,0-0.2-0.1-0.2-0.2v-7.3c0-0.1,0.1-0.2,0.2-0.2h0.2
			c0.1,0,0.1,0,0.2,0.1l0.1,0.2c0.4-0.3,0.8-0.5,1.3-0.5c1.3,0.1,2.2,1.2,2.1,2.5c-0.1,1.1-1,2-2.1,2.1c-0.4,0-0.8-0.1-1.2-0.4
			L73.9,272.5z M75,268.8c0.9-0.1,1.5-0.9,1.4-1.8c-0.1-0.7-0.6-1.3-1.4-1.4c-0.4,0-0.8,0.2-1.1,0.5v2.3
			C74.2,268.6,74.6,268.8,75,268.8z"/>
		<path class="st1" d="M81.1,267.2l-1.4-1.9c-0.1-0.1,0-0.3,0.1-0.3h0.5c0.1,0,0.1,0,0.2,0.1l1,1.5l0,0l1.1-1.5
			c0-0.1,0.1-0.1,0.2-0.1h0.5c0.2,0,0.2,0.1,0.1,0.3l-1.4,1.9l1.4,2c0.1,0.1,0,0.3-0.1,0.3h-0.4c-0.1,0-0.1,0-0.2-0.1l-1.2-1.6l0,0
			l-1.2,1.6c0,0.1-0.1,0.1-0.2,0.1h-0.4c-0.2,0-0.2-0.1-0.1-0.3L81.1,267.2z"/>
		<path class="st1" d="M87.9,265.9c0-2.1-0.6-3.5-1.9-3.7c-0.1,0-0.1-0.1-0.1-0.2c0,0,0,0,0,0v-0.3c0-0.1,0.1-0.1,0.2-0.1
			c1.2,0.1,2.6,1.1,2.6,4.3s-1.3,4.3-2.6,4.3c-0.1,0-0.2,0-0.2-0.1v-0.3c0-0.1,0-0.2,0.1-0.2c0,0,0,0,0,0
			C87.3,269.4,87.9,268.1,87.9,265.9z"/>
		<path class="st1" d="M92.2,268.3c0.3,0,0.7,0.2,0.7,1c0,0.8-0.4,1.5-0.9,2c-0.1,0.1-0.2,0.1-0.3,0l-0.2-0.1
			c-0.1-0.1,0-0.2,0.1-0.3c0.4-0.3,0.7-0.8,0.7-1.4h-0.1c-0.3,0-0.6-0.3-0.6-0.6C91.6,268.5,91.9,268.3,92.2,268.3z"/>
		<path class="st1" d="M99.8,268.3l0.3-0.3c0.1-0.1,0.2-0.1,0.3,0c0,0,0,0,0,0c0.4,0.5,1,0.7,1.6,0.8c0.8,0.1,1.5-0.5,1.6-1.3
			c0,0,0,0,0-0.1c0-0.8-0.6-1.4-1.9-1.4H101c-0.1,0-0.2-0.1-0.2-0.2v-0.3c0-0.2,0-0.2,0.2-0.2h0.6c1.2,0,1.8-0.6,1.8-1.3
			c0-0.8-0.6-1.4-1.3-1.4c0,0-0.1,0-0.1,0c-0.6,0-1.1,0.3-1.4,0.7c-0.1,0.1-0.2,0.1-0.3,0c0,0,0,0,0,0l-0.3-0.2
			c-0.1-0.1-0.1-0.2,0-0.3c0,0,0,0,0,0c0.5-0.6,1.2-1,2-1c1.1-0.1,2.1,0.7,2.2,1.8c0.1,0.8-0.3,1.6-1,1.9l0,0c0.7,0.3,1.3,1,1.3,1.8
			c0,1.2-1,2.2-2.3,2.1c-0.1,0-0.1,0-0.2,0c-0.9,0-1.7-0.3-2.2-1C99.7,268.4,99.7,268.3,99.8,268.3z"/>
		<path class="st1" d="M107.6,265.7c0-2.4,1-3.9,2.7-3.9s2.7,1.4,2.7,3.9s-1,3.9-2.7,3.9S107.6,268.1,107.6,265.7z M112.1,265.7
			c0-2-0.7-3.1-1.9-3.1s-1.9,1.1-1.9,3.1s0.7,3.1,1.9,3.1S112.1,267.7,112.1,265.7z"/>
		<path class="st1" d="M115.7,263.1c0-0.8,0.7-1.5,1.5-1.5c0.8,0,1.5,0.7,1.5,1.5c0,0.8-0.7,1.5-1.5,1.5c0,0,0,0,0,0
			C116.4,264.6,115.7,263.9,115.7,263.1C115.7,263.1,115.7,263.1,115.7,263.1z M118.1,263.1c0-0.5-0.4-0.8-0.8-0.8
			c-0.5,0-0.9,0.4-0.9,0.8c0,0.5,0.4,0.9,0.8,0.9S118.1,263.6,118.1,263.1C118.1,263.1,118.1,263.1,118.1,263.1z M120.5,261.8
			c0-0.1,0.1-0.1,0.2-0.1h0.2c0.1,0,0.2,0.1,0.2,0.2c0,0,0,0.1,0,0.1l-3.8,7.3c0,0.1-0.1,0.1-0.2,0.1H117c-0.1,0-0.2-0.1-0.2-0.2
			c0,0,0-0.1,0-0.1L120.5,261.8z M120.7,266.5c0.8,0,1.5,0.7,1.5,1.5c0,0.8-0.7,1.5-1.5,1.5c-0.8,0-1.5-0.7-1.5-1.5l0,0
			C119.2,267.2,119.9,266.5,120.7,266.5z M120.7,268.9c0.5,0,0.8-0.4,0.8-0.9c0-0.5-0.4-0.8-0.9-0.8c-0.5,0-0.8,0.4-0.8,0.8
			C119.8,268.5,120.2,268.9,120.7,268.9C120.7,268.9,120.7,268.9,120.7,268.9L120.7,268.9z"/>
		<path class="st1" d="M129.3,265.2c0-0.1,0.1-0.2,0.2-0.2h0.2c0.1,0,0.2,0,0.2,0.1l0.1,0.3c0.4-0.4,0.9-0.6,1.4-0.6
			c0.6,0,1.1,0.2,1.4,0.7c0.5-0.4,1-0.7,1.6-0.7c1.3,0,1.7,0.8,1.7,2v2.3c0,0.1-0.1,0.2-0.2,0.2h-0.4c-0.1,0-0.2-0.1-0.2-0.2v-2.3
			c0-0.8-0.4-1.2-1-1.2c-0.5,0-1,0.2-1.3,0.6c0,0.2,0.1,0.4,0.1,0.6v2.3c0,0.1-0.1,0.2-0.2,0.2h-0.4c-0.1,0-0.2-0.1-0.2-0.2v-2.3
			c0-0.8-0.4-1.2-1.1-1.2c-0.5,0-0.9,0.2-1.2,0.6v2.9c0,0.1-0.1,0.2-0.2,0.2h-0.3c-0.1,0-0.2-0.1-0.2-0.2L129.3,265.2z"/>
		<path class="st1" d="M139.2,262.5c-0.1-0.3,0-0.6,0.3-0.7s0.6,0,0.7,0.3c0,0.1,0,0.2,0,0.4c-0.1,0.3-0.4,0.4-0.7,0.3
			C139.4,262.7,139.2,262.6,139.2,262.5z M139.3,265.2c0-0.1,0.1-0.2,0.2-0.2h0.3c0.1,0,0.2,0.1,0.2,0.2v4c0,0.1-0.1,0.2-0.2,0.2
			h-0.3c-0.1,0-0.2-0.1-0.2-0.2V265.2z"/>
		<path class="st1" d="M143.3,265.2c0-0.1,0.1-0.2,0.2-0.2h0.2c0.1,0,0.2,0,0.2,0.1c0,0,0,0,0,0l0.1,0.3c0.4-0.4,1-0.6,1.5-0.6
			c1.3,0,1.7,0.8,1.7,2v2.3c0,0.1-0.1,0.2-0.2,0.2h-0.4c-0.1,0-0.2-0.1-0.2-0.2v-2.3c0-0.8-0.4-1.2-1-1.2c-0.5,0-1,0.2-1.4,0.6v2.9
			c0,0.1-0.1,0.2-0.2,0.2h-0.3c-0.1,0-0.2-0.1-0.2-0.2L143.3,265.2z"/>
		<path class="st1" d="M150.2,262.5c0-0.3,0.2-0.5,0.5-0.5c0.3,0,0.5,0.2,0.5,0.5c0,0.3-0.2,0.5-0.5,0.5c0,0,0,0,0,0
			C150.5,263,150.3,262.7,150.2,262.5z M150.4,265.2c0-0.1,0.1-0.2,0.2-0.2h0.4c0.1,0,0.2,0.1,0.2,0.2v4c0,0.1-0.1,0.2-0.2,0.2h-0.3
			c-0.1,0-0.2-0.1-0.2-0.2L150.4,265.2z"/>
		<path class="st1" d="M154.4,265.2c0-0.1,0.1-0.2,0.2-0.2h0.2c0.1,0,0.2,0,0.2,0.1l0.1,0.3c0.4-0.4,0.9-0.6,1.4-0.6
			c0.6,0,1.1,0.2,1.4,0.7c0.5-0.4,1-0.7,1.6-0.7c1.3,0,1.7,0.8,1.7,2v2.3c0,0.1-0.1,0.2-0.2,0.2h-0.4c-0.1,0-0.2-0.1-0.2-0.2v-2.3
			c0-0.8-0.4-1.2-1-1.2c-0.5,0-1,0.2-1.3,0.6c0,0.2,0,0.4,0,0.6v2.3c0,0.1-0.1,0.2-0.2,0.2h-0.4c-0.1,0-0.2-0.1-0.2-0.2v-2.3
			c0-0.8-0.4-1.2-1-1.2c-0.5,0-0.9,0.2-1.2,0.6v2.9c0,0.1-0.1,0.2-0.2,0.2h-0.4c-0.1,0-0.2-0.1-0.2-0.2L154.4,265.2z"/>
		<path class="st1" d="M164.4,265.2c0-0.1,0.1-0.2,0.2-0.2h0.4c0.1,0,0.2,0.1,0.2,0.2v2.3c0,0.8,0.4,1.2,1,1.2c0.5,0,1-0.2,1.3-0.6
			v-2.9c0-0.1,0.1-0.2,0.2-0.2h0.4c0.1,0,0.2,0.1,0.2,0.2v4c0,0.1-0.1,0.2-0.2,0.2h-0.2c-0.1,0-0.2-0.1-0.2-0.2l-0.1-0.3
			c-0.4,0.4-0.9,0.6-1.4,0.6c-1.3,0-1.7-0.8-1.7-2L164.4,265.2z"/>
		<path class="st1" d="M171.4,265.2c0-0.1,0.1-0.2,0.2-0.2h0.2c0.1,0,0.2,0,0.2,0.1l0.1,0.3c0.4-0.4,0.9-0.6,1.4-0.6
			c0.6,0,1.1,0.2,1.4,0.7c0.5-0.4,1-0.7,1.6-0.7c1.3,0,1.7,0.8,1.7,2v2.3c0,0.1-0.1,0.2-0.2,0.2h-0.4c-0.1,0-0.2-0.1-0.2-0.2v-2.3
			c0-0.8-0.4-1.2-1-1.2c-0.5,0-1,0.2-1.3,0.6c0,0.2,0,0.4,0.1,0.6v2.3c0,0.1-0.1,0.2-0.2,0.2h-0.4c-0.1,0-0.2-0.1-0.2-0.2v-2.3
			c0-0.8-0.4-1.2-1-1.2c-0.5,0-0.9,0.2-1.3,0.6v2.9c0,0.1-0.1,0.2-0.2,0.2h-0.3c-0.1,0-0.2-0.1-0.2-0.2L171.4,265.2z"/>
		<path class="st1" d="M187.3,264.9c0.4,0,0.8,0.1,1.2,0.3v-3.3c0-0.1,0.1-0.2,0.2-0.2h0.3c0.1,0,0.2,0.1,0.2,0.2v7.3
			c0,0.1-0.1,0.2-0.2,0.2h-0.2c-0.1,0-0.2-0.1-0.2-0.2l-0.1-0.3c-0.4,0.4-0.8,0.6-1.4,0.6c-1.2-0.1-2.1-1.1-2-2.3
			c-0.1-1.2,0.8-2.2,1.9-2.3C187.2,264.9,187.2,264.9,187.3,264.9z M187.3,268.8c0.5,0,0.9-0.3,1.2-0.7v-2.2
			c-0.3-0.2-0.7-0.3-1.1-0.3c-0.8,0-1.4,0.6-1.4,1.4c0,0.1,0,0.1,0,0.2C185.9,268,186.5,268.7,187.3,268.8
			C187.3,268.8,187.3,268.8,187.3,268.8L187.3,268.8z"/>
		<path class="st1" d="M192.3,262.5c0-0.3,0.2-0.6,0.5-0.6c0.3,0,0.6,0.2,0.6,0.5c0,0,0,0.1,0,0.1c0,0.3-0.3,0.5-0.6,0.5
			C192.5,262.9,192.3,262.7,192.3,262.5z M192.5,265.2c0-0.1,0.1-0.2,0.2-0.2h0.3c0.1,0,0.2,0.1,0.2,0.2v4c0,0.1-0.1,0.2-0.2,0.2
			h-0.3c-0.1,0-0.2-0.1-0.2-0.2L192.5,265.2z"/>
		<path class="st1" d="M197.9,266.6c0.3,0,0.6,0.1,0.9,0.1c0-0.8-0.1-1.2-0.7-1.2c-0.5,0-0.9,0.1-1.3,0.2c-0.1,0-0.2,0-0.2-0.1
			l-0.1-0.3c0-0.1,0-0.2,0.1-0.2c0,0,0,0,0,0c0.5-0.2,1-0.3,1.5-0.3c1.1,0,1.4,0.6,1.4,1.9v2.4c0,0.1-0.1,0.2-0.2,0.2h-0.2
			c-0.1,0-0.1-0.1-0.2-0.2l-0.1-0.3c-0.4,0.4-0.9,0.6-1.4,0.6c-0.7,0-1.3-0.6-1.4-1.3c0,0,0-0.1,0-0.1
			C196.1,267.2,196.8,266.6,197.9,266.6z M197.6,268.8c0.5,0,0.9-0.2,1.2-0.6v-0.9c-0.3-0.1-0.6-0.2-0.9-0.2c-0.6,0-1.1,0.3-1.1,0.9
			C196.8,268.5,197.1,268.8,197.6,268.8C197.5,268.9,197.6,268.9,197.6,268.8L197.6,268.8z"/>
		<path class="st1" d="M202.7,265.2c0-0.1,0.1-0.2,0.2-0.2h0.2c0.1,0,0.2,0,0.2,0.1c0,0,0,0,0,0l0.1,0.3c0.4-0.4,0.9-0.6,1.4-0.6
			c0.6,0,1.1,0.2,1.4,0.7c0.5-0.4,1-0.7,1.6-0.7c1.3,0,1.7,0.8,1.7,2v2.3c0,0.1-0.1,0.2-0.2,0.2H209c-0.1,0-0.2-0.1-0.2-0.2v-2.3
			c0-0.8-0.4-1.2-1-1.2c-0.5,0-1,0.2-1.3,0.6c0,0.2,0.1,0.4,0.1,0.6v2.3c0,0.1-0.1,0.2-0.2,0.2H206c-0.1,0-0.2-0.1-0.2-0.2v-2.3
			c0-0.8-0.4-1.2-1.1-1.2c-0.5,0-0.9,0.2-1.2,0.6v2.9c0,0.1-0.1,0.2-0.2,0.2h-0.3c-0.1,0-0.2-0.1-0.2-0.2L202.7,265.2z"/>
		<path class="st1" d="M214.6,264.9c1.1,0,2,0.8,2,1.9c0,0,0,0.1,0,0.1c0,0.1,0,0.2,0,0.3c0,0.1-0.1,0.2-0.2,0.2h-3.2
			c0.1,0.8,0.7,1.4,1.5,1.4c0.4,0,0.8-0.1,1.1-0.3c0.2-0.1,0.2-0.1,0.3,0l0.2,0.3c0.1,0.1,0.1,0.2,0,0.3c-0.5,0.3-1,0.5-1.6,0.5
			c-1.3-0.1-2.2-1.2-2.1-2.5C212.7,265.9,213.5,265,214.6,264.9L214.6,264.9z M215.8,266.8c0-0.7-0.6-1.2-1.2-1.2
			c-0.7,0-1.3,0.5-1.4,1.2H215.8z"/>
		<path class="st1" d="M219.7,265.7h-0.6c-0.1,0-0.2-0.1-0.2-0.2v-0.2c0-0.1,0.1-0.2,0.2-0.2h0.6v-1.2c0-0.1,0.1-0.2,0.2-0.2h0.4
			c0.1,0,0.2,0.1,0.2,0.2c0,0,0,0,0,0v1.2h1.3c0.1,0,0.2,0.1,0.2,0.2v0.2c0,0.1-0.1,0.2-0.2,0.2h-1.3v2.6c0,0.4,0.1,0.5,0.4,0.5
			c0.3,0,0.6-0.1,0.8-0.2c0.2-0.1,0.2,0,0.3,0.1l0.2,0.3c0.1,0.1,0,0.2-0.1,0.3c-0.4,0.2-0.8,0.3-1.3,0.4c-0.9,0-1-0.5-1-1.2
			L219.7,265.7z"/>
		<path class="st1" d="M226.7,264.9c1.1,0,2,0.8,2,1.9c0,0,0,0.1,0,0.1c0,0.1,0,0.2,0,0.3c0,0.1-0.1,0.2-0.2,0.2h-3.2
			c0.1,0.8,0.7,1.4,1.5,1.4c0.4,0,0.8-0.1,1.1-0.3c0.2-0.1,0.2-0.1,0.3,0l0.2,0.3c0.1,0.1,0.1,0.2-0.1,0.3c-0.5,0.3-1,0.5-1.6,0.5
			c-1.3-0.1-2.2-1.2-2.1-2.5C224.7,265.9,225.6,265,226.7,264.9L226.7,264.9z M227.9,266.8c0-0.7-0.6-1.2-1.2-1.2
			c-0.7,0-1.3,0.5-1.4,1.2H227.9z"/>
		<path class="st1" d="M231.5,265.2c0-0.1,0.1-0.2,0.2-0.2h0.2c0.1,0,0.2,0.1,0.2,0.1l0.1,0.3c0.3-0.4,0.8-0.6,1.3-0.6
			c0.3,0,0.9,0,0.8,0.4l-0.1,0.4c-0.1,0.1-0.2,0.1-0.3,0.1c-0.1-0.1-0.3-0.1-0.4-0.1c-0.5,0-0.9,0.2-1.2,0.6v2.9
			c0,0.1-0.1,0.2-0.2,0.2h-0.3c-0.1,0-0.2-0.1-0.2-0.2V265.2z"/>
		<path class="st1" d="M12.4,53.9c0.1-1.8,1.1-3.4,2.6-4.2c0.2-0.1,0.3-0.1,0.4,0l0.1,0.2c0.1,0.2,0.1,0.3-0.1,0.4
			c-1.3,0.7-2.1,2-2.2,3.5c0,0.8,0.1,1.7,0.6,2.4c0.2-0.3,0.5-0.4,0.8-0.4c0.6,0,1,0.4,1,1c0,0.5-0.4,0.9-1,0.9c0,0,0,0,0,0
			C13.7,57.7,12.4,56.7,12.4,53.9z M19.9,53.9c0.1-1.8,1.1-3.3,2.6-4.2c0.2-0.1,0.3-0.1,0.4,0L23,50c0.1,0.2,0.1,0.3-0.1,0.4
			c-1.3,0.7-2.1,2-2.2,3.5c0,0.8,0.1,1.7,0.5,2.4c0.2-0.3,0.5-0.4,0.8-0.4c0.6,0,1,0.4,1,1c0,0.5-0.4,0.9-1,0.9c0,0,0,0,0,0
			C21.1,57.7,19.9,56.7,19.9,53.9z"/>
		<path class="st1" d="M238,107.3c-0.1-0.2-0.1-0.3,0.1-0.4c1.3-0.7,2.1-2,2.2-3.5c0-0.8-0.1-1.7-0.5-2.4c-0.2,0.2-0.5,0.4-0.9,0.4
			c-0.6,0-1-0.4-1-1c0-0.5,0.4-0.9,0.9-0.9c0,0,0,0,0.1,0c0.9,0,2.2,1.1,2.2,3.9c-0.1,1.8-1.1,3.3-2.6,4.2c-0.2,0.1-0.3,0.1-0.4,0
			L238,107.3z M245.5,107.3c-0.1-0.2-0.1-0.3,0.1-0.4c1.3-0.7,2.1-2,2.2-3.5c0-0.8-0.1-1.7-0.6-2.4c-0.2,0.2-0.5,0.4-0.8,0.4
			c-0.6,0-1-0.4-1-1c0-0.5,0.4-0.9,0.9-0.9c0,0,0,0,0.1,0c0.9,0,2.2,1.1,2.2,3.9c0,1.8-1,3.4-2.6,4.2c-0.2,0.1-0.3,0.1-0.4,0
			L245.5,107.3z"/>
	</g>
</g>
</svg>
