<svg xmlns="http://www.w3.org/2000/svg" viewBox="0 0 177.1 34.67"><defs><style>.cls-1{fill:#fbae5c;}</style></defs><g id="Layer_2" data-name="Layer 2"><g id="Stroke"><path class="cls-1" d="M0,7.52,3.37.12A.18.18,0,0,1,3.55,0h.11a.19.19,0,0,1,.19.12l3.32,7.4A.19.19,0,0,1,7,7.81H6.55a.2.2,0,0,1-.19-.12L5.54,5.87H1.64L.84,7.69a.21.21,0,0,1-.19.12H.21A.2.2,0,0,1,0,7.52ZM5.25,5.19C4.71,4,4.18,2.78,3.64,1.58H3.55L2,5.19Z"/><path class="cls-1" d="M10.57.32a.22.22,0,0,1,.21-.21h.44a.22.22,0,0,1,.21.21V7.6a.22.22,0,0,1-.21.21h-.44a.22.22,0,0,1-.21-.21Z"/><path class="cls-1" d="M15.87.32a.21.21,0,0,1,.2-.21h2.47a3.85,3.85,0,1,1,0,7.7H16.07a.21.21,0,0,1-.2-.21Zm2.49,6.73A3,3,0,0,0,21.47,4,3,3,0,0,0,18.36.86H16.71V7.05Z"/><path class="cls-1" d="M25.19,7.52,28.53.12A.2.2,0,0,1,28.72,0h.11A.19.19,0,0,1,29,.12l3.32,7.4a.19.19,0,0,1-.19.29h-.44a.18.18,0,0,1-.18-.12l-.82-1.82h-3.9L26,7.69a.18.18,0,0,1-.18.12h-.44A.19.19,0,0,1,25.19,7.52Zm5.23-2.33c-.54-1.2-1.07-2.41-1.61-3.61h-.09L27.11,5.19Z"/><path class="cls-1" d="M35.74.2A.21.21,0,0,1,36,0h.27l5,6.18h0V.32a.2.2,0,0,1,.21-.21h.38A.22.22,0,0,1,42,.32v7.4a.21.21,0,0,1-.21.2h-.2l-5.05-6.3h0v6a.21.21,0,0,1-.21.21H36a.22.22,0,0,1-.21-.21Z"/><path class="cls-1" d="M50.6,6.66l.16-.21c.11-.15.24-.23.39-.1A3.09,3.09,0,0,0,53,7.18,1.32,1.32,0,0,0,54.48,6c0-.76-.66-1.21-1.92-1.73s-1.94-1-1.94-2.28A2.1,2.1,0,0,1,53,0a3.63,3.63,0,0,1,1.88.56.26.26,0,0,1,.06.38l-.13.2a.24.24,0,0,1-.38.1A3.22,3.22,0,0,0,53,.74c-1.16,0-1.51.75-1.51,1.21,0,.73.56,1.16,1.48,1.55,1.49.6,2.44,1.16,2.44,2.44a2.19,2.19,0,0,1-2.37,2A3.58,3.58,0,0,1,50.67,7C50.58,7,50.47,6.86,50.6,6.66Z"/><path class="cls-1" d="M58.1,7.52,61.45.12A.18.18,0,0,1,61.63,0h.11a.19.19,0,0,1,.19.12l3.32,7.4a.19.19,0,0,1-.18.29h-.44a.2.2,0,0,1-.19-.12l-.82-1.82h-3.9l-.8,1.82a.21.21,0,0,1-.19.12h-.44A.2.2,0,0,1,58.1,7.52Zm5.23-2.33c-.54-1.2-1.07-2.41-1.61-3.61h-.09L60,5.19Z"/><path class="cls-1" d="M68.65.37a.26.26,0,0,1,.26-.26h.32a.27.27,0,0,1,.27.26V3.49L72.93.22a.33.33,0,0,1,.21-.11h.54a.21.21,0,0,1,.13.39L70.33,3.74,74,7.47a.21.21,0,0,1-.18.34h-.56a.27.27,0,0,1-.2-.08L69.5,4.05v3.5a.27.27,0,0,1-.27.26h-.32a.26.26,0,0,1-.26-.26Z"/><path class="cls-1" d="M76.59,7.52,79.94.12A.18.18,0,0,1,80.12,0h.11a.19.19,0,0,1,.19.12l3.32,7.4a.19.19,0,0,1-.18.29h-.44a.2.2,0,0,1-.19-.12l-.82-1.82h-3.9l-.8,1.82a.21.21,0,0,1-.19.12h-.44A.2.2,0,0,1,76.59,7.52Zm5.23-2.33c-.54-1.2-1.07-2.41-1.61-3.61h-.09l-1.6,3.61Z"/><path class="cls-1" d="M87.14.32a.21.21,0,0,1,.21-.21H90.2a2.36,2.36,0,0,1,2.4,2.34A2.46,2.46,0,0,1,91,4.7l1.51,2.79a.21.21,0,0,1-.19.32h-.56a.18.18,0,0,1-.18-.1L90.09,4.8H88V7.6a.22.22,0,0,1-.21.21h-.43a.21.21,0,0,1-.21-.21Zm3,3.75a1.6,1.6,0,0,0,1.59-1.61A1.61,1.61,0,0,0,90.14.91H88V4.07Z"/><path class="cls-1" d="M98.16,4.1,95.51.43a.2.2,0,0,1,.18-.32h.52a.25.25,0,0,1,.17.1L98.6,3.28,100.83.21a.25.25,0,0,1,.17-.1h.52a.2.2,0,0,1,.17.32L99,4.09V7.6a.22.22,0,0,1-.21.21h-.43a.21.21,0,0,1-.21-.21Z"/><path class="cls-1" d="M103.42,7.52l3.34-7.4A.2.2,0,0,1,107,0h.11a.19.19,0,0,1,.19.12l3.32,7.4a.19.19,0,0,1-.19.29h-.44a.19.19,0,0,1-.18-.12l-.82-1.82H105l-.81,1.82a.18.18,0,0,1-.18.12h-.44A.19.19,0,0,1,103.42,7.52Zm5.23-2.33c-.54-1.2-1.07-2.41-1.61-3.61H107l-1.6,3.61Z"/><path class="cls-1" d="M119.48.15a.22.22,0,0,1,.2-.15h.17a.2.2,0,0,1,.19.12l2.18,6.06h0L124.42.12a.2.2,0,0,1,.19-.12h.17a.22.22,0,0,1,.2.15l1.42,7.4c0,.15,0,.26-.2.26h-.44a.26.26,0,0,1-.2-.15l-1-5.67h0l-2,5.81a.21.21,0,0,1-.19.12h-.2a.24.24,0,0,1-.19-.12L119.9,2h-.05l-.95,5.67a.22.22,0,0,1-.2.15h-.44c-.16,0-.23-.11-.2-.26Z"/><path class="cls-1" d="M130.29.32a.22.22,0,0,1,.21-.21h.44a.22.22,0,0,1,.21.21V7.6a.22.22,0,0,1-.21.21h-.44a.22.22,0,0,1-.21-.21Z"/><path class="cls-1" d="M135.6.32a.2.2,0,0,1,.2-.21h.43a.22.22,0,0,1,.21.21V7.07h3.17a.21.21,0,0,1,.21.21V7.6a.21.21,0,0,1-.21.21H135.8a.2.2,0,0,1-.2-.21Z"/><path class="cls-1" d="M143.2.32a.2.2,0,0,1,.21-.21h.43a.22.22,0,0,1,.2.21V7.07h3.17a.21.21,0,0,1,.21.21V7.6a.21.21,0,0,1-.21.21h-3.8a.2.2,0,0,1-.21-.21Z"/><path class="cls-1" d="M150.8.32A.22.22,0,0,1,151,.11h.44a.22.22,0,0,1,.21.21V7.6a.22.22,0,0,1-.21.21H151a.22.22,0,0,1-.21-.21Z"/><path class="cls-1" d="M156.1.37a.26.26,0,0,1,.26-.26h.32a.27.27,0,0,1,.27.26V3.49L160.38.22a.33.33,0,0,1,.21-.11h.54a.21.21,0,0,1,.13.39l-3.48,3.24,3.65,3.73a.22.22,0,0,1-.19.34h-.56a.27.27,0,0,1-.2-.08L157,4.05v3.5a.27.27,0,0,1-.27.26h-.32a.26.26,0,0,1-.26-.26Z"/><path class="cls-1" d="M165,.32a.22.22,0,0,1,.21-.21h.44a.22.22,0,0,1,.21.21V7.6a.22.22,0,0,1-.21.21h-.44A.22.22,0,0,1,165,7.6Z"/><path class="cls-1" d="M170.35.2a.2.2,0,0,1,.2-.2h.28l5,6.18h0V.32A.21.21,0,0,1,176,.11h.39a.22.22,0,0,1,.21.21v7.4a.21.21,0,0,1-.21.2h-.2l-5.05-6.3h0v6a.21.21,0,0,1-.21.21h-.39a.21.21,0,0,1-.2-.21Z"/><path class="cls-1" d="M126.05,30.35c0-3.24,1.34-4.26,2.59-4.33.13,0,.19,0,.2.11l0,.3a.15.15,0,0,1-.1.19c-1.39.27-1.94,1.57-1.94,3.73s.55,3.45,1.94,3.73a.13.13,0,0,1,.1.18l0,.3c0,.09-.07.12-.2.11C127.39,34.6,126.05,33.58,126.05,30.35Z"/><path class="cls-1" d="M131.64,26.32a.22.22,0,0,1,.21-.21h.34a.22.22,0,0,1,.21.21v3.27a2.31,2.31,0,0,1,1.17-.29,2.11,2.11,0,0,1,2.11,2.3,2.18,2.18,0,0,1-2,2.32,2,2,0,0,1-1.35-.58l-.07.3a.19.19,0,0,1-.18.17h-.23a.22.22,0,0,1-.21-.21Zm2,6.91a1.46,1.46,0,0,0,1.31-1.62A1.41,1.41,0,0,0,133.47,30a2.37,2.37,0,0,0-1.06.26v2.2A1.47,1.47,0,0,0,133.61,33.23Z"/><path class="cls-1" d="M139,32.67a.62.62,0,0,1,.63.62.63.63,0,0,1-.63.63.63.63,0,0,1-.63-.63A.63.63,0,0,1,139,32.67Z"/><path class="cls-1" d="M147.66,27.69l-.79.62c-.09.07-.18.08-.25,0l-.21-.23a.17.17,0,0,1,0-.24l1.54-1.5h.3a.21.21,0,0,1,.2.21V33.6a.21.21,0,0,1-.2.21h-.4a.21.21,0,0,1-.21-.21Z"/><path class="cls-1" d="M152.87,33.31c.49-.17,2.44-1.26,2.82-2.74a3.26,3.26,0,0,1-1.67.49,2.32,2.32,0,0,1-2.36-2.39,2.5,2.5,0,0,1,2.43-2.52c1.78,0,2.56,1.39,2.56,3.14,0,2.93-2.51,4.27-3.62,4.71a.18.18,0,0,1-.24-.11l-.12-.27C152.61,33.49,152.66,33.37,152.87,33.31Zm3-3.68c.18-1.1-.24-2.75-1.75-2.75a1.7,1.7,0,0,0-1.65,1.75,1.68,1.68,0,0,0,1.66,1.72A2.7,2.7,0,0,0,155.84,29.63Z"/><path class="cls-1" d="M160.49,33.31c.49-.17,2.44-1.26,2.83-2.74a3.32,3.32,0,0,1-1.68.49,2.32,2.32,0,0,1-2.36-2.39,2.5,2.5,0,0,1,2.43-2.52c1.78,0,2.56,1.39,2.56,3.14,0,2.93-2.51,4.27-3.62,4.71a.18.18,0,0,1-.24-.11l-.12-.27C160.24,33.49,160.28,33.37,160.49,33.31Zm3-3.68c.19-1.1-.24-2.75-1.75-2.75a1.71,1.71,0,0,0-1.65,1.75,1.68,1.68,0,0,0,1.66,1.72A2.7,2.7,0,0,0,163.46,29.63Z"/><path class="cls-1" d="M167.22,32.63a2.83,2.83,0,0,0,.25-.24c.1-.09.19-.11.28,0a2,2,0,0,0,1.63.82,1.78,1.78,0,0,0,1.72-1.81,1.54,1.54,0,0,0-1.72-1.58h-1.67a.38.38,0,0,1-.35-.39v-2.9a.21.21,0,0,1,.21-.21h3.33a.2.2,0,0,1,.2.21v.32a.2.2,0,0,1-.2.21h-2.8v2h1.28c1.66,0,2.54.87,2.54,2.31a2.5,2.5,0,0,1-2.55,2.52,2.65,2.65,0,0,1-2.13-.91C167.1,32.84,167.09,32.77,167.22,32.63Z"/><path class="cls-1" d="M176.33,30.35c0-2.16-.55-3.46-1.94-3.73a.16.16,0,0,1-.11-.19l0-.3c0-.09.08-.12.2-.11,1.26.07,2.6,1.09,2.6,4.33s-1.34,4.25-2.6,4.32c-.12,0-.18,0-.2-.11l0-.3a.14.14,0,0,1,.11-.18C175.78,33.8,176.33,32.5,176.33,30.35Z"/></g></g></svg>