<svg xmlns="http://www.w3.org/2000/svg" viewBox="0 0 171.88 11.22"><defs><style>.cls-1{fill:#fbae5c;}</style></defs><g id="Layer_2" data-name="Layer 2"><g id="Stroke"><path class="cls-1" d="M4,0A3.84,3.84,0,0,1,6.63,1a.21.21,0,0,1,0,.31l-.29.3c-.09.11-.18.1-.29,0A3.3,3.3,0,0,0,4,.79,3.12,3.12,0,0,0,.89,4,3.12,3.12,0,0,0,4,7.12a3.19,3.19,0,0,0,2.1-.83.22.22,0,0,1,.27,0l.33.3a.21.21,0,0,1,0,.29A3.74,3.74,0,0,1,4,7.92,4,4,0,1,1,4,0Z"/><path class="cls-1" d="M11.38,3.3a2.25,2.25,0,0,1,2.19,2.3,2.26,2.26,0,0,1-2.19,2.32A2.26,2.26,0,0,1,9.2,5.6,2.25,2.25,0,0,1,11.38,3.3Zm0,3.91A1.52,1.52,0,0,0,12.82,5.6,1.5,1.5,0,0,0,11.38,4,1.49,1.49,0,0,0,10,5.6,1.51,1.51,0,0,0,11.38,7.21Z"/><path class="cls-1" d="M16.41,3.62a.22.22,0,0,1,.21-.21H17a.22.22,0,0,1,.21.21V5.94c0,.84.38,1.24,1,1.24a1.74,1.74,0,0,0,1.31-.62V3.62a.22.22,0,0,1,.21-.21H20a.22.22,0,0,1,.21.21v4a.22.22,0,0,1-.21.21h-.21c-.12,0-.16-.08-.2-.19l-.07-.28a2,2,0,0,1-1.43.58c-1.28,0-1.71-.82-1.71-2Z"/><path class="cls-1" d="M23.45,3.62a.22.22,0,0,1,.21-.21h.21a.18.18,0,0,1,.19.15l.08.32a1.64,1.64,0,0,1,1.32-.58c.33,0,.89.06.78.36L26.1,4c-.05.14-.15.14-.26.1a1,1,0,0,0-.43-.09,1.41,1.41,0,0,0-1.2.61V7.6a.22.22,0,0,1-.21.21h-.34a.22.22,0,0,1-.21-.21Z"/><path class="cls-1" d="M29.06,4.07H28.5a.21.21,0,0,1-.21-.21V3.62a.21.21,0,0,1,.21-.21h.56V2.19A.22.22,0,0,1,29.27,2l.35,0a.21.21,0,0,1,.2.21V3.41H31.1a.21.21,0,0,1,.21.21v.24a.21.21,0,0,1-.21.21H29.82V6.64c0,.44.11.53.36.53A2.1,2.1,0,0,0,31,6.93c.16-.09.21,0,.26.07l.17.27c.07.13,0,.2-.08.28a2.86,2.86,0,0,1-1.27.37c-.88,0-1-.53-1-1.21Z"/><path class="cls-1" d="M36,3.3a1.94,1.94,0,0,1,2,2,1.53,1.53,0,0,1,0,.3.2.2,0,0,1-.19.19H34.63A1.54,1.54,0,0,0,36.1,7.23a2.13,2.13,0,0,0,1.09-.33c.16-.09.22-.15.31,0s.12.16.19.25.12.16,0,.29a2.79,2.79,0,0,1-1.61.5,2.15,2.15,0,0,1-2.16-2.31A2.17,2.17,0,0,1,36,3.3Zm1.23,1.88A1.27,1.27,0,0,0,36,4a1.37,1.37,0,0,0-1.39,1.21Z"/><path class="cls-1" d="M40.6,7.19c0-.06.12-.22.15-.27a.2.2,0,0,1,.3,0,1.9,1.9,0,0,0,1,.38c.45,0,.71-.23.71-.53s-.33-.56-1-.88-1.25-.67-1.25-1.42A1.23,1.23,0,0,1,42,3.3a2.28,2.28,0,0,1,1.22.34.26.26,0,0,1,.06.34l-.09.18a.24.24,0,0,1-.31.1A2.2,2.2,0,0,0,42,4c-.5,0-.63.26-.63.44,0,.37.36.53.81.75.76.36,1.44.71,1.44,1.5a1.38,1.38,0,0,1-1.51,1.24,2.26,2.26,0,0,1-1.43-.49A.23.23,0,0,1,40.6,7.19Z"/><path class="cls-1" d="M45.8,3.65c-.06-.14,0-.24.17-.24h.48a.2.2,0,0,1,.19.12L48.27,6.9h0l1.54-3.37A.21.21,0,0,1,50,3.41h.41c.17,0,.25.11.17.25L47.21,11a.24.24,0,0,1-.19.13h-.4c-.17,0-.25-.12-.18-.27l1.41-3Z"/><path class="cls-1" d="M59.17,3.3a2.26,2.26,0,0,1,2.19,2.3A2.19,2.19,0,1,1,57,5.6,2.26,2.26,0,0,1,59.17,3.3Zm0,3.91A1.52,1.52,0,0,0,60.6,5.6a1.44,1.44,0,1,0-2.86,0A1.52,1.52,0,0,0,59.17,7.21Z"/><path class="cls-1" d="M64.6,4.07h-.67a.21.21,0,0,1-.21-.21V3.62a.21.21,0,0,1,.21-.21h.67V1.87A1.64,1.64,0,0,1,66.29,0,1.76,1.76,0,0,1,67.5.45a.22.22,0,0,1,0,.25L67.36,1c-.06.11-.17.1-.28,0a1.52,1.52,0,0,0-.81-.32c-.5,0-.91.34-.91,1.19V3.41h1.28a.21.21,0,0,1,.21.21v.24a.21.21,0,0,1-.21.21H65.36V7.6a.22.22,0,0,1-.21.21h-.34a.22.22,0,0,1-.21-.21Z"/><path class="cls-1" d="M75.3,3.3a2.33,2.33,0,0,1,1.18.29V.32a.22.22,0,0,1,.21-.21H77a.22.22,0,0,1,.21.21V7.6a.22.22,0,0,1-.21.21H76.8c-.1,0-.16-.08-.19-.18l-.06-.29a2,2,0,0,1-1.35.58,2.18,2.18,0,0,1-2-2.32A2.11,2.11,0,0,1,75.3,3.3Zm0,3.93a1.49,1.49,0,0,0,1.2-.73V4.3A2.39,2.39,0,0,0,75.4,4,1.41,1.41,0,0,0,74,5.61,1.46,1.46,0,0,0,75.27,7.23Z"/><path class="cls-1" d="M80.31.86a.52.52,0,0,1,.52-.53.53.53,0,0,1,.53.53.53.53,0,0,1-.53.52A.52.52,0,0,1,80.31.86Zm.15,2.76a.22.22,0,0,1,.21-.21H81a.22.22,0,0,1,.21.21v4a.22.22,0,0,1-.21.21h-.34a.22.22,0,0,1-.21-.21Z"/><path class="cls-1" d="M84.73,6.34a1.94,1.94,0,0,1-.35-1.1A1.86,1.86,0,0,1,86.24,3.3H88.1a.21.21,0,0,1,.21.21V3.7c0,.07,0,.17-.12.18l-.6.12a1.55,1.55,0,0,1,.5,1.24,1.81,1.81,0,0,1-1.85,1.87,1.76,1.76,0,0,1-1-.28.83.83,0,0,0-.48.66.54.54,0,0,0,.6.54H86.9c.92,0,1.65.45,1.65,1.41a2.08,2.08,0,0,1-2.28,1.78c-1.47,0-2.11-.79-2.11-1.52a1.19,1.19,0,0,1,.64-1v0A1.07,1.07,0,0,1,84,7.6,1.57,1.57,0,0,1,84.73,6.34Zm1.53,4.17c.73,0,1.48-.41,1.48-1,0-.14-.07-.71-.84-.71H85.68s-.74.19-.74.84S85.51,10.51,86.26,10.51Zm1.09-5.3A1.11,1.11,0,0,0,86.25,4,1.15,1.15,0,0,0,85.1,5.21a1.15,1.15,0,0,0,1.15,1.24A1.12,1.12,0,0,0,87.35,5.21Z"/><path class="cls-1" d="M91,.86A.52.52,0,0,1,91.5.33.53.53,0,0,1,92,.86a.53.53,0,0,1-.53.52A.52.52,0,0,1,91,.86Zm.15,2.76a.22.22,0,0,1,.21-.21h.34a.22.22,0,0,1,.21.21v4a.22.22,0,0,1-.21.21h-.34a.22.22,0,0,1-.21-.21Z"/><path class="cls-1" d="M95.39,4.07h-.56a.21.21,0,0,1-.21-.21V3.62a.21.21,0,0,1,.21-.21h.56V2.19A.22.22,0,0,1,95.6,2L96,2a.21.21,0,0,1,.2.21V3.41h1.28a.2.2,0,0,1,.2.21v.24a.2.2,0,0,1-.2.21H96.15V6.64c0,.44.11.53.36.53a2.1,2.1,0,0,0,.81-.24c.16-.09.21,0,.26.07l.17.27c.07.13,0,.2-.08.28a2.91,2.91,0,0,1-1.27.37c-.88,0-1-.53-1-1.21Z"/><path class="cls-1" d="M102,5a3.65,3.65,0,0,1,.93.14c0-.81-.09-1.19-.71-1.19a4,4,0,0,0-1.32.24c-.11,0-.18,0-.21-.11l-.09-.27a.18.18,0,0,1,.12-.24,4,4,0,0,1,1.53-.29c1.12,0,1.4.57,1.4,1.86V7.6a.22.22,0,0,1-.21.21h-.21c-.12,0-.15-.06-.19-.16l-.08-.3a2,2,0,0,1-1.37.57,1.33,1.33,0,0,1-1.35-1.44C100.2,5.64,100.82,5,102,5Zm-.29,2.24a1.54,1.54,0,0,0,1.21-.62V5.78A1.9,1.9,0,0,0,102,5.6c-.62,0-1.06.31-1.06.88A.74.74,0,0,0,101.67,7.26Z"/><path class="cls-1" d="M106.8.32A.22.22,0,0,1,107,.11h.34a.22.22,0,0,1,.21.21V7.6a.22.22,0,0,1-.21.21H107a.22.22,0,0,1-.21-.21Z"/><path class="cls-1" d="M115.64,10.9a.22.22,0,0,1-.21.21h-.34a.22.22,0,0,1-.21-.21V3.62a.22.22,0,0,1,.21-.21h.23c.1,0,.14,0,.18.14l.08.21a2,2,0,0,1,1.27-.46,2.19,2.19,0,0,1,2.08,2.32,2.17,2.17,0,0,1-2.11,2.3,2,2,0,0,1-1.18-.36Zm1.08-3.72a1.47,1.47,0,0,0,1.44-1.57A1.47,1.47,0,0,0,116.78,4a1.51,1.51,0,0,0-1.13.54V6.8A1.89,1.89,0,0,0,116.72,7.18Z"/><path class="cls-1" d="M121.82,3.62a.22.22,0,0,1,.21-.21h.21a.18.18,0,0,1,.19.15l.09.32a1.61,1.61,0,0,1,1.32-.58c.33,0,.88.06.77.36l-.14.38c0,.14-.15.14-.26.1a1,1,0,0,0-.43-.09,1.43,1.43,0,0,0-1.2.61V7.6a.22.22,0,0,1-.21.21H122a.22.22,0,0,1-.21-.21Z"/><path class="cls-1" d="M129,3.3a2.25,2.25,0,0,1,2.19,2.3,2.19,2.19,0,1,1-4.38,0A2.26,2.26,0,0,1,129,3.3Zm0,3.91a1.52,1.52,0,0,0,1.44-1.61,1.44,1.44,0,1,0-2.87,0A1.52,1.52,0,0,0,129,7.21Z"/><path class="cls-1" d="M134.84,10.9a.22.22,0,0,1-.21.21h-.34a.22.22,0,0,1-.21-.21V3.62a.22.22,0,0,1,.21-.21h.23c.1,0,.13,0,.17.14l.08.21a2,2,0,0,1,1.28-.46,2.19,2.19,0,0,1,2.08,2.32A2.18,2.18,0,0,1,136,7.92a2,2,0,0,1-1.17-.36Zm1.07-3.72a1.47,1.47,0,0,0,1.45-1.57,1.41,1.41,0,0,0-2.51-1.08V6.8A1.84,1.84,0,0,0,135.91,7.18Z"/><path class="cls-1" d="M141,3.62a.22.22,0,0,1,.21-.21h.21a.18.18,0,0,1,.18.15l.09.32A1.64,1.64,0,0,1,143,3.3c.33,0,.88.06.77.36l-.13.38c0,.14-.15.14-.26.1a1.06,1.06,0,0,0-.43-.09,1.41,1.41,0,0,0-1.2.61V7.6a.22.22,0,0,1-.21.21h-.34A.22.22,0,0,1,141,7.6Z"/><path class="cls-1" d="M146.19.86a.52.52,0,1,1,.52.52A.52.52,0,0,1,146.19.86Zm.15,2.76a.22.22,0,0,1,.21-.21h.34a.22.22,0,0,1,.21.21v4a.22.22,0,0,1-.21.21h-.34a.22.22,0,0,1-.21-.21Z"/><path class="cls-1" d="M152.15,3.3a1.94,1.94,0,0,1,2,2c0,.08,0,.22,0,.3a.21.21,0,0,1-.2.19h-3.17a1.56,1.56,0,0,0,1.48,1.43,2.16,2.16,0,0,0,1.09-.33c.15-.09.22-.15.3,0a2.35,2.35,0,0,1,.19.25c.08.1.12.16,0,.29a2.83,2.83,0,0,1-1.62.5A2.16,2.16,0,0,1,150,5.61,2.17,2.17,0,0,1,152.15,3.3Zm1.23,1.88A1.27,1.27,0,0,0,152.15,4a1.37,1.37,0,0,0-1.39,1.21Z"/><path class="cls-1" d="M157.28,4.07h-.57a.2.2,0,0,1-.2-.21V3.62a.2.2,0,0,1,.2-.21h.57V2.19a.22.22,0,0,1,.21-.21l.35,0a.21.21,0,0,1,.2.21V3.41h1.27a.21.21,0,0,1,.21.21v.24a.21.21,0,0,1-.21.21H158V6.64c0,.44.11.53.36.53a2,2,0,0,0,.8-.24c.17-.09.21,0,.26.07l.17.27c.08.13,0,.2-.08.28a2.86,2.86,0,0,1-1.26.37c-.88,0-1-.53-1-1.21Z"/><path class="cls-1" d="M164.24,3.3a1.94,1.94,0,0,1,2,2c0,.08,0,.22,0,.3a.21.21,0,0,1-.2.19h-3.17a1.56,1.56,0,0,0,1.48,1.43,2.16,2.16,0,0,0,1.09-.33c.15-.09.21-.15.3,0s.12.16.19.25.12.16,0,.29a2.83,2.83,0,0,1-1.62.5,2.16,2.16,0,0,1-2.16-2.31A2.17,2.17,0,0,1,164.24,3.3Zm1.23,1.88A1.27,1.27,0,0,0,164.24,4a1.37,1.37,0,0,0-1.39,1.21Z"/><path class="cls-1" d="M169.08,3.62a.22.22,0,0,1,.21-.21h.21a.18.18,0,0,1,.18.15l.09.32a1.64,1.64,0,0,1,1.32-.58c.33,0,.88.06.77.36l-.13.38c0,.14-.15.14-.26.1a1.06,1.06,0,0,0-.43-.09,1.41,1.41,0,0,0-1.2.61V7.6a.22.22,0,0,1-.21.21h-.34a.22.22,0,0,1-.21-.21Z"/></g></g></svg>