<svg xmlns="http://www.w3.org/2000/svg" viewBox="0 0 225.8 98.21"><defs><style>.cls-1{fill:#fbae5c;}.cls-2{fill:#fff;}.cls-2,.cls-3,.cls-4{stroke:#fbae5c;stroke-width:0.8px;}.cls-2,.cls-3{stroke-linejoin:round;}.cls-3,.cls-4{fill:none;}.cls-4{stroke-miterlimit:10;}</style></defs><g id="Layer_2" data-name="Layer 2"><g id="Stroke"><path class="cls-1" d="M31.4,0a3.86,3.86,0,0,1,2.66,1,.21.21,0,0,1,0,.31l-.29.3c-.09.11-.18.1-.29,0a3.3,3.3,0,0,0-2.1-.83A3.12,3.12,0,0,0,28.32,4a3.12,3.12,0,0,0,3.07,3.16,3.19,3.19,0,0,0,2.1-.83.2.2,0,0,1,.26,0l.33.3a.2.2,0,0,1,0,.29A3.76,3.76,0,0,1,31.4,7.92,4,4,0,1,1,31.4,0Z"/><path class="cls-1" d="M38.81,3.3A2.26,2.26,0,0,1,41,5.6a2.19,2.19,0,1,1-4.38,0A2.26,2.26,0,0,1,38.81,3.3Zm0,3.91A1.51,1.51,0,0,0,40.24,5.6a1.44,1.44,0,1,0-2.86,0A1.52,1.52,0,0,0,38.81,7.21Z"/><path class="cls-1" d="M43.84,3.62a.22.22,0,0,1,.21-.21h.35a.22.22,0,0,1,.21.21V5.94c0,.84.38,1.24,1,1.24a1.74,1.74,0,0,0,1.31-.62V3.62a.22.22,0,0,1,.21-.21h.34a.22.22,0,0,1,.21.21v4a.22.22,0,0,1-.21.21h-.21c-.12,0-.16-.08-.2-.19L47,7.34a2,2,0,0,1-1.43.58c-1.28,0-1.71-.82-1.71-2Z"/><path class="cls-1" d="M50.88,3.62a.22.22,0,0,1,.21-.21h.21a.19.19,0,0,1,.19.15l.08.32a1.64,1.64,0,0,1,1.32-.58c.33,0,.88.06.77.36L53.53,4c-.05.14-.15.14-.26.1a1.06,1.06,0,0,0-.43-.09,1.41,1.41,0,0,0-1.2.61V7.6a.22.22,0,0,1-.21.21h-.34a.22.22,0,0,1-.21-.21Z"/><path class="cls-1" d="M56.49,4.07h-.56a.21.21,0,0,1-.21-.21V3.62a.21.21,0,0,1,.21-.21h.56V2.19A.22.22,0,0,1,56.7,2l.35,0a.21.21,0,0,1,.2.21V3.41h1.28a.21.21,0,0,1,.21.21v.24a.21.21,0,0,1-.21.21H57.25V6.64c0,.44.11.53.36.53a2.1,2.1,0,0,0,.81-.24c.16-.09.2,0,.26.07l.16.27c.08.13,0,.2-.07.28a2.91,2.91,0,0,1-1.27.37c-.88,0-1-.53-1-1.21Z"/><path class="cls-1" d="M63.45,3.3a1.94,1.94,0,0,1,2,2c0,.08,0,.22,0,.3a.2.2,0,0,1-.19.19H62.06a1.54,1.54,0,0,0,1.47,1.43,2.13,2.13,0,0,0,1.09-.33c.15-.09.22-.15.31,0l.18.25c.08.1.13.16,0,.29a2.8,2.8,0,0,1-1.62.5A2.15,2.15,0,0,1,61.3,5.61,2.17,2.17,0,0,1,63.45,3.3Zm1.24,1.88A1.28,1.28,0,0,0,63.45,4a1.36,1.36,0,0,0-1.38,1.21Z"/><path class="cls-1" d="M68,7.19c0-.06.12-.22.15-.27a.2.2,0,0,1,.3,0,1.85,1.85,0,0,0,1,.38c.46,0,.72-.23.72-.53s-.33-.56-1-.88S68,5.19,68,4.44A1.23,1.23,0,0,1,69.4,3.3a2.29,2.29,0,0,1,1.23.34.27.27,0,0,1,.06.34l-.09.18a.25.25,0,0,1-.32.1A2.14,2.14,0,0,0,69.4,4c-.49,0-.62.26-.62.44,0,.37.36.53.81.75.76.36,1.44.71,1.44,1.5a1.39,1.39,0,0,1-1.52,1.24,2.31,2.31,0,0,1-1.43-.49A.25.25,0,0,1,68,7.19Z"/><path class="cls-1" d="M73.23,3.65c-.06-.14,0-.24.17-.24h.48a.21.21,0,0,1,.19.12L75.7,6.9h0l1.54-3.37a.21.21,0,0,1,.18-.12h.42c.17,0,.24.11.17.25L74.64,11a.24.24,0,0,1-.19.13h-.4c-.17,0-.26-.12-.18-.27l1.41-3Z"/><path class="cls-1" d="M86.6,3.3a2.26,2.26,0,0,1,2.19,2.3,2.19,2.19,0,1,1-4.38,0A2.26,2.26,0,0,1,86.6,3.3Zm0,3.91A1.52,1.52,0,0,0,88,5.6a1.44,1.44,0,1,0-2.86,0A1.51,1.51,0,0,0,86.6,7.21Z"/><path class="cls-1" d="M92,4.07h-.67a.21.21,0,0,1-.21-.21V3.62a.21.21,0,0,1,.21-.21H92V1.87A1.64,1.64,0,0,1,93.71,0a1.72,1.72,0,0,1,1.21.45A.21.21,0,0,1,95,.7L94.79,1c-.06.11-.17.1-.28,0A1.52,1.52,0,0,0,93.7.68c-.5,0-.91.34-.91,1.19V3.41h1.28a.2.2,0,0,1,.2.21v.24a.2.2,0,0,1-.2.21H92.79V7.6a.22.22,0,0,1-.21.21h-.34A.22.22,0,0,1,92,7.6Z"/><path class="cls-1" d="M102.73,3.3a2.33,2.33,0,0,1,1.18.29V.32a.22.22,0,0,1,.21-.21h.34a.22.22,0,0,1,.21.21V7.6a.22.22,0,0,1-.21.21h-.23c-.1,0-.16-.08-.19-.18L104,7.34a2,2,0,0,1-1.36.58,2.18,2.18,0,0,1-2-2.32A2.11,2.11,0,0,1,102.73,3.3Zm0,3.93a1.49,1.49,0,0,0,1.2-.73V4.3A2.39,2.39,0,0,0,102.83,4a1.41,1.41,0,0,0-1.44,1.57A1.46,1.46,0,0,0,102.7,7.23Z"/><path class="cls-1" d="M107.74.86a.52.52,0,1,1,1,0,.52.52,0,1,1-1,0Zm.15,2.76a.22.22,0,0,1,.21-.21h.34a.22.22,0,0,1,.21.21v4a.22.22,0,0,1-.21.21h-.34a.22.22,0,0,1-.21-.21Z"/><path class="cls-1" d="M112.16,6.34a1.94,1.94,0,0,1-.35-1.1,1.85,1.85,0,0,1,1.86-1.94h1.86a.21.21,0,0,1,.21.21V3.7c0,.07,0,.17-.13.18L115,4a1.55,1.55,0,0,1,.5,1.24,1.81,1.81,0,0,1-1.85,1.87,1.72,1.72,0,0,1-1-.28.83.83,0,0,0-.48.66.54.54,0,0,0,.6.54h1.59c.92,0,1.65.45,1.65,1.41a2.08,2.08,0,0,1-2.28,1.78c-1.47,0-2.11-.79-2.11-1.52a1.19,1.19,0,0,1,.64-1v0a1.07,1.07,0,0,1-.81-1.05A1.57,1.57,0,0,1,112.16,6.34Zm1.53,4.17c.73,0,1.47-.41,1.47-1,0-.14-.06-.71-.83-.71h-1.22s-.74.19-.74.84S112.94,10.51,113.69,10.51Zm1.09-5.3A1.11,1.11,0,0,0,113.68,4a1.15,1.15,0,0,0-1.16,1.23,1.16,1.16,0,0,0,1.16,1.24A1.12,1.12,0,0,0,114.78,5.21Z"/><path class="cls-1" d="M118.41.86a.52.52,0,1,1,1,0,.52.52,0,1,1-1,0Zm.15,2.76a.22.22,0,0,1,.21-.21h.34a.22.22,0,0,1,.21.21v4a.22.22,0,0,1-.21.21h-.34a.22.22,0,0,1-.21-.21Z"/><path class="cls-1" d="M122.82,4.07h-.56a.21.21,0,0,1-.21-.21V3.62a.21.21,0,0,1,.21-.21h.56V2.19A.22.22,0,0,1,123,2l.35,0a.21.21,0,0,1,.2.21V3.41h1.27a.2.2,0,0,1,.21.21v.24a.2.2,0,0,1-.21.21h-1.27V6.64c0,.44.11.53.36.53a2,2,0,0,0,.8-.24c.17-.09.21,0,.27.07l.16.27c.08.13,0,.2-.07.28a2.91,2.91,0,0,1-1.27.37c-.88,0-1-.53-1-1.21Z"/><path class="cls-1" d="M129.39,5a3.65,3.65,0,0,1,.93.14c0-.81-.09-1.19-.71-1.19a4,4,0,0,0-1.32.24c-.11,0-.18,0-.21-.11L128,3.83c0-.13,0-.2.12-.24a4,4,0,0,1,1.53-.29c1.12,0,1.4.57,1.4,1.86V7.6a.22.22,0,0,1-.21.21h-.21c-.12,0-.16-.06-.19-.16l-.09-.3a1.9,1.9,0,0,1-1.36.57,1.33,1.33,0,0,1-1.35-1.44C127.63,5.64,128.25,5,129.39,5Zm-.29,2.24a1.55,1.55,0,0,0,1.21-.62V5.78a1.9,1.9,0,0,0-.92-.18c-.62,0-1.06.31-1.06.88A.74.74,0,0,0,129.1,7.26Z"/><path class="cls-1" d="M134.23.32a.21.21,0,0,1,.2-.21h.35a.22.22,0,0,1,.21.21V7.6a.22.22,0,0,1-.21.21h-.35a.21.21,0,0,1-.2-.21Z"/><path class="cls-1" d="M143.07,10.9a.22.22,0,0,1-.21.21h-.34a.22.22,0,0,1-.21-.21V3.62a.22.22,0,0,1,.21-.21h.23c.1,0,.13,0,.18.14l.07.21a2,2,0,0,1,1.28-.46,2.19,2.19,0,0,1,2.08,2.32,2.17,2.17,0,0,1-2.11,2.3,2,2,0,0,1-1.18-.36Zm1.08-3.72a1.47,1.47,0,0,0,1.44-1.57A1.47,1.47,0,0,0,144.2,4a1.5,1.5,0,0,0-1.12.54V6.8A1.85,1.85,0,0,0,144.15,7.18Z"/><path class="cls-1" d="M149.25,3.62a.22.22,0,0,1,.21-.21h.21a.19.19,0,0,1,.19.15l.08.32a1.65,1.65,0,0,1,1.33-.58c.33,0,.88.06.77.36L151.9,4c-.05.14-.15.14-.26.1a1,1,0,0,0-.43-.09,1.41,1.41,0,0,0-1.2.61V7.6a.22.22,0,0,1-.21.21h-.34a.22.22,0,0,1-.21-.21Z"/><path class="cls-1" d="M156.41,3.3a2.26,2.26,0,0,1,2.19,2.3,2.19,2.19,0,1,1-4.38,0A2.26,2.26,0,0,1,156.41,3.3Zm0,3.91a1.51,1.51,0,0,0,1.43-1.61,1.44,1.44,0,1,0-2.86,0A1.52,1.52,0,0,0,156.41,7.21Z"/><path class="cls-1" d="M162.26,10.9a.21.21,0,0,1-.2.21h-.35a.21.21,0,0,1-.2-.21V3.62a.21.21,0,0,1,.2-.21H162c.09,0,.13,0,.17.14l.08.21a2,2,0,0,1,1.28-.46,2.19,2.19,0,0,1,2.07,2.32,2.17,2.17,0,0,1-2.11,2.3,2,2,0,0,1-1.18-.36Zm1.08-3.72a1.47,1.47,0,0,0,1.44-1.57A1.46,1.46,0,0,0,163.4,4a1.47,1.47,0,0,0-1.12.54V6.8A1.84,1.84,0,0,0,163.34,7.18Z"/><path class="cls-1" d="M168.45,3.62a.22.22,0,0,1,.21-.21h.2a.18.18,0,0,1,.19.15l.09.32a1.64,1.64,0,0,1,1.32-.58c.33,0,.88.06.77.36L171.1,4c-.06.14-.16.14-.27.1a1,1,0,0,0-.43-.09,1.4,1.4,0,0,0-1.19.61V7.6a.22.22,0,0,1-.21.21h-.34a.22.22,0,0,1-.21-.21Z"/><path class="cls-1" d="M173.62.86a.52.52,0,1,1,1,0,.52.52,0,1,1-1,0Zm.15,2.76a.22.22,0,0,1,.21-.21h.34a.22.22,0,0,1,.21.21v4a.22.22,0,0,1-.21.21H174a.22.22,0,0,1-.21-.21Z"/><path class="cls-1" d="M179.58,3.3a1.94,1.94,0,0,1,2,2c0,.08,0,.22,0,.3a.21.21,0,0,1-.2.19h-3.17a1.55,1.55,0,0,0,1.48,1.43,2.09,2.09,0,0,0,1.08-.33c.16-.09.23-.15.31,0s.12.16.19.25.12.16,0,.29a2.83,2.83,0,0,1-1.62.5,2.16,2.16,0,0,1-2.16-2.31A2.17,2.17,0,0,1,179.58,3.3Zm1.23,1.88A1.27,1.27,0,0,0,179.58,4a1.37,1.37,0,0,0-1.39,1.21Z"/><path class="cls-1" d="M184.7,4.07h-.56a.21.21,0,0,1-.21-.21V3.62a.21.21,0,0,1,.21-.21h.56V2.19a.22.22,0,0,1,.21-.21l.36,0a.2.2,0,0,1,.19.21V3.41h1.28a.21.21,0,0,1,.21.21v.24a.21.21,0,0,1-.21.21h-1.28V6.64c0,.44.11.53.37.53a2,2,0,0,0,.8-.24c.16-.09.21,0,.26.07l.17.27c.08.13,0,.2-.08.28a2.86,2.86,0,0,1-1.26.37c-.88,0-1-.53-1-1.21Z"/><path class="cls-1" d="M191.67,3.3a1.94,1.94,0,0,1,2,2c0,.08,0,.22,0,.3a.21.21,0,0,1-.2.19h-3.17a1.55,1.55,0,0,0,1.47,1.43,2.1,2.1,0,0,0,1.09-.33c.16-.09.22-.15.31,0s.12.16.19.25.12.16,0,.29a2.83,2.83,0,0,1-1.62.5,2.16,2.16,0,0,1-2.16-2.31A2.17,2.17,0,0,1,191.67,3.3Zm1.23,1.88A1.27,1.27,0,0,0,191.67,4a1.37,1.37,0,0,0-1.39,1.21Z"/><path class="cls-1" d="M196.51,3.62a.22.22,0,0,1,.21-.21h.21a.18.18,0,0,1,.18.15l.09.32a1.64,1.64,0,0,1,1.32-.58c.33,0,.88.06.77.36l-.13.38a.18.18,0,0,1-.26.1,1.06,1.06,0,0,0-.43-.09,1.41,1.41,0,0,0-1.2.61V7.6a.22.22,0,0,1-.21.21h-.34a.22.22,0,0,1-.21-.21Z"/><line class="cls-2" x1="198.4" y1="69.81" x2="64.4" y2="69.81"/><rect class="cls-3" x="0.4" y="28.81" width="225" height="69"/><polyline class="cls-4" points="52.4 57.81 64.4 69.81 198.4 69.81"/><line class="cls-4" x1="64.4" y1="57.81" x2="52.4" y2="69.81"/></g></g></svg>