<?xml version="1.0" encoding="utf-8"?>
<!-- Generator: Adobe Illustrator 25.4.1, SVG Export Plug-In . SVG Version: 6.00 Build 0)  -->
<svg version="1.1" id="Layer_1" xmlns="http://www.w3.org/2000/svg" xmlns:xlink="http://www.w3.org/1999/xlink" x="0px" y="0px"
	 viewBox="0 0 225.8 98.2" style="enable-background:new 0 0 225.8 98.2;" xml:space="preserve">
<style type="text/css">
	.st0{fill:#FBAE5C;}
	.st1{fill:none;stroke:#FBAE5C;stroke-width:1.2;stroke-linejoin:round;}
	.st2{fill:none;stroke:#FBAE5C;stroke-width:1.2;stroke-miterlimit:10;}
</style>
<g id="Layer_2_00000139264778434570944480000014518977098607109042_">
	<g id="Stroke">
		<path class="st0" d="M31.4,0c1,0,1.9,0.3,2.7,1c0.1,0.1,0.1,0.2,0,0.3c0,0,0,0,0,0l-0.3,0.3c-0.1,0.1-0.2,0.1-0.3,0
			c-0.6-0.5-1.3-0.8-2.1-0.8c-1.7,0-3.1,1.5-3.1,3.2c0,0,0,0,0,0c0,1.7,1.4,3.1,3.1,3.2c0.8,0,1.5-0.3,2.1-0.8
			c0.1-0.1,0.2-0.1,0.3,0l0.3,0.3c0.1,0.1,0.1,0.2,0,0.3c0,0,0,0,0,0c-0.7,0.7-1.7,1-2.7,1c-2.2,0.3-3.8-1.2-4.1-3.4s0.8-4.2,3-4.5
			C30.6-0.1,31-0.1,31.4,0z"/>
		<path class="st0" d="M38.8,3.3C40,3.3,41,4.4,41,5.6c0,1.2-1,2.2-2.2,2.2c-1.2,0-2.2-1-2.2-2.2C36.6,4.4,37.6,3.3,38.8,3.3z
			 M38.8,7.2c0.8,0,1.5-0.8,1.4-1.6c0,0,0,0,0,0C40.3,4.8,39.8,4.1,39,4c-0.8-0.1-1.5,0.5-1.6,1.3c0,0.1,0,0.2,0,0.3
			C37.3,6.4,38,7.2,38.8,7.2C38.8,7.2,38.8,7.2,38.8,7.2z"/>
		<path class="st0" d="M43.8,3.6c0-0.1,0.1-0.2,0.2-0.2h0.3c0.1,0,0.2,0.1,0.2,0.2v2.3c0,0.8,0.4,1.2,1,1.2c0.5,0,1-0.2,1.3-0.6V3.6
			c0-0.1,0.1-0.2,0.2-0.2h0.3c0.1,0,0.2,0.1,0.2,0.2v4c0,0.1-0.1,0.2-0.2,0.2h-0.2c-0.1,0-0.2-0.1-0.2-0.2L47,7.3
			c-0.4,0.4-0.9,0.6-1.4,0.6c-1.3,0-1.7-0.8-1.7-2L43.8,3.6z"/>
		<path class="st0" d="M50.9,3.6c0-0.1,0.1-0.2,0.2-0.2h0.2c0.1,0,0.2,0.1,0.2,0.2l0.1,0.3c0.3-0.4,0.8-0.6,1.3-0.6
			c0.3,0,0.9,0.1,0.8,0.4L53.5,4c0,0.1-0.2,0.1-0.3,0.1C53.1,4,53,4,52.8,4c-0.5,0-0.9,0.2-1.2,0.6v3c0,0.1-0.1,0.2-0.2,0.2h-0.3
			c-0.1,0-0.2-0.1-0.2-0.2V3.6z"/>
		<path class="st0" d="M56.5,4.1h-0.6c-0.1,0-0.2-0.1-0.2-0.2V3.6c0-0.1,0.1-0.2,0.2-0.2h0.6V2.2c0-0.1,0.1-0.2,0.2-0.2H57
			c0.1,0,0.2,0.1,0.2,0.2v1.2h1.3c0.1,0,0.2,0.1,0.2,0.2v0.2c0,0.1-0.1,0.2-0.2,0.2h-1.3v2.6c0,0.4,0.1,0.5,0.4,0.5
			c0.3,0,0.6-0.1,0.8-0.2c0.2-0.1,0.2,0,0.3,0.1l0.2,0.3c0.1,0.1,0,0.2-0.1,0.3c-0.4,0.2-0.8,0.3-1.3,0.4c-0.9,0-1-0.5-1-1.2
			L56.5,4.1z"/>
		<path class="st0" d="M63.5,3.3c1.1,0,2,0.8,2,1.9c0,0,0,0.1,0,0.1c0,0.1,0,0.2,0,0.3c0,0.1-0.1,0.2-0.2,0.2h-3.2
			c0.1,0.8,0.7,1.4,1.5,1.4c0.4,0,0.8-0.1,1.1-0.3c0.2-0.1,0.2-0.2,0.3,0l0.2,0.2c0.1,0.1,0.1,0.2,0,0.3c-0.5,0.3-1,0.5-1.6,0.5
			c-1.2,0-2.2-0.9-2.2-2.1c0-0.1,0-0.1,0-0.2c-0.1-1.2,0.8-2.2,2-2.3C63.4,3.3,63.4,3.3,63.5,3.3z M64.7,5.2C64.6,4.5,64.1,4,63.5,4
			c-0.7,0-1.3,0.5-1.4,1.2L64.7,5.2z"/>
		<path class="st0" d="M68,7.2c0-0.1,0.1-0.2,0.2-0.3c0.1-0.1,0.2-0.1,0.3,0c0,0,0,0,0,0c0.3,0.2,0.6,0.4,1,0.4
			c0.5,0,0.7-0.2,0.7-0.5s-0.3-0.6-1-0.9S68,5.2,68,4.4c0-0.7,0.6-1.2,1.3-1.1c0,0,0.1,0,0.1,0c0.4,0,0.9,0.1,1.2,0.3
			c0.1,0.1,0.1,0.2,0.1,0.3l-0.1,0.2c-0.1,0.1-0.2,0.2-0.3,0.1C70,4.1,69.7,4,69.4,4c-0.5,0-0.6,0.3-0.6,0.4c0,0.4,0.4,0.5,0.8,0.8
			C70.3,5.6,71,5.9,71,6.7C71,7.5,70.3,8,69.5,7.9c-0.5,0-1-0.2-1.4-0.5C68,7.4,68,7.3,68,7.2z"/>
		<path class="st0" d="M73.2,3.7c-0.1-0.1,0-0.2,0.2-0.2h0.5c0.1,0,0.2,0,0.2,0.1l1.6,3.4l0,0l1.5-3.4c0-0.1,0.1-0.1,0.2-0.1h0.4
			c0.2,0,0.2,0.1,0.2,0.2L74.6,11c0,0.1-0.1,0.1-0.2,0.1H74c-0.2,0-0.3-0.1-0.2-0.3l1.4-3L73.2,3.7z"/>
		<path class="st0" d="M86.6,3.3c1.2,0,2.2,1.1,2.2,2.3c0,1.2-1,2.2-2.2,2.2c-1.2,0-2.2-1-2.2-2.2c0,0,0,0,0,0
			C84.4,4.4,85.4,3.3,86.6,3.3z M86.6,7.2c0.8-0.1,1.5-0.8,1.4-1.6c0.1-0.8-0.5-1.5-1.3-1.6c-0.8-0.1-1.5,0.5-1.6,1.3
			c0,0.1,0,0.2,0,0.3C85.1,6.4,85.7,7.2,86.6,7.2C86.6,7.2,86.6,7.2,86.6,7.2z"/>
		<path class="st0" d="M92,4.1h-0.7c-0.1,0-0.2-0.1-0.2-0.2V3.6c0-0.1,0.1-0.2,0.2-0.2H92V1.9C91.9,1,92.5,0.1,93.4,0
			c0.1,0,0.2,0,0.3,0c0.4,0,0.9,0.1,1.2,0.4C95,0.5,95,0.6,95,0.7L94.8,1c-0.1,0.1-0.2,0.1-0.3,0c-0.2-0.2-0.5-0.3-0.8-0.3
			c-0.5,0-0.9,0.3-0.9,1.2v1.5h1.3c0.1,0,0.2,0.1,0.2,0.2c0,0,0,0,0,0v0.2c0,0.1-0.1,0.2-0.2,0.2c0,0,0,0,0,0h-1.3v3.5
			c0,0.1-0.1,0.2-0.2,0.2h-0.3c-0.1,0-0.2-0.1-0.2-0.2c0,0,0,0,0,0V4.1z"/>
		<path class="st0" d="M102.7,3.3c0.4,0,0.8,0.1,1.2,0.3V0.3c0-0.1,0.1-0.2,0.2-0.2h0.3c0.1,0,0.2,0.1,0.2,0.2v7.3
			c0,0.1-0.1,0.2-0.2,0.2h-0.2c-0.1,0-0.2-0.1-0.2-0.2l0-0.3c-0.4,0.4-0.8,0.6-1.4,0.6c-1.2-0.1-2.1-1.1-2-2.3
			c-0.1-1.2,0.8-2.2,1.9-2.3C102.6,3.3,102.7,3.3,102.7,3.3z M102.7,7.2c0.5,0,0.9-0.3,1.2-0.7V4.3c-0.3-0.2-0.7-0.3-1.1-0.3
			c-0.8,0-1.4,0.6-1.4,1.4c0,0.1,0,0.1,0,0.2c-0.1,0.8,0.4,1.5,1.2,1.7C102.7,7.2,102.7,7.2,102.7,7.2L102.7,7.2z"/>
		<path class="st0" d="M107.7,0.9c-0.1-0.3,0.1-0.6,0.4-0.6c0.3-0.1,0.6,0.1,0.6,0.4c0,0.1,0,0.2,0,0.3c0.1,0.3-0.1,0.6-0.4,0.6
			c-0.3,0.1-0.6-0.1-0.6-0.4C107.7,1.1,107.7,1,107.7,0.9z M107.9,3.6c0-0.1,0.1-0.2,0.2-0.2h0.3c0.1,0,0.2,0.1,0.2,0.2v4
			c0,0.1-0.1,0.2-0.2,0.2h-0.3c-0.1,0-0.2-0.1-0.2-0.2V3.6z"/>
		<path class="st0" d="M112.2,6.3c-0.2-0.3-0.3-0.7-0.3-1.1c0-1,0.7-1.9,1.8-1.9c0,0,0.1,0,0.1,0h1.9c0.1,0,0.2,0.1,0.2,0.2v0.2
			c0,0.1,0,0.2-0.1,0.2L115,4c0.3,0.3,0.5,0.8,0.5,1.2c0,1-0.7,1.8-1.7,1.9c0,0-0.1,0-0.1,0c-0.4,0-0.7-0.1-1-0.3
			c-0.3,0.1-0.4,0.4-0.5,0.7c0,0.3,0.2,0.5,0.5,0.5c0,0,0,0,0.1,0h1.6c0.9,0,1.7,0.4,1.7,1.4c-0.2,1.1-1.2,1.9-2.3,1.8
			c-1.5,0-2.1-0.8-2.1-1.5c0-0.4,0.3-0.8,0.6-1l0,0c-0.5-0.1-0.8-0.6-0.8-1.1C111.5,7.1,111.7,6.6,112.2,6.3z M113.7,10.5
			c0.7,0,1.5-0.4,1.5-1c0-0.1-0.1-0.7-0.8-0.7h-1.2c0,0-0.7,0.2-0.7,0.8S112.9,10.5,113.7,10.5z M114.8,5.2c0.1-0.6-0.4-1.2-1-1.2
			c0,0-0.1,0-0.1,0c-0.6,0-1.2,0.5-1.2,1.1c0,0,0,0.1,0,0.1c0,0.6,0.4,1.2,1.1,1.2c0,0,0.1,0,0.1,0c0.6,0,1.1-0.5,1.1-1.1
			C114.8,5.3,114.8,5.3,114.8,5.2z"/>
		<path class="st0" d="M118.4,0.9c-0.1-0.3,0.1-0.6,0.4-0.6c0.3-0.1,0.6,0.1,0.6,0.4c0,0.1,0,0.2,0,0.3c0.1,0.3-0.1,0.6-0.4,0.6
			c-0.3,0.1-0.6-0.1-0.6-0.4C118.4,1.1,118.4,1,118.4,0.9z M118.6,3.6c0-0.1,0.1-0.2,0.2-0.2h0.3c0.1,0,0.2,0.1,0.2,0.2v4
			c0,0.1-0.1,0.2-0.2,0.2h-0.3c-0.1,0-0.2-0.1-0.2-0.2V3.6z"/>
		<path class="st0" d="M122.8,4.1h-0.6c-0.1,0-0.2-0.1-0.2-0.2V3.6c0-0.1,0.1-0.2,0.2-0.2h0.6V2.2c0-0.1,0.1-0.2,0.2-0.2h0.3
			c0.1,0,0.2,0.1,0.2,0.2v1.2h1.3c0.1,0,0.2,0.1,0.2,0.2c0,0,0,0,0,0v0.2c0,0.1-0.1,0.2-0.2,0.2c0,0,0,0,0,0h-1.3v2.6
			c0,0.4,0.1,0.5,0.4,0.5c0.3,0,0.6-0.1,0.8-0.2c0.2-0.1,0.2,0,0.3,0.1l0.2,0.3c0.1,0.1,0,0.2-0.1,0.3c-0.4,0.2-0.8,0.3-1.3,0.4
			c-0.9,0-1-0.5-1-1.2L122.8,4.1z"/>
		<path class="st0" d="M129.4,5c0.3,0,0.6,0.1,0.9,0.1c0-0.8-0.1-1.2-0.7-1.2c-0.5,0-0.9,0.1-1.3,0.2c-0.1,0-0.2,0-0.2-0.1L128,3.8
			c0-0.1,0-0.2,0.1-0.2c0.5-0.2,1-0.3,1.5-0.3c1.1,0,1.4,0.6,1.4,1.9v2.4c0,0.1-0.1,0.2-0.2,0.2h-0.2c-0.1,0-0.2-0.1-0.2-0.2
			l-0.1-0.3c-0.4,0.4-0.8,0.6-1.4,0.6c-0.7,0-1.3-0.6-1.4-1.3c0,0,0-0.1,0-0.1C127.6,5.6,128.2,5,129.4,5z M129.1,7.2
			c0.5,0,0.9-0.2,1.2-0.6V5.8c-0.3-0.1-0.6-0.2-0.9-0.2c-0.6,0-1.1,0.3-1.1,0.9C128.3,6.9,128.6,7.2,129.1,7.2
			C129.1,7.3,129.1,7.3,129.1,7.2L129.1,7.2z"/>
		<path class="st0" d="M134.2,0.3c0-0.1,0.1-0.2,0.2-0.2h0.4c0.1,0,0.2,0.1,0.2,0.2v7.3c0,0.1-0.1,0.2-0.2,0.2h-0.4
			c-0.1,0-0.2-0.1-0.2-0.2V0.3z"/>
		<path class="st0" d="M143.1,10.9c0,0.1-0.1,0.2-0.2,0.2h-0.3c-0.1,0-0.2-0.1-0.2-0.2V3.6c0-0.1,0.1-0.2,0.2-0.2h0.2
			c0.1,0,0.1,0,0.2,0.1l0.1,0.2c0.4-0.3,0.8-0.5,1.3-0.5c1.2,0.1,2.1,1.1,2.1,2.3c0,0,0,0,0,0c0.1,1.2-0.8,2.2-2,2.3c0,0,0,0-0.1,0
			c-0.4,0-0.8-0.1-1.2-0.4V10.9z M144.2,7.2c0.8,0,1.5-0.7,1.4-1.5c0,0,0,0,0-0.1c0.1-0.8-0.5-1.5-1.3-1.6c0,0,0,0-0.1,0
			c-0.4,0-0.8,0.2-1.1,0.5v2.3C143.4,7,143.8,7.2,144.2,7.2L144.2,7.2z"/>
		<path class="st0" d="M149.2,3.6c0-0.1,0.1-0.2,0.2-0.2h0.2c0.1,0,0.2,0.1,0.2,0.2l0.1,0.3c0.3-0.4,0.8-0.6,1.3-0.6
			c0.3,0,0.9,0.1,0.8,0.4L151.9,4c-0.1,0.1-0.1,0.1-0.3,0.1C151.5,4,151.4,4,151.2,4c-0.5,0-0.9,0.2-1.2,0.6v3
			c0,0.1-0.1,0.2-0.2,0.2h-0.3c-0.1,0-0.2-0.1-0.2-0.2V3.6z"/>
		<path class="st0" d="M156.4,3.3c1.2,0,2.2,1.1,2.2,2.3c0,1.2-1,2.2-2.2,2.2s-2.2-1-2.2-2.2C154.2,4.4,155.2,3.3,156.4,3.3z
			 M156.4,7.2c0.8,0,1.5-0.8,1.4-1.6c0,0,0,0,0,0c0.1-0.8-0.5-1.5-1.3-1.6s-1.5,0.5-1.6,1.3c0,0.1,0,0.2,0,0.3
			C154.9,6.4,155.6,7.2,156.4,7.2C156.4,7.2,156.4,7.2,156.4,7.2z"/>
		<path class="st0" d="M162.3,10.9c0,0.1-0.1,0.2-0.2,0.2h-0.4c-0.1,0-0.2-0.1-0.2-0.2V3.6c0-0.1,0.1-0.2,0.2-0.2h0.3
			c0.1,0,0.1,0,0.2,0.1l0.1,0.2c0.4-0.3,0.8-0.5,1.3-0.5c1.2,0.1,2.1,1.1,2.1,2.3c0,0,0,0,0,0c0.1,1.2-0.8,2.2-2,2.3c0,0,0,0-0.1,0
			c-0.4,0-0.8-0.1-1.2-0.4L162.3,10.9z M163.3,7.2c0.8,0,1.5-0.7,1.4-1.5c0,0,0,0,0-0.1c0.1-0.8-0.5-1.5-1.3-1.6c0,0-0.1,0-0.1,0
			c-0.4,0-0.8,0.2-1.1,0.5v2.3C162.6,7,163,7.2,163.3,7.2z"/>
		<path class="st0" d="M168.4,3.6c0-0.1,0.1-0.2,0.2-0.2h0.2c0.1,0,0.2,0.1,0.2,0.2l0.1,0.3c0.3-0.4,0.8-0.6,1.3-0.6
			c0.3,0,0.9,0.1,0.8,0.4L171.1,4c-0.1,0.1-0.2,0.1-0.3,0.1C170.7,4,170.5,4,170.4,4c-0.5,0-0.9,0.2-1.2,0.6v3
			c0,0.1-0.1,0.2-0.2,0.2h-0.3c-0.1,0-0.2-0.1-0.2-0.2V3.6z"/>
		<path class="st0" d="M173.6,0.9c-0.1-0.3,0.1-0.6,0.4-0.6c0.3-0.1,0.6,0.1,0.6,0.4c0,0.1,0,0.2,0,0.3c0.1,0.3-0.1,0.6-0.4,0.6
			c-0.3,0.1-0.6-0.1-0.6-0.4C173.6,1.1,173.6,1,173.6,0.9z M173.8,3.6c0-0.1,0.1-0.2,0.2-0.2h0.3c0.1,0,0.2,0.1,0.2,0.2v4
			c0,0.1-0.1,0.2-0.2,0.2H174c-0.1,0-0.2-0.1-0.2-0.2L173.8,3.6z"/>
		<path class="st0" d="M179.6,3.3c1.1,0,2,0.8,2,1.9c0,0,0,0.1,0,0.1c0,0.1,0,0.2,0,0.3c0,0.1-0.1,0.2-0.2,0.2h-3.2
			c0.1,0.8,0.7,1.4,1.5,1.4c0.4,0,0.8-0.1,1.1-0.3c0.2-0.1,0.2-0.2,0.3,0s0.1,0.2,0.2,0.2s0.1,0.2,0,0.3c-0.5,0.3-1,0.5-1.6,0.5
			c-1.2,0-2.2-1-2.2-2.2c0-0.1,0-0.1,0-0.2C177.4,4.4,178.3,3.4,179.6,3.3C179.5,3.3,179.6,3.3,179.6,3.3z M180.8,5.2
			c0-0.7-0.6-1.2-1.2-1.2c-0.7,0-1.3,0.5-1.4,1.2L180.8,5.2z"/>
		<path class="st0" d="M184.7,4.1h-0.6c-0.1,0-0.2-0.1-0.2-0.2c0,0,0,0,0,0V3.6c0-0.1,0.1-0.2,0.2-0.2l0,0h0.6V2.2
			c0-0.1,0.1-0.2,0.2-0.2h0.4c0.1,0,0.2,0.1,0.2,0.2c0,0,0,0,0,0v1.2h1.3c0.1,0,0.2,0.1,0.2,0.2c0,0,0,0,0,0v0.2
			c0,0.1-0.1,0.2-0.2,0.2l0,0h-1.3v2.6c0,0.4,0.1,0.5,0.4,0.5c0.3,0,0.6-0.1,0.8-0.2c0.2-0.1,0.2,0,0.3,0.1l0.2,0.3
			c0.1,0.1,0,0.2-0.1,0.3c-0.4,0.2-0.8,0.3-1.3,0.4c-0.9,0-1-0.5-1-1.2L184.7,4.1z"/>
		<path class="st0" d="M191.7,3.3c1.1,0,2,0.8,2,1.9c0,0,0,0.1,0,0.1c0,0.1,0,0.2,0,0.3c0,0.1-0.1,0.2-0.2,0.2h-3.2
			c0.1,0.8,0.7,1.4,1.5,1.4c0.4,0,0.8-0.1,1.1-0.3c0.2-0.1,0.2-0.2,0.3,0s0.1,0.2,0.2,0.2s0.1,0.2,0,0.3c-0.5,0.3-1,0.5-1.6,0.5
			c-1.2,0-2.2-1-2.2-2.2c0-0.1,0-0.1,0-0.2C189.5,4.4,190.4,3.4,191.7,3.3C191.6,3.3,191.6,3.3,191.7,3.3z M192.9,5.2
			c0-0.7-0.6-1.2-1.2-1.2c-0.7,0-1.3,0.5-1.4,1.2L192.9,5.2z"/>
		<path class="st0" d="M196.5,3.6c0-0.1,0.1-0.2,0.2-0.2h0.2c0.1,0,0.2,0.1,0.2,0.2l0.1,0.3c0.3-0.4,0.8-0.6,1.3-0.6
			c0.3,0,0.9,0.1,0.8,0.4L199.2,4c0,0.1-0.1,0.1-0.2,0.1c0,0,0,0,0,0c-0.1-0.1-0.3-0.1-0.4-0.1c-0.5,0-0.9,0.2-1.2,0.6v2.9
			c0,0.1-0.1,0.2-0.2,0.2h-0.3c-0.1,0-0.2-0.1-0.2-0.2L196.5,3.6z"/>
		<line class="st1" x1="198.4" y1="69.8" x2="64.4" y2="69.8"/>
		<rect x="0.4" y="28.8" class="st1" width="225" height="69"/>
		<polyline class="st2" points="52.4,57.8 64.4,69.8 198.4,69.8 		"/>
		<line class="st2" x1="64.4" y1="57.8" x2="52.4" y2="69.8"/>
	</g>
</g>
</svg>
