<svg xmlns="http://www.w3.org/2000/svg" viewBox="0 0 620 950"><defs><style>.cls-1{fill:none;stroke:#fbae5c;stroke-miterlimit:10;stroke-width:0.8px;}.cls-2{opacity:0;}.cls-3{fill:#fbae5c;}</style></defs><g id="Layer_2" data-name="Layer 2"><g id="Annotation"><polygon class="cls-1" points="126 35 114 23 126 11 168 11 180 23 168 35 126 35"/><path class="cls-1" d="M512,23h33c11,0,14.48,2.45,18.5,6.47h0c4,4,9.81,5.53,15.5,5.53h6V915H35V35h6c5.69,0,11.48-1.51,15.5-5.53h0c4-4,7.5-6.47,18.5-6.47h33"/><line class="cls-1" x1="585" y1="35" x2="607" y2="13"/><path class="cls-1" d="M585,915l22,22V914c0-14.72-.66-29.38-4-43.57h0c-3.34-14.19-6.08-28.72-6.08-43.29V122.86c0-14.57,2.74-29.1,6.08-43.29h0c3.34-14.19,4-28.85,4-43.57V13c-13.22,6.61-29.84,10.05-44.62,10.05L180,22.86"/><line class="cls-1" x1="35" y1="35" x2="13" y2="13"/><path class="cls-1" d="M35,915,13,937V914c0-14.72.66-29.38,4-43.57h0c3.34-14.19,6.08-28.72,6.08-43.29V122.86c0-14.57-2.74-29.1-6.08-43.29h0C13.66,65.38,13,50.72,13,36V13c13.22,6.61,29.84,10.05,44.62,10.05L114,22.86"/><g class="cls-2"><path class="cls-3" d="M619.2.8V949.2H.8V.8H619.2M620,0H0V950H620V0Z"/></g></g></g></svg>