<?xml version="1.0" encoding="utf-8"?>
<!-- Generator: Adobe Illustrator 25.4.1, SVG Export Plug-In . SVG Version: 6.00 Build 0)  -->
<svg version="1.1" id="Layer_1" xmlns="http://www.w3.org/2000/svg" xmlns:xlink="http://www.w3.org/1999/xlink" x="0px" y="0px"
	 viewBox="0 0 620 950" style="enable-background:new 0 0 620 950;" xml:space="preserve">
<style type="text/css">
	.st0{fill:none;stroke:#FBAE5C;stroke-width:1.2;stroke-miterlimit:10;}
	.st1{opacity:0;}
	.st2{fill:#FBAE5C;}
</style>
<g id="Layer_2_00000020387809370255420330000003204323307992426159_">
	<g id="Annotation">
		<polygon class="st0" points="126,35 114,23 126,11 168,11 180,23 168,35 		"/>
		<path class="st0" d="M512,23h33c11,0,14.5,2.5,18.5,6.5l0,0c4,4,9.8,5.5,15.5,5.5h6v880H35V35h6c5.7,0,11.5-1.5,15.5-5.5l0,0
			c4-4,7.5-6.5,18.5-6.5h33"/>
		<line class="st0" x1="585" y1="35" x2="607" y2="13"/>
		<path class="st0" d="M585,915l22,22v-23c0-14.7-0.7-29.4-4-43.6l0,0c-3.3-14.2-6.1-28.7-6.1-43.3V122.9c0-14.6,2.7-29.1,6.1-43.3
			l0,0c3.3-14.2,4-28.8,4-43.6V13c-13.2,6.6-29.8,10-44.6,10L180,22.9"/>
		<line class="st0" x1="35" y1="35" x2="13" y2="13"/>
		<path class="st0" d="M35,915l-22,22v-23c0-14.7,0.7-29.4,4-43.6l0,0c3.3-14.2,6.1-28.7,6.1-43.3V122.9c0-14.6-2.7-29.1-6.1-43.3
			l0,0c-3.3-14.2-4-28.8-4-43.6V13c13.2,6.6,29.8,10,44.6,10l56.4-0.2"/>
		<g class="st1">
			<path class="st2" d="M619.2,0.8v948.4H0.8V0.8H619.2 M620,0H0v950h620V0z"/>
		</g>
	</g>
</g>
</svg>
