<svg xmlns="http://www.w3.org/2000/svg" viewBox="0 0 43.42 28.3"><defs><style>.cls-1{font-size:20px;fill:#fbae5c;font-family:BrandonGrotesque-Light, Brandon Grotesque;font-weight:300;letter-spacing:0.25em;}.cls-2,.cls-3{fill:none;stroke:#fbae5c;}.cls-2{stroke-miterlimit:10;stroke-width:0.8px;}.cls-3{stroke-linecap:round;stroke-linejoin:round;}</style></defs><g id="Layer_2" data-name="Layer 2"><g id="Stroke"><text class="cls-1" transform="translate(27.5 18.06)">3</text><path class="cls-2" d="M12.5.4h-.44A3.14,3.14,0,0,0,9.2,2.9l-6,22.5A3.5,3.5,0,0,1,0,27.9H0"/><path class="cls-2" d="M4,12.93h6L9.38,15.4a1.93,1.93,0,0,0,.54,2.07"/><path class="cls-2" d="M17.49,15.41a3.37,3.37,0,0,1-3,2.4,1.78,1.78,0,0,1-1.75-2.4,3,3,0,0,1,3-2.13,4.1,4.1,0,0,1,2.21.66"/><path class="cls-2" d="M18.15,12.93l-2,7.47A3.5,3.5,0,0,1,13,22.9h-.16"/><line class="cls-3" x1="11.35" y1="8.71" x2="11.35" y2="8.71"/><line class="cls-3" x1="22.5" y1="17.9" x2="22.5" y2="17.9"/></g></g></svg>