<svg xmlns="http://www.w3.org/2000/svg" viewBox="0 0 36.4 27.8"><defs><style>.cls-1,.cls-2{fill:none;stroke:#fbae5c;}.cls-1{stroke-miterlimit:10;stroke-width:0.8px;}.cls-2{stroke-linecap:round;stroke-linejoin:round;}</style></defs><g id="Layer_2" data-name="Layer 2"><g id="Stroke"><path class="cls-1" d="M12.5.4h-.44A3.12,3.12,0,0,0,9.2,2.85L3.17,25A3.49,3.49,0,0,1,0,27.4H0"/><path class="cls-1" d="M4,12.7h6l-.65,2.43a1.87,1.87,0,0,0,.54,2"/><path class="cls-1" d="M17.49,14.7a3.35,3.35,0,0,1-3,2.36,1.75,1.75,0,0,1-1.75-2.36,3,3,0,0,1,3-2.08,4.1,4.1,0,0,1,2.21.64"/><path class="cls-1" d="M18.15,12.27l-2,7.33A3.49,3.49,0,0,1,13,22.06h-.16"/><line class="cls-2" x1="11.35" y1="8.56" x2="11.35" y2="8.56"/><line class="cls-2" x1="22" y1="16.4" x2="22" y2="16.4"/><path class="cls-1" d="M28,13.4a4,4,0,0,0,4.15,3A3.64,3.64,0,0,0,36,12.84c0-2.41-1.67-3.74-4.32-3.74H30.34"/><path class="cls-1" d="M29,4.4a3,3,0,0,1,3-2,3.3,3.3,0,0,1,3.36,3.29A3.4,3.4,0,0,1,32,9.1"/></g></g></svg>