<?xml version="1.0" encoding="utf-8"?>
<!-- Generator: Adobe Illustrator 25.4.1, SVG Export Plug-In . SVG Version: 6.00 Build 0)  -->
<svg version="1.1" id="Layer_1" xmlns="http://www.w3.org/2000/svg" xmlns:xlink="http://www.w3.org/1999/xlink" x="0px" y="0px"
	 viewBox="0 0 36.4 27.8" style="enable-background:new 0 0 36.4 27.8;" xml:space="preserve">
<style type="text/css">
	.st0{fill:none;stroke:#FBAE5C;stroke-width:1.2;stroke-miterlimit:10;}
	.st1{fill:none;stroke:#FBAE5C;stroke-width:1.2;stroke-linecap:round;stroke-linejoin:round;}
</style>
<g id="Layer_2_00000179627455765020272440000003540610455542754959_">
	<g id="Stroke">
		<path class="st0" d="M12.5,0.4h-0.4c-1.4,0.1-2.6,1.1-2.9,2.4L3.2,25c-0.5,1.4-1.7,2.3-3.2,2.4l0,0"/>
		<path class="st0" d="M4,12.7h6l-0.6,2.4c-0.2,0.7,0,1.5,0.5,2"/>
		<path class="st0" d="M17.5,14.7c-0.4,1.3-1.6,2.3-3,2.4c-1,0.1-1.8-0.7-1.9-1.6c0-0.2,0-0.5,0.1-0.7c0.4-1.3,1.6-2.1,3-2.1
			c0.8,0,1.5,0.2,2.2,0.6"/>
		<path class="st0" d="M18.1,12.3l-2,7.3C15.7,21,14.5,22,13,22.1h-0.2"/>
		<line class="st1" x1="11.4" y1="8.6" x2="11.4" y2="8.6"/>
		<line class="st1" x1="22" y1="16.4" x2="22" y2="16.4"/>
		<path class="st0" d="M28,13.4c0.5,1.9,2.2,3.1,4.2,3c2,0.1,3.7-1.4,3.8-3.4c0,0,0-0.1,0-0.1c0-2.4-1.7-3.7-4.3-3.7h-1.3"/>
		<path class="st0" d="M29,4.4c0.4-1.3,1.7-2.1,3-2c1.8,0,3.3,1.4,3.4,3.2c0,0,0,0,0,0.1c0,1.9-1.5,3.4-3.4,3.4"/>
	</g>
</g>
</svg>
