<?xml version="1.0" encoding="utf-8"?>
<!-- Generator: Adobe Illustrator 25.4.1, SVG Export Plug-In . SVG Version: 6.00 Build 0)  -->
<svg version="1.1" id="Layer_1" xmlns="http://www.w3.org/2000/svg" xmlns:xlink="http://www.w3.org/1999/xlink" x="0px" y="0px"
	 viewBox="0 0 288.8 281.7" style="enable-background:new 0 0 288.8 281.7;" xml:space="preserve">
<style type="text/css">
	.st0{fill:none;stroke:#FBAE5C;stroke-width:1px;stroke-linejoin:round;}
	.st1{fill:none;stroke:#FBAE5C;stroke-width:1px;stroke-linejoin:round;stroke-dasharray:5.73,9.55;}
	.st2{fill:none;stroke:#FBAE5C;stroke-width:1px;stroke-linejoin:round;stroke-dasharray:5.89,9.82;}
</style>
<g id="Layer_2_1_">
	<g id="Stroke">
		<line class="st0" x1="283.4" y1="100.4" x2="280.4" y2="100.4"/>
		<path class="st1" d="M270.8,100.4h-22.3c-27.9-0.1-53.7,14.8-67.7,39c-2.2,3.8-4.7,7.5-7.4,11"/>
		<path class="st0" d="M170.3,154.1c-0.7,0.7-1.4,1.5-2.1,2.2"/>
		<path class="st0" d="M41.5,29.5c-5.2,5.2-8.1,12.3-8.1,19.6l0,0c0,11.7-4.6,22.9-12.9,31.1L0.4,100.4l20.1,20.1
			c8.3,8.3,12.9,19.5,12.9,31.1l0,0c0,15.3,12.4,27.8,27.8,27.8l0,0c11.7,0,22.9,4.6,31.1,12.9l20.1,20.1l20.1-20.1
			c8.3-8.3,19.5-12.9,31.1-12.9l0,0c7.4,0,14.4-2.9,19.6-8.1l-15-15c-30.9,30.9-80.9,30.9-111.7,0s-30.9-80.9,0-111.7L41.5,29.5z"/>
		<path class="st0" d="M41.5,29.5c0.7-0.7,1.4-1.4,2.2-2.1"/>
		<path class="st2" d="M51.1,21c15.4-11.8,34-18.9,53.4-20.3"/>
		<path class="st0" d="M109.4,0.4c1,0,2,0,3,0"/>
		<polyline class="st0" points="72.4,180.8 72.4,281.3 112.4,241.3 152.4,281.3 152.4,180.8 		"/>
	</g>
</g>
</svg>
