<svg xmlns="http://www.w3.org/2000/svg" viewBox="0 0 183.58 183.58"><defs><style>.cls-1{fill:none;stroke:#fbae5c;stroke-linejoin:round;stroke-width:0.72px;}</style></defs><g id="Layer_2" data-name="Layer 2"><g id="Stroke"><path class="cls-1" d="M41.49.36A27.68,27.68,0,0,0,33.36,20h0a44,44,0,0,1-12.9,31.13L.36,71.23l20.1,20.1a44,44,0,0,1,12.9,31.13h0a27.76,27.76,0,0,0,27.76,27.77h0a44,44,0,0,1,31.13,12.89l20.11,20.11,20.1-20.11a44.07,44.07,0,0,1,31.14-12.89h0a27.68,27.68,0,0,0,19.63-8.14l-15-15A79,79,0,0,1,56.5,15.36Z"/></g></g></svg>