<?xml version="1.0" encoding="utf-8"?>
<!-- Generator: Adobe Illustrator 25.4.1, SVG Export Plug-In . SVG Version: 6.00 Build 0)  -->
<svg version="1.1" id="Layer_1" xmlns="http://www.w3.org/2000/svg" xmlns:xlink="http://www.w3.org/1999/xlink" x="0px" y="0px"
	 viewBox="0 0 183.6 183.6" style="enable-background:new 0 0 183.6 183.6;" xml:space="preserve">
<style type="text/css">
	.st0{fill:none;stroke:#FBAE5C;stroke-width:1.2;stroke-linejoin:round;}
</style>
<g id="Layer_2_00000033359815372141914190000001973865973277937031_">
	<g id="Stroke">
		<path class="st0" d="M41.5,0.4c-5.2,5.2-8.1,12.3-8.1,19.6l0,0c0,11.7-4.6,22.9-12.9,31.1L0.4,71.2l20.1,20.1
			c8.3,8.3,12.9,19.5,12.9,31.1l0,0c0,15.3,12.4,27.8,27.8,27.8c0,0,0,0,0,0l0,0c11.7,0,22.9,4.6,31.1,12.9l20.1,20.1l20.1-20.1
			c8.3-8.3,19.5-12.9,31.1-12.9l0,0c7.4,0,14.4-2.9,19.6-8.1l-15-15c-30.9,30.9-80.9,30.9-111.7,0s-30.9-80.9,0-111.7L41.5,0.4z"/>
	</g>
</g>
</svg>
