<svg xmlns="http://www.w3.org/2000/svg" viewBox="0 0 248.43 570.68"><defs><style>.cls-1{fill:#fbae5c;}.cls-2,.cls-4{fill:none;}.cls-2,.cls-3,.cls-4{stroke:#fbae5c;stroke-width:0.8px;}.cls-2{stroke-miterlimit:10;}.cls-3{fill:#fff;}.cls-3,.cls-4{stroke-linejoin:round;}</style></defs><g id="Layer_2" data-name="Layer 2"><g id="Stroke"><path class="cls-1" d="M109.82,0a6.48,6.48,0,1,1,0,13,6.42,6.42,0,0,1-6.46-6.46A6.45,6.45,0,0,1,109.82,0Zm0,11.7a5.22,5.22,0,1,0-5.2-5.2A5.23,5.23,0,0,0,109.82,11.7Z"/><path class="cls-1" d="M123.55.52a.35.35,0,0,1,.35-.34h4.66A3.87,3.87,0,0,1,132.48,4a4,4,0,0,1-2.66,3.67l2.47,4.57a.34.34,0,0,1-.31.52h-.92a.32.32,0,0,1-.29-.16l-2.39-4.77h-3.44v4.59a.35.35,0,0,1-.34.34h-.7a.35.35,0,0,1-.35-.34Zm4.92,6.14A2.63,2.63,0,0,0,131.06,4a2.62,2.62,0,0,0-2.59-2.54H125V6.66Z"/><path class="cls-1" d="M25.11,235.87l3.68-8.07a.28.28,0,0,1,.2-.13h.12a.3.3,0,0,1,.21.13L33,235.87a.21.21,0,0,1-.21.31H32a.28.28,0,0,1-.28-.18L31,234.36H27.08c-.24.55-.5,1.09-.74,1.64a.28.28,0,0,1-.27.18h-.76A.21.21,0,0,1,25.11,235.87Zm5.43-2.54L29.07,230H29l-1.47,3.29Z"/><path class="cls-1" d="M36.58,228a.24.24,0,0,1,.23-.23h.79a.24.24,0,0,1,.23.23V236a.23.23,0,0,1-.23.22h-.79a.23.23,0,0,1-.23-.22Z"/><path class="cls-1" d="M42.56,228a.22.22,0,0,1,.21-.23h2.76a4.2,4.2,0,1,1,0,8.39H42.77a.21.21,0,0,1-.21-.22Zm2.8,7a3.06,3.06,0,0,0,0-6.11H43.78V235Z"/><path class="cls-1" d="M52.68,235.87l3.69-8.07a.27.27,0,0,1,.2-.13h.12a.27.27,0,0,1,.2.13l3.66,8.07a.21.21,0,0,1-.2.31h-.76a.27.27,0,0,1-.27-.18l-.75-1.64H54.65c-.24.55-.49,1.09-.73,1.64a.3.3,0,0,1-.28.18h-.75A.21.21,0,0,1,52.68,235.87Zm5.44-2.54L56.64,230h-.06l-1.46,3.29Z"/><path class="cls-1" d="M64.16,227.88a.22.22,0,0,1,.22-.21h.3l5.21,6h0V228a.23.23,0,0,1,.23-.23h.77a.23.23,0,0,1,.22.23v8.07a.21.21,0,0,1-.22.21h-.32l-5.2-6.18h0V236a.22.22,0,0,1-.23.22h-.76a.22.22,0,0,1-.22-.22Z"/><path class="cls-1" d="M80.35,235c.11-.15.21-.33.32-.49a.26.26,0,0,1,.4-.09,3.66,3.66,0,0,0,1.92.82,1.21,1.21,0,0,0,1.36-1.11c0-.72-.63-1.18-1.81-1.67s-2.19-1.15-2.19-2.54A2.34,2.34,0,0,1,83,227.67a4,4,0,0,1,2.22.71.27.27,0,0,1,.07.4c-.09.15-.2.32-.3.46a.28.28,0,0,1-.42.12,3.62,3.62,0,0,0-1.62-.6c-1,0-1.35.64-1.35,1.08,0,.68.53,1.1,1.52,1.51,1.39.56,2.58,1.22,2.58,2.69A2.45,2.45,0,0,1,83,236.3a3.87,3.87,0,0,1-2.58-.94C80.32,235.26,80.23,235.18,80.35,235Z"/><path class="cls-1" d="M88.61,235.87l3.68-8.07a.3.3,0,0,1,.21-.13h.12a.28.28,0,0,1,.2.13l3.66,8.07a.21.21,0,0,1-.21.31h-.75a.29.29,0,0,1-.28-.18l-.74-1.64H90.58c-.24.55-.49,1.09-.73,1.64a.31.31,0,0,1-.28.18h-.76A.21.21,0,0,1,88.61,235.87ZM94,233.33,92.57,230h-.06l-1.46,3.29Z"/><path class="cls-1" d="M100.08,228.08a.28.28,0,0,1,.29-.29h.7a.29.29,0,0,1,.28.29v3.32l3.39-3.49a.29.29,0,0,1,.22-.12h.9a.25.25,0,0,1,.17.43l-3.47,3.53,3.67,4a.25.25,0,0,1-.21.39h-1a.27.27,0,0,1-.22-.08l-3.49-3.93v3.73a.29.29,0,0,1-.28.28h-.7a.28.28,0,0,1-.29-.28Z"/><path class="cls-1" d="M109,235.87l3.68-8.07a.27.27,0,0,1,.2-.13H113a.3.3,0,0,1,.21.13l3.65,8.07a.21.21,0,0,1-.2.31h-.75a.28.28,0,0,1-.28-.18l-.74-1.64H111c-.24.55-.49,1.09-.73,1.64a.28.28,0,0,1-.27.18h-.76A.21.21,0,0,1,109,235.87Zm5.43-2.54L112.94,230h-.06l-1.46,3.29Z"/><path class="cls-1" d="M120.46,228a.23.23,0,0,1,.23-.23H124a2.58,2.58,0,0,1,2.61,2.56,2.66,2.66,0,0,1-1.77,2.44l1.64,3.05a.22.22,0,0,1-.2.34h-.94a.23.23,0,0,1-.19-.1l-1.6-3.18h-1.81V236a.23.23,0,0,1-.22.22h-.78a.22.22,0,0,1-.23-.22Zm3.39,3.85a1.49,1.49,0,0,0,1.46-1.49,1.47,1.47,0,0,0-1.46-1.43h-2.13v2.92Z"/><path class="cls-1" d="M132.48,232.14l-2.81-4a.23.23,0,0,1,.2-.35h.88a.25.25,0,0,1,.2.11l2.17,3,2.17-3a.25.25,0,0,1,.19-.11h.9a.22.22,0,0,1,.19.35l-2.84,4V236a.23.23,0,0,1-.23.22h-.79a.22.22,0,0,1-.23-.22Z"/><path class="cls-1" d="M138.37,235.87l3.69-8.07a.27.27,0,0,1,.2-.13h.12a.27.27,0,0,1,.2.13l3.66,8.07a.21.21,0,0,1-.2.31h-.76A.27.27,0,0,1,145,236l-.75-1.64h-3.92c-.24.55-.49,1.09-.73,1.64a.3.3,0,0,1-.28.18h-.75A.21.21,0,0,1,138.37,235.87Zm5.44-2.54L142.33,230h-.06l-1.46,3.29Z"/><path class="cls-1" d="M155.8,227.85a.23.23,0,0,1,.21-.18h.19a.25.25,0,0,1,.21.13l2.51,6.13h0l2.5-6.13a.22.22,0,0,1,.2-.13h.19a.23.23,0,0,1,.22.18l1.47,8.06c0,.17,0,.27-.21.27h-.78a.26.26,0,0,1-.23-.16l-.89-5.37h0l-2.16,5.52a.2.2,0,0,1-.2.13h-.22a.2.2,0,0,1-.2-.13l-2.18-5.52h0l-.87,5.37a.23.23,0,0,1-.21.16h-.78c-.17,0-.25-.1-.23-.27Z"/><path class="cls-1" d="M167.71,228a.24.24,0,0,1,.23-.23h.79a.24.24,0,0,1,.23.23V236a.23.23,0,0,1-.23.22h-.79a.23.23,0,0,1-.23-.22Z"/><path class="cls-1" d="M173.69,228a.23.23,0,0,1,.23-.23h.79a.24.24,0,0,1,.23.23v7h3.25a.22.22,0,0,1,.22.23V236a.22.22,0,0,1-.22.22h-4.27a.22.22,0,0,1-.23-.22Z"/><path class="cls-1" d="M182.08,228a.22.22,0,0,1,.22-.23h.8a.23.23,0,0,1,.22.23v7h3.25a.23.23,0,0,1,.23.23V236a.22.22,0,0,1-.23.22H182.3a.22.22,0,0,1-.22-.22Z"/><path class="cls-1" d="M190.46,228a.24.24,0,0,1,.23-.23h.79a.24.24,0,0,1,.23.23V236a.23.23,0,0,1-.23.22h-.79a.23.23,0,0,1-.23-.22Z"/><path class="cls-1" d="M196.44,228.08a.28.28,0,0,1,.29-.29h.69a.29.29,0,0,1,.29.29v3.32l3.38-3.49a.33.33,0,0,1,.23-.12h.9a.25.25,0,0,1,.17.43l-3.47,3.53,3.67,4a.25.25,0,0,1-.21.39h-1a.27.27,0,0,1-.22-.08l-3.49-3.93v3.73a.29.29,0,0,1-.29.28h-.69a.28.28,0,0,1-.29-.28Z"/><path class="cls-1" d="M206.41,228a.24.24,0,0,1,.23-.23h.79a.24.24,0,0,1,.23.23V236a.23.23,0,0,1-.23.22h-.79a.23.23,0,0,1-.23-.22Z"/><path class="cls-1" d="M212.39,227.88a.23.23,0,0,1,.23-.21h.3l5.2,6h0V228a.23.23,0,0,1,.23-.23h.77a.24.24,0,0,1,.23.23v8.07a.22.22,0,0,1-.23.21h-.31l-5.21-6.18h0V236a.22.22,0,0,1-.23.22h-.75a.23.23,0,0,1-.23-.22Z"/><path class="cls-1" d="M171.85,260l0,.55c0,.1-.1.15-.23.15-1.37-.08-2.9-1.08-2.9-4.72s1.53-4.64,2.9-4.72c.13,0,.22,0,.23.16l0,.55a.18.18,0,0,1-.13.22c-1.34.3-1.86,1.62-1.86,3.79s.52,3.49,1.86,3.8A.18.18,0,0,1,171.85,260Z"/><path class="cls-1" d="M174.17,251.6a.24.24,0,0,1,.23-.23h.69a.24.24,0,0,1,.23.23v3.51a3,3,0,0,1,1.15-.26,2.42,2.42,0,0,1,2.37,2.52,2.39,2.39,0,0,1-2.25,2.52,2.14,2.14,0,0,1-1.52-.68l-.1.35c0,.12-.1.21-.21.21h-.36a.24.24,0,0,1-.23-.23Zm2.28,7.25a1.35,1.35,0,0,0,1.27-1.48,1.39,1.39,0,0,0-1.37-1.48,2,2,0,0,0-1,.28v2A1.28,1.28,0,0,0,176.45,258.85Z"/><path class="cls-1" d="M181.84,258.22a.84.84,0,1,1-.83.84A.83.83,0,0,1,181.84,258.22Z"/><path class="cls-1" d="M190,253.44l-1,.46a.18.18,0,0,1-.26-.08l-.15-.42a.24.24,0,0,1,0-.24l1.7-1.55H191a.22.22,0,0,1,.21.23v7.7a.22.22,0,0,1-.21.23h-.73a.23.23,0,0,1-.23-.23Z"/><path class="cls-1" d="M195.22,259c.55-.18,2.47-1.17,2.86-2.63a3.52,3.52,0,0,1-1.59.43,2.49,2.49,0,0,1-2.52-2.61,2.73,2.73,0,0,1,2.69-2.74c1.9,0,2.81,1.51,2.81,3.37,0,3.34-2.86,4.75-4,5.18a.22.22,0,0,1-.3-.15l-.2-.5C194.94,259.18,195,259.05,195.22,259Zm3.09-4.09c.11-1-.35-2.38-1.65-2.38a1.64,1.64,0,0,0-1.59,1.65,1.62,1.62,0,0,0,1.6,1.65A1.86,1.86,0,0,0,198.31,254.88Z"/><path class="cls-1" d="M202.9,259c.55-.18,2.47-1.17,2.86-2.63a3.52,3.52,0,0,1-1.59.43,2.5,2.5,0,0,1-2.52-2.61,2.73,2.73,0,0,1,2.69-2.74c1.9,0,2.81,1.51,2.81,3.37,0,3.34-2.86,4.75-4,5.18a.21.21,0,0,1-.3-.15l-.21-.5C202.62,259.18,202.67,259.05,202.9,259Zm3.09-4.09c.11-1-.35-2.38-1.65-2.38a1.64,1.64,0,0,0-1.59,1.65,1.62,1.62,0,0,0,1.6,1.65A1.86,1.86,0,0,0,206,254.88Z"/><path class="cls-1" d="M209.65,258.48c.16-.13.29-.29.45-.42s.19-.11.28,0a2.43,2.43,0,0,0,1.67.78,1.65,1.65,0,0,0,1.63-1.69,1.49,1.49,0,0,0-1.66-1.53h-1.84a.4.4,0,0,1-.37-.42v-3.36a.23.23,0,0,1,.23-.23h3.7a.23.23,0,0,1,.23.23v.59a.22.22,0,0,1-.23.22h-2.85v1.9h1.21a2.47,2.47,0,0,1,2.76,2.59,2.76,2.76,0,0,1-2.84,2.75,3,3,0,0,1-2.34-1C209.52,258.71,209.51,258.63,209.65,258.48Z"/><path class="cls-1" d="M216.9,259.79c1.34-.31,1.87-1.62,1.87-3.8s-.53-3.49-1.87-3.79a.19.19,0,0,1-.13-.22l0-.55c0-.11.08-.17.21-.16,1.37.08,2.9,1.07,2.9,4.72s-1.53,4.64-2.9,4.72c-.13,0-.21,0-.21-.15l0-.57A.18.18,0,0,1,216.9,259.79Z"/><path class="cls-1" d="M44.31,292.12a.22.22,0,0,1,.21-.23h2.76a4.2,4.2,0,1,1,0,8.39H44.52a.21.21,0,0,1-.21-.22Zm2.8,7a3.06,3.06,0,0,0,0-6.11H45.53v6.11Z"/><path class="cls-1" d="M54.63,292.84a.69.69,0,0,1,.68-.71.7.7,0,1,1,0,1.4A.68.68,0,0,1,54.63,292.84Zm.13,2.87a.23.23,0,0,1,.23-.22h.68a.23.23,0,0,1,.23.22v4.35a.23.23,0,0,1-.23.22H55a.23.23,0,0,1-.23-.22Z"/><path class="cls-1" d="M59.93,298.63a1.91,1.91,0,0,1-.37-1.16,2.05,2.05,0,0,1,2.06-2.1h2.1a.22.22,0,0,1,.23.22v.3c0,.09-.05.2-.13.21l-.66.18a1.6,1.6,0,0,1,.51,1.28,2,2,0,0,1-2,2,3.42,3.42,0,0,1-1-.2.67.67,0,0,0-.49.59.5.5,0,0,0,.57.49H62.3A1.67,1.67,0,0,1,64.19,302c0,1.06-1,2-2.56,2s-2.37-.86-2.37-1.64a1.32,1.32,0,0,1,.71-1.13v0a1.24,1.24,0,0,1-.89-1.2A1.65,1.65,0,0,1,59.93,298.63ZM61.62,303c.73,0,1.37-.37,1.37-.95,0-.19-.12-.68-.9-.68-.35,0-.71,0-1.06,0-.07,0-.66.22-.66.76S60.89,303,61.62,303Zm1-5.53a1,1,0,0,0-1-1.1,1.1,1.1,0,0,0,0,2.2A1,1,0,0,0,62.65,297.49Z"/><path class="cls-1" d="M67.05,292.84a.69.69,0,0,1,.68-.71.7.7,0,1,1,0,1.4A.68.68,0,0,1,67.05,292.84Zm.13,2.87a.23.23,0,0,1,.23-.22h.68a.23.23,0,0,1,.23.22v4.35a.23.23,0,0,1-.23.22h-.68a.23.23,0,0,1-.23-.22Z"/><path class="cls-1" d="M72.29,296.48h-.5a.23.23,0,0,1-.23-.23v-.54a.21.21,0,0,1,.23-.22h.5v-1.33a.24.24,0,0,1,.23-.23h.68a.22.22,0,0,1,.22.22v1.35h1.22a.22.22,0,0,1,.23.22v.54a.23.23,0,0,1-.23.23H73.42v2.38c0,.4.15.48.38.48a2,2,0,0,0,.73-.22.18.18,0,0,1,.28.11l.21.53a.19.19,0,0,1-.1.28,3.55,3.55,0,0,1-1.41.36c-.94,0-1.22-.57-1.22-1.42Z"/><path class="cls-1" d="M79.8,297.25a3.51,3.51,0,0,1,1,.14c0-.75-.13-1.05-.74-1.05a5.21,5.21,0,0,0-1.35.21c-.14,0-.23-.06-.26-.19l-.1-.44a.22.22,0,0,1,.16-.28,5.18,5.18,0,0,1,1.65-.27c1.54,0,1.68.93,1.68,2.13v2.56a.23.23,0,0,1-.23.22h-.33c-.11,0-.16,0-.21-.16l-.12-.33a2.06,2.06,0,0,1-1.47.61,1.49,1.49,0,0,1-1.55-1.6C77.88,297.92,78.58,297.25,79.8,297.25Zm-.14,2.3a1.43,1.43,0,0,0,1.08-.6v-.76a1.75,1.75,0,0,0-.84-.2c-.58,0-1,.3-1,.79A.71.71,0,0,0,79.66,299.55Z"/><path class="cls-1" d="M85.41,292.12a.23.23,0,0,1,.22-.23h.69a.24.24,0,0,1,.23.23v7.94a.23.23,0,0,1-.23.22h-.69a.22.22,0,0,1-.22-.22Z"/><path class="cls-1" d="M90.84,298.74c.45,0,1,.3,1,1.33a3.12,3.12,0,0,1-1.19,2.4.19.19,0,0,1-.29,0l-.18-.18a.2.2,0,0,1,.06-.3,2.24,2.24,0,0,0,.85-1.63,1.46,1.46,0,0,1-.3,0,.83.83,0,0,1-.82-.82A.85.85,0,0,1,90.84,298.74Z"/><path class="cls-1" d="M100.36,292.12a.24.24,0,0,1,.22-.23h.8a.22.22,0,0,1,.22.23v3.34H106v-3.34a.23.23,0,0,1,.23-.23H107a.24.24,0,0,1,.23.23v7.94a.23.23,0,0,1-.23.22h-.79a.22.22,0,0,1-.23-.22v-3.47H101.6v3.47a.22.22,0,0,1-.22.22h-.8a.23.23,0,0,1-.22-.22Z"/><path class="cls-1" d="M112.61,297.25a3.61,3.61,0,0,1,1,.14c0-.75-.14-1.05-.75-1.05a5.2,5.2,0,0,0-1.34.21c-.14,0-.23-.06-.26-.19l-.1-.44a.22.22,0,0,1,.16-.28,5.11,5.11,0,0,1,1.65-.27c1.54,0,1.68.93,1.68,2.13v2.56a.23.23,0,0,1-.23.22H114c-.11,0-.16,0-.21-.16l-.12-.33a2.06,2.06,0,0,1-1.47.61,1.49,1.49,0,0,1-1.55-1.6C110.69,297.92,111.39,297.25,112.61,297.25Zm-.15,2.3a1.41,1.41,0,0,0,1.08-.6v-.76a1.71,1.71,0,0,0-.84-.2c-.57,0-1,.3-1,.79A.72.72,0,0,0,112.46,299.55Z"/><path class="cls-1" d="M118.21,295.71a.23.23,0,0,1,.23-.22h.35a.22.22,0,0,1,.2.16l.13.41a1.73,1.73,0,0,1,1.41-.69c.45,0,1,.12.87.44l-.28.59a.21.21,0,0,1-.29.11,1,1,0,0,0-.41-.09,1.27,1.27,0,0,0-1.08.59v3.05c0,.2-.13.22-.32.22h-.58a.23.23,0,0,1-.23-.22Z"/><path class="cls-1" d="M126.32,295.37a2.86,2.86,0,0,1,1.16.26v-3.51a.23.23,0,0,1,.22-.23h.7a.24.24,0,0,1,.23.23v7.94a.23.23,0,0,1-.23.22H128c-.11,0-.18-.08-.22-.2l-.09-.35a2.16,2.16,0,0,1-1.53.67,2.38,2.38,0,0,1-2.24-2.51A2.42,2.42,0,0,1,126.32,295.37Zm0,4a1.3,1.3,0,0,0,1.14-.72V296.7a2,2,0,0,0-1-.29,1.39,1.39,0,0,0-1.36,1.48A1.35,1.35,0,0,0,126.35,299.37Z"/><path class="cls-1" d="M132.33,297.6v-.52a.22.22,0,0,1,.22-.23h2.59a.22.22,0,0,1,.23.23v.52a.21.21,0,0,1-.23.21h-2.59A.21.21,0,0,1,132.33,297.6Z"/><path class="cls-1" d="M139.27,292.12a.23.23,0,0,1,.23-.23h3.26a2.59,2.59,0,0,1,2.62,2.57,2.66,2.66,0,0,1-1.78,2.43l1.65,3.05a.22.22,0,0,1-.21.34h-.93a.26.26,0,0,1-.2-.1L142.32,297h-1.81v3.06a.23.23,0,0,1-.23.22h-.78a.22.22,0,0,1-.23-.22Zm3.4,3.85a1.49,1.49,0,0,0,1.46-1.49,1.47,1.47,0,0,0-1.46-1.43h-2.14V296Z"/><path class="cls-1" d="M150.62,295.37a2.52,2.52,0,1,1-2.42,2.5A2.48,2.48,0,0,1,150.62,295.37Zm0,4a1.43,1.43,0,0,0,1.36-1.5,1.36,1.36,0,1,0-2.71,0A1.43,1.43,0,0,0,150.62,299.37Z"/><path class="cls-1" d="M156.28,295.71a.23.23,0,0,1,.23-.22h.68a.23.23,0,0,1,.23.22v2.46c0,.78.37,1.2,1,1.2a1.28,1.28,0,0,0,1.19-.79v-2.87c0-.19.09-.22.26-.22h.63a.22.22,0,0,1,.22.22v4.35a.22.22,0,0,1-.22.22h-.34c-.12,0-.18-.08-.22-.19l-.12-.35a2.13,2.13,0,0,1-1.58.66c-1.44,0-1.94-1-1.94-2.26Z"/><path class="cls-1" d="M164.37,295.71a.22.22,0,0,1,.22-.22h.35a.19.19,0,0,1,.19.14l.15.41a2.43,2.43,0,0,1,1.68-.67c1.46,0,2,1,2,2.28v2.41a.23.23,0,0,1-.23.22h-.68a.22.22,0,0,1-.23-.22V297.6c0-.77-.37-1.19-1-1.19a1.59,1.59,0,0,0-1.33.72v2.93c0,.15-.07.22-.27.22h-.63a.22.22,0,0,1-.22-.22Z"/><path class="cls-1" d="M174.58,295.37a2.85,2.85,0,0,1,1.15.26v-3.51a.24.24,0,0,1,.23-.23h.69a.24.24,0,0,1,.23.23v7.94a.23.23,0,0,1-.23.22h-.36c-.11,0-.18-.08-.21-.2l-.1-.35a2.16,2.16,0,0,1-1.52.67,2.38,2.38,0,0,1-2.25-2.51A2.42,2.42,0,0,1,174.58,295.37Zm0,4a1.3,1.3,0,0,0,1.14-.72V296.7a2,2,0,0,0-1-.29,1.39,1.39,0,0,0-1.37,1.48A1.35,1.35,0,0,0,174.6,299.37Z"/><path class="cls-1" d="M185.67,292.12a.22.22,0,0,1,.22-.23h2.69a2.18,2.18,0,0,1,1.25,4.12,2.2,2.2,0,0,1,1.5,2,2.4,2.4,0,0,1-2.62,2.31h-2.82a.22.22,0,0,1-.22-.22Zm3,7.06a1.27,1.27,0,0,0,1.29-1.31,1.37,1.37,0,0,0-1.47-1.26h-1.64v2.57Zm-.19-3.65a1.2,1.2,0,0,0,1.23-1.28,1.15,1.15,0,0,0-1.23-1.23h-1.62v2.51Z"/><path class="cls-1" d="M194.67,295.71a.22.22,0,0,1,.22-.22h.35a.22.22,0,0,1,.2.16l.14.41a1.69,1.69,0,0,1,1.4-.69c.46,0,1,.12.87.44l-.28.59a.21.21,0,0,1-.29.11,1,1,0,0,0-.41-.09,1.29,1.29,0,0,0-1.08.59v3.05c0,.2-.13.22-.32.22h-.58a.22.22,0,0,1-.22-.22Z"/><path class="cls-1" d="M200.72,295.71a.23.23,0,0,1,.23-.22h.69a.22.22,0,0,1,.22.22v2.46c0,.78.38,1.2,1,1.2a1.25,1.25,0,0,0,1.18-.79v-2.87c0-.19.1-.22.27-.22h.62a.23.23,0,0,1,.23.22v4.35a.23.23,0,0,1-.23.22h-.33c-.12,0-.18-.08-.22-.19l-.12-.35a2.15,2.15,0,0,1-1.58.66c-1.44,0-1.95-1-1.95-2.26Z"/><path class="cls-1" d="M208.52,299.66l.26-.47a.21.21,0,0,1,.3-.06,2.45,2.45,0,0,0,1.11.31c.36,0,.59-.14.59-.4s-.26-.48-.92-.78-1.37-.78-1.37-1.57c0-.6.49-1.32,1.64-1.32a2.68,2.68,0,0,1,1.42.37.26.26,0,0,1,.09.35l-.21.4a.25.25,0,0,1-.31.1,2.78,2.78,0,0,0-1-.25c-.41,0-.54.18-.54.36s.3.44.77.65c.88.38,1.6.75,1.6,1.65a1.59,1.59,0,0,1-1.78,1.4,2.47,2.47,0,0,1-1.58-.49A.2.2,0,0,1,208.52,299.66Z"/><path class="cls-1" d="M215.21,292.12a.24.24,0,0,1,.23-.23h.69a.24.24,0,0,1,.23.23v3.76a2.5,2.5,0,0,1,1.44-.51c1.35,0,2,1,2,2.28v2.41a.23.23,0,0,1-.23.22h-.67a.22.22,0,0,1-.23-.22v-2.44c0-.78-.39-1.21-1-1.21a1.47,1.47,0,0,0-1.3.76v2.89a.21.21,0,0,1-.24.22h-.68a.23.23,0,0,1-.23-.22Z"/><path class="cls-1" d="M14,324.1l0,.56c0,.1-.1.15-.23.15-1.37-.08-2.91-1.08-2.91-4.72s1.54-4.64,2.91-4.72a.19.19,0,0,1,.23.16l0,.55a.18.18,0,0,1-.13.22c-1.35.3-1.86,1.62-1.86,3.79s.51,3.49,1.86,3.8A.18.18,0,0,1,14,324.1Z"/><path class="cls-1" d="M16.48,321.85v-.72l4.44-5.48a.29.29,0,0,1,.18-.07h.44a.23.23,0,0,1,.23.23v5.3h1a.22.22,0,0,1,.23.21v.51a.22.22,0,0,1-.23.22h-1v1.59a.24.24,0,0,1-.23.23h-.71a.23.23,0,0,1-.22-.23v-1.56H16.71A.23.23,0,0,1,16.48,321.85Zm4.18-.77v-3.52l-2.89,3.52Z"/><path class="cls-1" d="M26.32,319.79c0-2.63,1.08-4.2,3-4.2s3,1.57,3,4.2-1.08,4.2-3,4.2S26.32,322.41,26.32,319.79Zm4.72,0c0-2-.63-3.1-1.75-3.1s-1.76,1.13-1.76,3.1.64,3.1,1.76,3.1S31,321.78,31,319.79Z"/><path class="cls-1" d="M37.11,327.24c0,.13-.09.22-.26.22h-.67a.22.22,0,0,1-.22-.22V319.3a.23.23,0,0,1,.22-.23h.36a.22.22,0,0,1,.21.15l.12.32a2,2,0,0,1,1.46-.59,2.53,2.53,0,0,1,0,5,2.33,2.33,0,0,1-1.17-.33Zm1-4.29a1.39,1.39,0,0,0,1.36-1.47A1.36,1.36,0,0,0,38.19,320a1.23,1.23,0,0,0-1.11.7v1.92A1.81,1.81,0,0,0,38.14,323Z"/><path class="cls-1" d="M45,321.42l-1.51-2a.19.19,0,0,1,.15-.32h.78a.33.33,0,0,1,.28.13l1,1.38h0l1-1.38a.32.32,0,0,1,.27-.13h.8c.2,0,.26.15.14.31l-1.51,2,1.52,2.14c.11.16,0,.32-.14.32H47a.32.32,0,0,1-.25-.15l-1.05-1.49h0l-1.08,1.54a.21.21,0,0,1-.19.1h-.8c-.21,0-.25-.16-.15-.32Z"/><path class="cls-1" d="M50.83,323.89c1.35-.31,1.88-1.62,1.88-3.8s-.53-3.49-1.88-3.79a.19.19,0,0,1-.13-.22l0-.55c0-.11.08-.17.21-.16,1.37.08,2.91,1.07,2.91,4.72s-1.54,4.64-2.91,4.72c-.13,0-.21-.05-.21-.15l0-.57A.18.18,0,0,1,50.83,323.89Z"/><path class="cls-1" d="M58,322.32c.45,0,1,.3,1,1.33a3.11,3.11,0,0,1-1.19,2.4.19.19,0,0,1-.29,0l-.18-.18a.2.2,0,0,1,.06-.3,2.21,2.21,0,0,0,.86-1.63,1.43,1.43,0,0,1-.3.05.84.84,0,0,1-.83-.83A.85.85,0,0,1,58,322.32Z"/><path class="cls-1" d="M66.84,322.63l.47-.43a.2.2,0,0,1,.32,0,2.42,2.42,0,0,0,1.64.75,1.38,1.38,0,0,0,1.49-1.3c0-.72-.61-1.4-1.89-1.4H68.2A.23.23,0,0,1,68,320v-.52c0-.18.07-.25.24-.25h.67c1.13,0,1.69-.58,1.69-1.29a1.31,1.31,0,0,0-1.36-1.3,1.83,1.83,0,0,0-1.4.67.2.2,0,0,1-.31,0l-.44-.39a.2.2,0,0,1,0-.31,3.25,3.25,0,0,1,2.22-1.06,2.27,2.27,0,0,1,2.5,2.19,2.2,2.2,0,0,1-1.23,1.89v0a2.36,2.36,0,0,1,1.45,2,2.42,2.42,0,0,1-2.71,2.3,3,3,0,0,1-2.46-1.07A.21.21,0,0,1,66.84,322.63Z"/><path class="cls-1" d="M75.59,319.79c0-2.63,1.08-4.2,3-4.2s3,1.57,3,4.2-1.08,4.2-3,4.2S75.59,322.41,75.59,319.79Zm4.73,0c0-2-.64-3.1-1.76-3.1s-1.76,1.13-1.76,3.1.64,3.1,1.76,3.1S80.32,321.78,80.32,319.79Z"/><path class="cls-1" d="M84.78,317a1.62,1.62,0,1,1,1.62,1.62A1.61,1.61,0,0,1,84.78,317Zm2.37,0a.75.75,0,0,0-1.5,0,.75.75,0,1,0,1.5,0Zm2.8-1.37a.31.31,0,0,1,.21-.12h.39a.21.21,0,0,1,.2.32l-4.13,8a.4.4,0,0,1-.21.12H86a.22.22,0,0,1-.2-.33Zm.32,5.17a1.62,1.62,0,1,1-1.61,1.62A1.62,1.62,0,0,1,90.27,320.76Zm0,2.37a.75.75,0,1,0-.76-.75A.75.75,0,0,0,90.27,323.13Z"/><path class="cls-1" d="M100.08,319.3a.24.24,0,0,1,.23-.23h.34a.22.22,0,0,1,.2.14l.13.41a2.22,2.22,0,0,1,1.58-.67,1.77,1.77,0,0,1,1.55.77,2.63,2.63,0,0,1,1.74-.77c1.46,0,2,1,2,2.28v2.41a.23.23,0,0,1-.23.23h-.67a.23.23,0,0,1-.23-.23v-2.46c0-.76-.35-1.19-1-1.19a1.77,1.77,0,0,0-1.24.59,2.78,2.78,0,0,1,0,.57v2.49a.24.24,0,0,1-.23.23h-.64a.22.22,0,0,1-.22-.23v-2.46c0-.77-.35-1.19-1-1.19a1.38,1.38,0,0,0-1.19.72v2.93a.24.24,0,0,1-.23.23h-.67a.24.24,0,0,1-.23-.23Z"/><path class="cls-1" d="M111.3,316.42a.69.69,0,0,1,.69-.71.7.7,0,1,1,0,1.4A.69.69,0,0,1,111.3,316.42Zm.13,2.88a.24.24,0,0,1,.23-.23h.69a.23.23,0,0,1,.22.23v4.34a.23.23,0,0,1-.22.23h-.69a.24.24,0,0,1-.23-.23Z"/><path class="cls-1" d="M116.23,319.3a.24.24,0,0,1,.23-.23h.35a.19.19,0,0,1,.19.14l.15.41a2.39,2.39,0,0,1,1.67-.67c1.47,0,2,1,2,2.28v2.41a.24.24,0,0,1-.23.23h-.68a.23.23,0,0,1-.23-.23v-2.46c0-.77-.37-1.19-1-1.19a1.59,1.59,0,0,0-1.33.72v2.93c0,.15-.07.23-.28.23h-.62a.24.24,0,0,1-.23-.23Z"/><path class="cls-1" d="M124.3,316.42a.69.69,0,0,1,.68-.71.7.7,0,1,1,0,1.4A.68.68,0,0,1,124.3,316.42Zm.13,2.88a.24.24,0,0,1,.23-.23h.68a.24.24,0,0,1,.23.23v4.34a.24.24,0,0,1-.23.23h-.68a.24.24,0,0,1-.23-.23Z"/><path class="cls-1" d="M129.23,319.3a.24.24,0,0,1,.23-.23h.33a.22.22,0,0,1,.21.14l.13.41a2.22,2.22,0,0,1,1.58-.67,1.77,1.77,0,0,1,1.55.77A2.63,2.63,0,0,1,135,319c1.46,0,2,1,2,2.28v2.41a.23.23,0,0,1-.23.23h-.67a.23.23,0,0,1-.23-.23v-2.46c0-.76-.35-1.19-1-1.19a1.71,1.71,0,0,0-1.23.59,4,4,0,0,1,0,.57v2.49a.23.23,0,0,1-.22.23h-.64a.23.23,0,0,1-.23-.23v-2.46c0-.77-.34-1.19-1-1.19a1.36,1.36,0,0,0-1.18.72v2.93a.24.24,0,0,1-.23.23h-.67a.24.24,0,0,1-.23-.23Z"/><path class="cls-1" d="M140.51,319.3a.24.24,0,0,1,.23-.23h.68a.24.24,0,0,1,.23.23v2.45c0,.78.37,1.2,1,1.2a1.28,1.28,0,0,0,1.19-.79V319.3c0-.2.1-.23.26-.23h.63a.24.24,0,0,1,.23.23v4.34a.24.24,0,0,1-.23.23h-.34c-.12,0-.18-.09-.21-.2l-.12-.34a2.23,2.23,0,0,1-1.59.66c-1.44,0-1.94-1-1.94-2.27Z"/><path class="cls-1" d="M148.6,319.3a.24.24,0,0,1,.23-.23h.33a.22.22,0,0,1,.21.14l.13.41a2.2,2.2,0,0,1,1.58-.67,1.77,1.77,0,0,1,1.55.77,2.61,2.61,0,0,1,1.74-.77c1.46,0,2,1,2,2.28v2.41a.23.23,0,0,1-.23.23h-.67a.23.23,0,0,1-.23-.23v-2.46c0-.76-.35-1.19-1-1.19a1.71,1.71,0,0,0-1.23.59,4,4,0,0,1,0,.57v2.49a.23.23,0,0,1-.23.23h-.63a.23.23,0,0,1-.23-.23v-2.46c0-.77-.35-1.19-1-1.19a1.38,1.38,0,0,0-1.19.72v2.93a.23.23,0,0,1-.22.23h-.67a.24.24,0,0,1-.23-.23Z"/><path class="cls-1" d="M166.7,319a3.06,3.06,0,0,1,1.16.26V315.7a.23.23,0,0,1,.22-.23h.7a.24.24,0,0,1,.23.23v7.94a.24.24,0,0,1-.23.23h-.36c-.11,0-.18-.09-.22-.21l-.09-.35a2.15,2.15,0,0,1-1.53.68,2.38,2.38,0,0,1-2.24-2.52A2.42,2.42,0,0,1,166.7,319Zm0,4a1.28,1.28,0,0,0,1.14-.72v-2a2,2,0,0,0-1.05-.29,1.39,1.39,0,0,0-1.36,1.48A1.35,1.35,0,0,0,166.73,323Z"/><path class="cls-1" d="M172.54,316.42a.69.69,0,0,1,.68-.71.7.7,0,1,1,0,1.4A.68.68,0,0,1,172.54,316.42Zm.13,2.88a.24.24,0,0,1,.23-.23h.68a.24.24,0,0,1,.23.23v4.34a.24.24,0,0,1-.23.23h-.68a.24.24,0,0,1-.23-.23Z"/><path class="cls-1" d="M179,320.83a3.61,3.61,0,0,1,1,.14c0-.75-.13-1.05-.75-1.05a4.73,4.73,0,0,0-1.34.22c-.14,0-.23-.06-.26-.2l-.1-.44a.22.22,0,0,1,.16-.28,5.11,5.11,0,0,1,1.65-.27c1.54,0,1.68.93,1.68,2.13v2.56a.24.24,0,0,1-.23.23h-.33c-.11,0-.16-.05-.21-.17l-.12-.33a2,2,0,0,1-1.47.62,1.5,1.5,0,0,1-1.55-1.61C177.12,321.5,177.82,320.83,179,320.83Zm-.14,2.3a1.43,1.43,0,0,0,1.08-.6v-.76a1.79,1.79,0,0,0-.84-.2c-.58,0-1,.3-1,.8A.72.72,0,0,0,178.9,323.13Z"/><path class="cls-1" d="M184.65,319.3a.23.23,0,0,1,.22-.23h.34a.2.2,0,0,1,.2.14l.13.41a2.23,2.23,0,0,1,1.59-.67,1.75,1.75,0,0,1,1.54.77,2.66,2.66,0,0,1,1.74-.77c1.47,0,2,1,2,2.28v2.41a.23.23,0,0,1-.23.23h-.67a.22.22,0,0,1-.22-.23v-2.46c0-.76-.35-1.19-1-1.19a1.77,1.77,0,0,0-1.24.59,2.78,2.78,0,0,1,0,.57v2.49a.24.24,0,0,1-.23.23h-.63a.23.23,0,0,1-.23-.23v-2.46c0-.77-.35-1.19-1-1.19a1.38,1.38,0,0,0-1.19.72v2.93a.24.24,0,0,1-.23.23h-.67a.23.23,0,0,1-.22-.23Z"/><path class="cls-1" d="M198.05,319a2.16,2.16,0,0,1,2.2,2.22c0,.08,0,.24,0,.32a.22.22,0,0,1-.22.2h-3.26a1.4,1.4,0,0,0,1.38,1.29,2,2,0,0,0,1.07-.35c.14-.08.23-.13.32,0l.34.45a.19.19,0,0,1,0,.32,2.73,2.73,0,0,1-1.77.6,2.52,2.52,0,0,1,0-5Zm1.09,2a1.14,1.14,0,0,0-1.1-1.07,1.22,1.22,0,0,0-1.23,1.07Z"/><path class="cls-1" d="M203.82,320.06h-.5a.22.22,0,0,1-.23-.22v-.54a.22.22,0,0,1,.23-.23h.5v-1.33a.24.24,0,0,1,.23-.23h.68a.22.22,0,0,1,.22.22v1.35h1.22a.22.22,0,0,1,.23.23v.54a.22.22,0,0,1-.23.22H205v2.38c0,.41.15.48.38.48a2,2,0,0,0,.73-.22.18.18,0,0,1,.28.11l.21.53a.2.2,0,0,1-.1.29A3.73,3.73,0,0,1,205,324c-.94,0-1.22-.58-1.22-1.43Z"/><path class="cls-1" d="M211.81,319a2.16,2.16,0,0,1,2.21,2.22,1.73,1.73,0,0,1,0,.32.21.21,0,0,1-.21.2h-3.26A1.39,1.39,0,0,0,211.9,323a2,2,0,0,0,1.06-.35c.15-.08.23-.13.33,0l.33.45a.19.19,0,0,1,0,.32,2.76,2.76,0,0,1-1.78.6,2.52,2.52,0,0,1,0-5Zm1.09,2a1.12,1.12,0,0,0-1.1-1.07,1.21,1.21,0,0,0-1.22,1.07Z"/><path class="cls-1" d="M217.27,319.3a.24.24,0,0,1,.23-.23h.35a.22.22,0,0,1,.2.17l.13.4a1.73,1.73,0,0,1,1.41-.69c.45,0,1,.12.87.44l-.29.59a.2.2,0,0,1-.28.11,1.08,1.08,0,0,0-.41-.09,1.27,1.27,0,0,0-1.08.59v3.05c0,.2-.13.23-.32.23h-.58a.24.24,0,0,1-.23-.23Z"/><path class="cls-1" d="M0,117.24a4.86,4.86,0,0,1,2.6-4.16c.17-.08.3-.12.38,0l.13.25c.08.17.08.29-.13.38A4.06,4.06,0,0,0,.8,117.24a4.54,4.54,0,0,0,.54,2.4,1.18,1.18,0,0,1,.84-.42,1,1,0,0,1,1,1,.94.94,0,0,1-1,.93C1.3,121.11,0,120.06,0,117.24Zm7.48,0a4.86,4.86,0,0,1,2.6-4.16c.17-.08.3-.12.38,0l.13.25c.08.17.08.29-.13.38a4.06,4.06,0,0,0-2.18,3.48,4.54,4.54,0,0,0,.54,2.4,1.16,1.16,0,0,1,.84-.42,1,1,0,0,1,1,1,.94.94,0,0,1-1,.93C8.78,121.11,7.48,120.06,7.48,117.24Z"/><path class="cls-1" d="M225.64,173.19c-.09-.17-.09-.3.12-.38a4.06,4.06,0,0,0,2.19-3.49,4.48,4.48,0,0,0-.55-2.39,1.16,1.16,0,0,1-.84.42,1,1,0,0,1-1-1,.94.94,0,0,1,1-.92c.88,0,2.19,1,2.19,3.86a4.86,4.86,0,0,1-2.61,4.16c-.17.09-.29.13-.38,0Zm7.47,0c-.08-.17-.08-.3.13-.38a4.06,4.06,0,0,0,2.18-3.49,4.5,4.5,0,0,0-.54-2.39,1.16,1.16,0,0,1-.84.42,1,1,0,0,1-1-1,.94.94,0,0,1,1-.92c.88,0,2.18,1,2.18,3.86a4.86,4.86,0,0,1-2.6,4.16c-.17.09-.3.13-.38,0Z"/><line class="cls-2" x1="85.56" y1="525.28" x2="70.56" y2="540.28"/><line class="cls-2" x1="85.56" y1="540.28" x2="70.56" y2="525.28"/><path class="cls-1" d="M50.41,481.77a4.2,4.2,0,0,1,2.9,1.11.22.22,0,0,1,0,.34l-.53.54c-.08.11-.19.11-.3,0a3.24,3.24,0,0,0-2.07-.8,3.11,3.11,0,0,0,0,6.22,3.2,3.2,0,0,0,2.06-.79.21.21,0,0,1,.29,0l.55.54a.22.22,0,0,1,0,.32,4.11,4.11,0,0,1-2.91,1.16,4.32,4.32,0,1,1,0-8.63Z"/><path class="cls-1" d="M58.83,485.37a2.52,2.52,0,1,1-2.42,2.5A2.47,2.47,0,0,1,58.83,485.37Zm0,4a1.43,1.43,0,0,0,1.36-1.5,1.36,1.36,0,1,0-2.71,0A1.43,1.43,0,0,0,58.83,489.37Z"/><path class="cls-1" d="M64.67,485.71a.22.22,0,0,1,.22-.22h.69a.23.23,0,0,1,.23.22v2.46c0,.78.37,1.2,1,1.2a1.28,1.28,0,0,0,1.19-.79v-2.87c0-.19.09-.22.26-.22h.62a.23.23,0,0,1,.23.22v4.35a.23.23,0,0,1-.23.22h-.33c-.12,0-.18-.08-.22-.19l-.12-.35a2.15,2.15,0,0,1-1.58.66c-1.44,0-1.94-1-1.94-2.26Z"/><path class="cls-1" d="M72.93,485.71a.23.23,0,0,1,.23-.22h.35a.22.22,0,0,1,.2.16l.13.41a1.73,1.73,0,0,1,1.41-.69c.45,0,1,.12.87.44l-.28.59a.21.21,0,0,1-.29.11,1,1,0,0,0-.41-.09,1.27,1.27,0,0,0-1.08.59v3.05c0,.2-.13.22-.32.22h-.58a.23.23,0,0,1-.23-.22Z"/><path class="cls-1" d="M79.56,486.48h-.51a.22.22,0,0,1-.22-.23v-.54a.21.21,0,0,1,.22-.22h.51v-1.33a.24.24,0,0,1,.23-.23h.68a.21.21,0,0,1,.21.22v1.35h1.23a.22.22,0,0,1,.23.22v.54a.23.23,0,0,1-.23.23H80.68v2.38c0,.4.16.48.39.48a2,2,0,0,0,.73-.22.18.18,0,0,1,.28.11l.21.53a.19.19,0,0,1-.11.28,3.49,3.49,0,0,1-1.4.36c-1,0-1.22-.57-1.22-1.42Z"/><path class="cls-1" d="M87.73,485.37a2.16,2.16,0,0,1,2.21,2.21c0,.09,0,.25,0,.33a.22.22,0,0,1-.21.2H86.43a1.4,1.4,0,0,0,1.38,1.29,2.12,2.12,0,0,0,1.07-.35c.14-.09.23-.13.32,0l.34.45c.08.1.12.19,0,.31a2.78,2.78,0,0,1-1.78.6,2.52,2.52,0,0,1,0-5Zm1.09,2a1.14,1.14,0,0,0-1.1-1.07,1.22,1.22,0,0,0-1.23,1.07Z"/><path class="cls-1" d="M93.08,489.66l.25-.47a.21.21,0,0,1,.3-.06,2.51,2.51,0,0,0,1.12.31c.36,0,.59-.14.59-.4s-.27-.48-.93-.78-1.36-.78-1.36-1.57c0-.6.49-1.32,1.64-1.32a2.64,2.64,0,0,1,1.41.37.27.27,0,0,1,.1.35l-.22.4a.25.25,0,0,1-.31.1,2.77,2.77,0,0,0-1-.25c-.41,0-.54.18-.54.36s.3.44.77.65c.87.38,1.59.75,1.59,1.65a1.59,1.59,0,0,1-1.77,1.4,2.51,2.51,0,0,1-1.59-.49A.2.2,0,0,1,93.08,489.66Z"/><path class="cls-1" d="M99.3,485.8a.21.21,0,0,1,.2-.31h.79a.28.28,0,0,1,.21.13l1.48,3.19h0l1.44-3.19c0-.11.14-.13.25-.13h.68c.19,0,.29.15.2.31l-3.67,7.94a.22.22,0,0,1-.2.14H100a.21.21,0,0,1-.2-.32l1.6-3.44Z"/><path class="cls-1" d="M114.76,485.37a2.52,2.52,0,1,1-2.42,2.5A2.48,2.48,0,0,1,114.76,485.37Zm0,4a1.43,1.43,0,0,0,1.36-1.5,1.36,1.36,0,1,0-2.71,0A1.43,1.43,0,0,0,114.76,489.37Z"/><path class="cls-1" d="M121,486.48h-.56a.23.23,0,0,1-.23-.23v-.54a.21.21,0,0,1,.23-.22H121V484a2,2,0,0,1,2-2.23,2.18,2.18,0,0,1,1.37.48.22.22,0,0,1,0,.27l-.3.54c-.06.11-.17.12-.29,0a1.65,1.65,0,0,0-.8-.29c-.52,0-.9.39-.9,1.19v1.49h1.3a.22.22,0,0,1,.23.22v.54a.23.23,0,0,1-.23.23h-1.3v3.58a.22.22,0,0,1-.22.22h-.71a.23.23,0,0,1-.23-.22Z"/><path class="cls-1" d="M133.9,485.37a2.75,2.75,0,0,1,1.15.26v-3.51a.24.24,0,0,1,.23-.23h.7a.24.24,0,0,1,.23.23v7.94a.23.23,0,0,1-.23.22h-.36c-.11,0-.18-.08-.22-.2l-.09-.35a2.16,2.16,0,0,1-1.53.67,2.38,2.38,0,0,1-2.24-2.51A2.42,2.42,0,0,1,133.9,485.37Zm0,4a1.3,1.3,0,0,0,1.14-.72V486.7a2,2,0,0,0-1-.29,1.39,1.39,0,0,0-1.36,1.48A1.35,1.35,0,0,0,133.93,489.37Z"/><path class="cls-1" d="M139.92,482.84a.69.69,0,0,1,.68-.71.7.7,0,1,1,0,1.4A.68.68,0,0,1,139.92,482.84Zm.13,2.87a.23.23,0,0,1,.23-.22H141a.23.23,0,0,1,.23.22v4.35a.23.23,0,0,1-.23.22h-.68a.23.23,0,0,1-.23-.22Z"/><path class="cls-1" d="M145.4,488.63a1.91,1.91,0,0,1-.37-1.16,2.05,2.05,0,0,1,2.06-2.1h2.1a.22.22,0,0,1,.23.22v.3c0,.09,0,.2-.13.21l-.66.18a1.6,1.6,0,0,1,.51,1.28,2,2,0,0,1-2,2,3.42,3.42,0,0,1-1-.2.67.67,0,0,0-.49.59.5.5,0,0,0,.57.49h1.63a1.67,1.67,0,0,1,1.89,1.61c0,1.06-1,2-2.56,2s-2.37-.86-2.37-1.64a1.32,1.32,0,0,1,.71-1.13v0a1.24,1.24,0,0,1-.89-1.2A1.65,1.65,0,0,1,145.4,488.63Zm1.69,4.39c.73,0,1.37-.37,1.37-.95,0-.19-.12-.68-.9-.68-.35,0-.71,0-1.06,0-.07,0-.66.22-.66.76S146.36,493,147.09,493Zm1-5.53a1,1,0,0,0-1-1.1,1.1,1.1,0,0,0,0,2.2A1,1,0,0,0,148.12,487.49Z"/><path class="cls-1" d="M152.7,482.84a.69.69,0,0,1,.68-.71.7.7,0,1,1,0,1.4A.68.68,0,0,1,152.7,482.84Zm.13,2.87a.23.23,0,0,1,.23-.22h.68a.23.23,0,0,1,.23.22v4.35a.23.23,0,0,1-.23.22h-.68a.23.23,0,0,1-.23-.22Z"/><path class="cls-1" d="M158.12,486.48h-.5a.23.23,0,0,1-.23-.23v-.54a.21.21,0,0,1,.23-.22h.5v-1.33a.24.24,0,0,1,.23-.23H159a.22.22,0,0,1,.22.22v1.35h1.22a.22.22,0,0,1,.23.22v.54a.23.23,0,0,1-.23.23h-1.22v2.38c0,.4.15.48.38.48a2,2,0,0,0,.73-.22.18.18,0,0,1,.28.11l.21.53a.19.19,0,0,1-.1.28,3.55,3.55,0,0,1-1.41.36c-.94,0-1.22-.57-1.22-1.42Z"/><path class="cls-1" d="M165.81,487.25a3.61,3.61,0,0,1,.95.14c0-.75-.13-1.05-.74-1.05a5.21,5.21,0,0,0-1.35.21c-.14,0-.23-.06-.26-.19l-.1-.44a.22.22,0,0,1,.16-.28,5.18,5.18,0,0,1,1.65-.27c1.54,0,1.68.93,1.68,2.13v2.56a.23.23,0,0,1-.23.22h-.33c-.11,0-.16,0-.21-.16l-.12-.33a2.06,2.06,0,0,1-1.47.61,1.49,1.49,0,0,1-1.55-1.6C163.89,487.92,164.59,487.25,165.81,487.25Zm-.14,2.3a1.43,1.43,0,0,0,1.08-.6v-.76a1.79,1.79,0,0,0-.84-.2c-.58,0-1,.3-1,.79A.71.71,0,0,0,165.67,489.55Z"/><path class="cls-1" d="M171.6,482.12a.23.23,0,0,1,.22-.23h.69a.24.24,0,0,1,.23.23v7.94a.23.23,0,0,1-.23.22h-.69a.22.22,0,0,1-.22-.22Z"/><path class="cls-1" d="M182.65,493.65a.22.22,0,0,1-.25.23h-.68a.23.23,0,0,1-.22-.23v-7.94a.22.22,0,0,1,.22-.22h.36a.21.21,0,0,1,.21.15l.12.31a2,2,0,0,1,1.46-.58,2.52,2.52,0,0,1-.05,5,2.36,2.36,0,0,1-1.17-.32Zm1-4.28a1.4,1.4,0,0,0,1.37-1.47,1.37,1.37,0,0,0-1.32-1.49,1.23,1.23,0,0,0-1.11.7V489A1.78,1.78,0,0,0,183.68,489.37Z"/><path class="cls-1" d="M189.66,485.71a.22.22,0,0,1,.22-.22h.35a.25.25,0,0,1,.21.16l.13.41a1.69,1.69,0,0,1,1.4-.69c.46,0,1,.12.88.44l-.29.59a.21.21,0,0,1-.29.11,1,1,0,0,0-.41-.09,1.29,1.29,0,0,0-1.08.59v3.05c0,.2-.13.22-.32.22h-.58a.22.22,0,0,1-.22-.22Z"/><path class="cls-1" d="M198,485.37a2.52,2.52,0,1,1-2.42,2.5A2.48,2.48,0,0,1,198,485.37Zm0,4a1.43,1.43,0,0,0,1.36-1.5,1.36,1.36,0,1,0-2.71,0A1.43,1.43,0,0,0,198,489.37Z"/><path class="cls-1" d="M205.05,493.65c0,.14-.08.23-.25.23h-.67a.24.24,0,0,1-.23-.23v-7.94a.23.23,0,0,1,.23-.22h.36c.09,0,.15,0,.2.15l.12.31a2.08,2.08,0,0,1,1.46-.58,2.52,2.52,0,1,1-1.22,4.71Zm1-4.28a1.4,1.4,0,0,0,1.37-1.47,1.36,1.36,0,0,0-1.32-1.49,1.22,1.22,0,0,0-1.1.7V489A1.77,1.77,0,0,0,206.08,489.37Z"/><path class="cls-1" d="M212.06,485.71a.23.23,0,0,1,.23-.22h.35a.23.23,0,0,1,.2.16l.13.41a1.7,1.7,0,0,1,1.4-.69c.46,0,1,.12.88.44l-.29.59a.21.21,0,0,1-.29.11,1,1,0,0,0-.4-.09,1.25,1.25,0,0,0-1.08.59v3.05c0,.2-.14.22-.33.22h-.57a.23.23,0,0,1-.23-.22Z"/><path class="cls-1" d="M218.24,482.84a.69.69,0,0,1,.68-.71.7.7,0,1,1,0,1.4A.68.68,0,0,1,218.24,482.84Zm.13,2.87a.23.23,0,0,1,.23-.22h.68a.23.23,0,0,1,.23.22v4.35a.23.23,0,0,1-.23.22h-.68a.23.23,0,0,1-.23-.22Z"/><path class="cls-1" d="M225.4,485.37a2.16,2.16,0,0,1,2.21,2.21,1.76,1.76,0,0,1,0,.33.21.21,0,0,1-.21.2h-3.26a1.39,1.39,0,0,0,1.38,1.29,2.08,2.08,0,0,0,1.06-.35c.15-.09.23-.13.33,0l.33.45c.09.1.12.19,0,.31a2.76,2.76,0,0,1-1.78.6,2.52,2.52,0,0,1,0-5Zm1.09,2a1.12,1.12,0,0,0-1.1-1.07,1.21,1.21,0,0,0-1.22,1.07Z"/><path class="cls-1" d="M231.35,486.48h-.5a.23.23,0,0,1-.23-.23v-.54a.22.22,0,0,1,.23-.22h.5v-1.33a.24.24,0,0,1,.23-.23h.69a.21.21,0,0,1,.21.22v1.35h1.23a.21.21,0,0,1,.22.22v.54a.22.22,0,0,1-.22.23h-1.23v2.38c0,.4.16.48.39.48a2,2,0,0,0,.73-.22.17.17,0,0,1,.27.11l.22.53a.19.19,0,0,1-.11.28,3.54,3.54,0,0,1-1.4.36c-1,0-1.23-.57-1.23-1.42Z"/><path class="cls-1" d="M239.53,485.37a2.15,2.15,0,0,1,2.2,2.21c0,.09,0,.25,0,.33a.22.22,0,0,1-.22.2h-3.26a1.4,1.4,0,0,0,1.38,1.29,2.12,2.12,0,0,0,1.07-.35c.14-.09.23-.13.32,0l.34.45c.08.1.12.19,0,.31a2.73,2.73,0,0,1-1.77.6,2.52,2.52,0,0,1,0-5Zm1.09,2a1.14,1.14,0,0,0-1.11-1.07,1.22,1.22,0,0,0-1.22,1.07Z"/><path class="cls-1" d="M245.17,485.71a.22.22,0,0,1,.22-.22h.35a.24.24,0,0,1,.21.16l.13.41a1.7,1.7,0,0,1,1.4-.69c.46,0,1,.12.88.44l-.29.59a.21.21,0,0,1-.29.11,1,1,0,0,0-.41-.09,1.29,1.29,0,0,0-1.08.59v3.05c0,.2-.13.22-.32.22h-.58a.22.22,0,0,1-.22-.22Z"/><line class="cls-3" x1="220.53" y1="540.28" x2="85.56" y2="540.28"/><path class="cls-1" d="M164.05,557.47l3.69-8.07a.27.27,0,0,1,.2-.13h.12a.27.27,0,0,1,.2.13l3.66,8.07a.21.21,0,0,1-.2.31H171a.27.27,0,0,1-.27-.18l-.75-1.64H166c-.24.55-.49,1.09-.73,1.64a.3.3,0,0,1-.28.18h-.75A.21.21,0,0,1,164.05,557.47Zm5.44-2.54L168,551.64H168l-1.46,3.29Z"/><path class="cls-1" d="M174.85,550.34a.69.69,0,0,1,.69-.71.7.7,0,1,1,0,1.4A.69.69,0,0,1,174.85,550.34Zm.14,2.87a.22.22,0,0,1,.22-.22h.69a.22.22,0,0,1,.22.22v4.35a.22.22,0,0,1-.22.22h-.69a.22.22,0,0,1-.22-.22Z"/><path class="cls-1" d="M182,552.87a2.85,2.85,0,0,1,1.15.26v-3.51a.24.24,0,0,1,.23-.23h.69a.24.24,0,0,1,.23.23v7.94a.23.23,0,0,1-.23.22h-.35c-.11,0-.18-.08-.22-.2l-.1-.35a2.13,2.13,0,0,1-1.52.67,2.38,2.38,0,0,1-2.24-2.51A2.42,2.42,0,0,1,182,552.87Zm0,4a1.28,1.28,0,0,0,1.14-.72V554.2a2,2,0,0,0-1-.29,1.4,1.4,0,0,0-1.37,1.48A1.36,1.36,0,0,0,182,556.87Z"/><path class="cls-1" d="M189.7,554.75a3.48,3.48,0,0,1,.94.14c0-.75-.13-1-.74-1a5.2,5.2,0,0,0-1.34.21c-.15,0-.23-.06-.27-.19l-.09-.44a.21.21,0,0,1,.15-.28,5.27,5.27,0,0,1,1.66-.27c1.53,0,1.68.93,1.68,2.13v2.56a.23.23,0,0,1-.23.22h-.34c-.1,0-.15,0-.2-.16l-.12-.33a2.07,2.07,0,0,1-1.48.61,1.48,1.48,0,0,1-1.54-1.6C187.78,555.42,188.47,554.75,189.7,554.75Zm-.15,2.3a1.41,1.41,0,0,0,1.08-.6v-.76a1.75,1.75,0,0,0-.84-.2c-.57,0-1,.3-1,.79A.72.72,0,0,0,189.55,557.05Z"/><path class="cls-1" d="M195.48,553.21a.23.23,0,0,1,.23-.22h.35a.2.2,0,0,1,.19.14l.14.41a2.45,2.45,0,0,1,1.68-.67c1.46,0,2,1,2,2.28v2.41a.22.22,0,0,1-.22.22h-.69a.22.22,0,0,1-.22-.22V555.1c0-.77-.38-1.19-1-1.19a1.57,1.57,0,0,0-1.33.72v2.93c0,.15-.07.22-.28.22h-.62a.23.23,0,0,1-.23-.22Z"/><path class="cls-1" d="M210.07,549.45a.24.24,0,0,1,.22-.18h.19a.24.24,0,0,1,.2.13l2.51,6.13h.05l2.49-6.13a.24.24,0,0,1,.21-.13h.19a.23.23,0,0,1,.21.18l1.48,8.06c0,.17,0,.27-.22.27h-.78a.24.24,0,0,1-.22-.16l-.89-5.37h0l-2.16,5.52a.19.19,0,0,1-.2.13h-.22a.21.21,0,0,1-.2-.13l-2.17-5.52h-.05l-.86,5.37a.23.23,0,0,1-.22.16h-.78c-.17,0-.25-.1-.23-.27Z"/><rect class="cls-4" x="45.53" y="505.28" width="202.5" height="65"/></g></g></svg>