<svg xmlns="http://www.w3.org/2000/svg" viewBox="0 0 285.79 286.32"><defs><style>.cls-1,.cls-2,.cls-3,.cls-4,.cls-5{fill:none;stroke:#fbae5c;}.cls-1{stroke-miterlimit:10;stroke-width:0.8px;}.cls-2,.cls-3,.cls-4,.cls-5{stroke-linejoin:round;}.cls-2,.cls-3{stroke-width:0.72px;}.cls-3{stroke-dasharray:6.03 6.03;}.cls-4,.cls-5{stroke-width:0.72px;}.cls-5{stroke-dasharray:6;}</style></defs><g id="Layer_2" data-name="Layer 2"><g id="Stroke"><polyline class="cls-1" points="90.79 204.4 90.79 285.36 120.79 255.36 150.79 285.36 150.79 203"/><path class="cls-2" d="M44.77,31.85c.71-.71,1.43-1.41,2.15-2.09"/><path class="cls-3" d="M51.42,25.74A107,107,0,0,1,114.77.52"/><path class="cls-2" d="M117.79.4c1,0,2,0,3,0"/><path class="cls-4" d="M44.77,31.84,58.92,46A87.5,87.5,0,1,0,182.66,169.73l14.14,14.14A41.11,41.11,0,0,1,171,195.81h0a41.12,41.12,0,0,0-23.44,9.71l-26.72,22.77-18.79-16A73.37,73.37,0,0,0,60.23,195h0a29,29,0,0,1-26.56-26.57L32.84,158a41.22,41.22,0,0,0-9.71-23.44L.36,107.86,23.13,81.14A41.22,41.22,0,0,0,32.84,57.7h0A41.12,41.12,0,0,1,44.77,31.84"/><path class="cls-5" d="M285.79,107.86H269c-30,0-57.22,16.61-71.9,42.76a87.9,87.9,0,0,1-14.48,19.11"/></g></g></svg>