<svg xmlns="http://www.w3.org/2000/svg" viewBox="0 0 485.76 273.87"><defs><style>.cls-1{fill:#fbae5c;}.cls-2,.cls-3,.cls-4,.cls-5,.cls-6{fill:none;stroke:#fbae5c;}.cls-2,.cls-3,.cls-5,.cls-6{stroke-linejoin:round;}.cls-2{stroke-width:0.72px;}.cls-3{stroke-width:0.72px;}.cls-4{stroke-miterlimit:10;stroke-width:0.8px;}.cls-5,.cls-6{stroke-width:0.72px;}.cls-6{stroke-dasharray:5.69 5.69;}</style></defs><g id="Layer_2" data-name="Layer 2"><g id="Stroke"><path class="cls-1" d="M20.56,271.17v-.37l3.79-4.75a.18.18,0,0,1,.15-.06h.2a.19.19,0,0,1,.19.19v4.57h.81a.18.18,0,0,1,.19.18v.22a.19.19,0,0,1-.19.19H24.9v1.37a.2.2,0,0,1-.19.19h-.34a.2.2,0,0,1-.19-.19v-1.35H20.75A.19.19,0,0,1,20.56,271.17Zm3.66-.43v-3.48l-2.82,3.48Z"/><path class="cls-1" d="M30.52,266.57H28.78a.19.19,0,0,1-.19-.19v-.29a.19.19,0,0,1,.19-.19H33a.19.19,0,0,1,.19.19v.29a.19.19,0,0,1-.19.19H31.28v6.14a.2.2,0,0,1-.19.19h-.38a.2.2,0,0,1-.19-.19Z"/><path class="cls-1" d="M36.56,266.09a.2.2,0,0,1,.19-.19h.39a.19.19,0,0,1,.19.19V269h4.06v-2.92a.19.19,0,0,1,.19-.19H42a.2.2,0,0,1,.19.19v6.62a.2.2,0,0,1-.19.19h-.39a.19.19,0,0,1-.19-.19v-3H37.33v3a.19.19,0,0,1-.19.19h-.39a.2.2,0,0,1-.19-.19Z"/><path class="cls-1" d="M50.92,266.09a.19.19,0,0,1,.19-.19H53.7A2.15,2.15,0,0,1,55.88,268a2.23,2.23,0,0,1-1.48,2l1.37,2.54a.19.19,0,0,1-.17.29h-.51a.17.17,0,0,1-.16-.09l-1.33-2.65H51.69v2.55a.2.2,0,0,1-.19.19h-.39a.19.19,0,0,1-.19-.19Zm2.73,3.41a1.44,1.44,0,1,0,0-2.87H51.71v2.87Z"/><path class="cls-1" d="M59.78,266.09a.19.19,0,0,1,.19-.19h3.94a.19.19,0,0,1,.19.19v.29a.19.19,0,0,1-.19.19H60.55V269h2.87a.2.2,0,0,1,.19.19v.29a.19.19,0,0,1-.19.19H60.55v2.55h3.36a.19.19,0,0,1,.19.19v.29a.19.19,0,0,1-.19.19H60a.19.19,0,0,1-.19-.19Z"/><path class="cls-1" d="M68,266a.19.19,0,0,1,.19-.18h.25l4.51,5.62h0v-5.33a.19.19,0,0,1,.19-.19h.35a.2.2,0,0,1,.19.19v6.73a.19.19,0,0,1-.19.18h-.18l-4.59-5.73h0v5.44a.19.19,0,0,1-.19.19h-.35a.2.2,0,0,1-.19-.19Z"/><path class="cls-1" d="M77.94,266.09a.19.19,0,0,1,.18-.19h2.24a3.5,3.5,0,1,1,0,7H78.12a.19.19,0,0,1-.18-.19Zm2.26,6.12a2.82,2.82,0,1,0,0-5.63H78.7v5.63Z"/><path class="cls-1" d="M87.66,266.09a.19.19,0,0,1,.19-.19h3.94a.19.19,0,0,1,.19.19v.29a.19.19,0,0,1-.19.19H88.43V269H91.3a.2.2,0,0,1,.19.19v.29a.19.19,0,0,1-.19.19H88.43v2.55h3.36a.19.19,0,0,1,.19.19v.29a.19.19,0,0,1-.19.19H87.85a.19.19,0,0,1-.19-.19Z"/><path class="cls-1" d="M95.83,266.09a.19.19,0,0,1,.19-.19h2.59a2.15,2.15,0,0,1,2.18,2.13,2.23,2.23,0,0,1-1.48,2l1.37,2.54a.19.19,0,0,1-.17.29H100a.17.17,0,0,1-.16-.09l-1.33-2.65H96.6v2.55a.2.2,0,0,1-.19.19H96a.19.19,0,0,1-.19-.19Zm2.73,3.41a1.44,1.44,0,1,0,0-2.87H96.62v2.87Z"/><line class="cls-2" x1="239.15" y1="34.15" x2="216.65" y2="56.65"/><line class="cls-2" x1="34.15" y1="239.15" x2="56.65" y2="216.65"/><line class="cls-2" x1="239.15" y1="239.15" x2="216.65" y2="216.65"/><line class="cls-2" x1="34.15" y1="34.15" x2="56.65" y2="56.65"/><polygon class="cls-3" points="405.4 175.4 485.4 175.4 485.4 95.4 405.4 95.4 367.95 134.97 405.4 175.4"/><polyline class="cls-4" points="0.4 0.4 272.9 0.4 272.9 0.4 272.9 272.9 260.4 260.4 260.4 12.9 272.9 0.4"/><polyline class="cls-4" points="0.4 0.4 12.9 12.9 12.9 260.4 0.4 272.9 0.4 0.4"/><line class="cls-4" x1="12.9" y1="260.4" x2="260.4" y2="260.4"/><circle class="cls-4" cx="136.65" cy="136.65" r="113.75"/><line class="cls-5" x1="405.4" y1="95.4" x2="405.4" y2="98.4"/><line class="cls-6" x1="405.4" y1="104.09" x2="405.4" y2="169.55"/><line class="cls-5" x1="405.4" y1="172.4" x2="405.4" y2="175.4"/></g></g></svg>