<svg xmlns="http://www.w3.org/2000/svg" viewBox="0 0 221.89 8.64"><defs><style>.cls-1{fill:#fbae5c;}</style></defs><g id="Layer_2" data-name="Layer 2"><g id="Stroke"><path class="cls-1" d="M.06,7.3c.11-.15.2-.33.31-.49a.28.28,0,0,1,.41-.09,3.5,3.5,0,0,0,1.92.82A1.2,1.2,0,0,0,4.05,6.43c0-.72-.62-1.18-1.81-1.67S.06,3.61.06,2.22A2.34,2.34,0,0,1,2.68,0,4,4,0,0,1,4.9.71.29.29,0,0,1,5,1.12c-.1.14-.21.31-.3.45a.28.28,0,0,1-.42.12,3.73,3.73,0,0,0-1.62-.6c-1,0-1.36.64-1.36,1.08,0,.68.53,1.1,1.53,1.51,1.39.57,2.57,1.23,2.57,2.69A2.44,2.44,0,0,1,2.71,8.64a3.89,3.89,0,0,1-2.58-1A.26.26,0,0,1,.06,7.3Z"/><path class="cls-1" d="M10.59,1.25H8.64A.23.23,0,0,1,8.41,1V.35A.23.23,0,0,1,8.64.12H13.8A.22.22,0,0,1,14,.35V1a.22.22,0,0,1-.22.23h-2v7a.24.24,0,0,1-.23.23h-.79a.24.24,0,0,1-.23-.23Z"/><path class="cls-1" d="M16.14,8.2,19.82.13A.28.28,0,0,1,20,0h.12a.3.3,0,0,1,.21.13L24,8.2a.22.22,0,0,1-.21.32h-.75a.29.29,0,0,1-.28-.18L22,6.69H18.11c-.24.55-.5,1.09-.74,1.65a.3.3,0,0,1-.27.18h-.76A.22.22,0,0,1,16.14,8.2Zm5.43-2.54L20.1,2.38H20L18.57,5.66Z"/><path class="cls-1" d="M28.32,1.25h-2A.23.23,0,0,1,26.13,1V.35a.23.23,0,0,1,.23-.23h5.16a.23.23,0,0,1,.23.23V1a.23.23,0,0,1-.23.23h-2v7a.23.23,0,0,1-.22.23h-.79a.24.24,0,0,1-.23-.23Z"/><path class="cls-1" d="M34.91,7.3c.1-.15.2-.33.31-.49a.27.27,0,0,1,.41-.09,3.5,3.5,0,0,0,1.91.82A1.21,1.21,0,0,0,38.9,6.43c0-.72-.62-1.18-1.81-1.67s-2.18-1.15-2.18-2.54A2.34,2.34,0,0,1,37.53,0a4,4,0,0,1,2.22.71.28.28,0,0,1,.07.41l-.3.45a.28.28,0,0,1-.42.12,3.62,3.62,0,0,0-1.62-.6c-1,0-1.35.64-1.35,1.08,0,.68.53,1.1,1.52,1.51,1.39.57,2.58,1.23,2.58,2.69a2.44,2.44,0,0,1-2.67,2.27,3.86,3.86,0,0,1-2.58-1A.26.26,0,0,1,34.91,7.3Z"/><path class="cls-1" d="M150.06,7.3c.11-.15.2-.33.31-.49a.28.28,0,0,1,.41-.09,3.5,3.5,0,0,0,1.92.82,1.2,1.2,0,0,0,1.35-1.11c0-.72-.62-1.18-1.81-1.67s-2.18-1.15-2.18-2.54A2.34,2.34,0,0,1,152.68,0a4,4,0,0,1,2.22.71.29.29,0,0,1,.08.41c-.1.14-.21.31-.3.45a.28.28,0,0,1-.42.12,3.73,3.73,0,0,0-1.62-.6c-1,0-1.36.64-1.36,1.08,0,.68.53,1.1,1.53,1.51,1.39.57,2.57,1.23,2.57,2.69a2.44,2.44,0,0,1-2.67,2.27,3.89,3.89,0,0,1-2.58-1A.26.26,0,0,1,150.06,7.3Z"/><path class="cls-1" d="M160.59,1.25h-2a.23.23,0,0,1-.23-.23V.35a.23.23,0,0,1,.23-.23h5.16a.22.22,0,0,1,.22.23V1a.22.22,0,0,1-.22.23h-2v7a.24.24,0,0,1-.23.23h-.79a.24.24,0,0,1-.23-.23Z"/><path class="cls-1" d="M166.14,8.2,169.82.13A.28.28,0,0,1,170,0h.12a.3.3,0,0,1,.21.13L174,8.2a.22.22,0,0,1-.21.32h-.75a.29.29,0,0,1-.28-.18L172,6.69h-3.92c-.24.55-.5,1.09-.74,1.65a.3.3,0,0,1-.27.18h-.76A.22.22,0,0,1,166.14,8.2Zm5.43-2.54L170.1,2.38H170l-1.47,3.28Z"/><path class="cls-1" d="M177.61.35a.23.23,0,0,1,.23-.23h2.68A2.3,2.3,0,0,1,183,2.34a2.31,2.31,0,0,1-1.25,1.91,2.16,2.16,0,0,1,1.5,2,2.4,2.4,0,0,1-2.61,2.32h-2.82a.23.23,0,0,1-.23-.23Zm3,7.06a1.28,1.28,0,0,0,1.3-1.31,1.38,1.38,0,0,0-1.48-1.25h-1.64V7.41Zm-.19-3.64a1.21,1.21,0,0,0,1.24-1.29,1.16,1.16,0,0,0-1.24-1.23h-1.62V3.77Z"/><path class="cls-1" d="M187.47.35a.24.24,0,0,1,.23-.23h.79a.24.24,0,0,1,.23.23V8.29a.24.24,0,0,1-.23.23h-.79a.24.24,0,0,1-.23-.23Z"/><path class="cls-1" d="M193.45.35a.23.23,0,0,1,.23-.23h.79a.24.24,0,0,1,.23.23V7.4H198a.23.23,0,0,1,.23.23v.66a.23.23,0,0,1-.23.23h-4.27a.23.23,0,0,1-.23-.23Z"/><path class="cls-1" d="M201.84.35a.24.24,0,0,1,.23-.23h.79a.23.23,0,0,1,.22.23V8.29a.23.23,0,0,1-.22.23h-.79a.24.24,0,0,1-.23-.23Z"/><path class="cls-1" d="M207,8.07l4-6.75V1.27h-3.38a.24.24,0,0,1-.23-.23V.35a.24.24,0,0,1,.23-.23h4.93a.24.24,0,0,1,.23.23V.5l-4,6.86v0h3.5a.22.22,0,0,1,.23.22v.69a.23.23,0,0,1-.23.23h-5a.24.24,0,0,1-.23-.23Z"/><path class="cls-1" d="M216.63.35a.23.23,0,0,1,.23-.23h4.8a.23.23,0,0,1,.23.23V1a.23.23,0,0,1-.23.23h-3.79V3.69h3.2a.24.24,0,0,1,.23.23v.67a.23.23,0,0,1-.23.23h-3.2V7.4h3.79a.23.23,0,0,1,.23.23v.66a.23.23,0,0,1-.23.23h-4.8a.23.23,0,0,1-.23-.23Z"/></g></g></svg>