<svg xmlns="http://www.w3.org/2000/svg" viewBox="0 0 1375 918.87"><defs><style>.cls-1,.cls-3{fill:none;stroke:#fbae5c;stroke-width:0.8px;}.cls-1{stroke-linejoin:round;}.cls-2{fill:#fbae5c;}.cls-3{stroke-miterlimit:10;}</style></defs><g id="Layer_2" data-name="Layer 2"><g id="Stroke"><line class="cls-1" x1="95" y1="552.9" y2="552.9"/><line class="cls-1" x1="1375" y1="552.9" x2="670" y2="552.9"/><path class="cls-2" d="M115.48,916.87l.27-.23c.11-.08.19-.06.27.05a2,2,0,0,0,1.49.69,1.31,1.31,0,0,0,1.44-1.25c0-.68-.53-1.31-1.77-1.31h-.56c-.11,0-.19-.06-.19-.22v-.24c0-.16,0-.22.21-.22h.55c1.07,0,1.59-.55,1.59-1.21a1.24,1.24,0,0,0-1.31-1.27,1.71,1.71,0,0,0-1.31.65.17.17,0,0,1-.26,0l-.24-.19a.18.18,0,0,1,0-.26,2.57,2.57,0,0,1,1.81-.88,1.8,1.8,0,0,1,1,3.41v0a1.89,1.89,0,0,1,1.2,1.62,2,2,0,0,1-2.22,1.94,2.47,2.47,0,0,1-2-.89A.16.16,0,0,1,115.48,916.87Z"/><path class="cls-2" d="M123.59,911.09a.19.19,0,0,1,.19-.19h2.59a2.15,2.15,0,0,1,2.18,2.13,2.23,2.23,0,0,1-1.48,2l1.37,2.54a.19.19,0,0,1-.17.29h-.51a.17.17,0,0,1-.16-.09l-1.33-2.65h-1.91v2.55a.2.2,0,0,1-.19.19h-.39a.19.19,0,0,1-.19-.19Zm2.73,3.41a1.44,1.44,0,1,0,0-2.87h-1.94v2.87Z"/><path class="cls-2" d="M132.45,911.09a.19.19,0,0,1,.18-.19h2.24a3.5,3.5,0,1,1,0,7h-2.24a.19.19,0,0,1-.18-.19Zm2.26,6.12a2.82,2.82,0,1,0,0-5.63h-1.5v5.63Z"/><path class="cls-2" d="M146.64,911.09a.19.19,0,0,1,.19-.19h2.59A2.15,2.15,0,0,1,151.6,913a2.23,2.23,0,0,1-1.48,2l1.37,2.54a.19.19,0,0,1-.17.29h-.51a.17.17,0,0,1-.16-.09l-1.33-2.65h-1.91v2.55a.2.2,0,0,1-.19.19h-.39a.19.19,0,0,1-.19-.19Zm2.73,3.41a1.44,1.44,0,1,0,0-2.87h-1.94v2.87Z"/><path class="cls-2" d="M155.5,911.09a.19.19,0,0,1,.19-.19h3.94a.19.19,0,0,1,.19.19v.29a.19.19,0,0,1-.19.19h-3.36V914h2.87a.2.2,0,0,1,.19.19v.29a.19.19,0,0,1-.19.19h-2.87v2.55h3.36a.19.19,0,0,1,.19.19v.29a.19.19,0,0,1-.19.19h-3.94a.19.19,0,0,1-.19-.19Z"/><path class="cls-2" d="M163.67,911a.19.19,0,0,1,.19-.18h.25l4.51,5.62h0v-5.33a.19.19,0,0,1,.19-.19h.35a.2.2,0,0,1,.19.19v6.73a.19.19,0,0,1-.19.18H169l-4.59-5.73h0v5.44a.19.19,0,0,1-.19.19h-.35a.2.2,0,0,1-.19-.19Z"/><path class="cls-2" d="M173.66,911.09a.19.19,0,0,1,.18-.19h2.24a3.5,3.5,0,1,1,0,7h-2.24a.19.19,0,0,1-.18-.19Zm2.26,6.12a2.82,2.82,0,1,0,0-5.63h-1.5v5.63Z"/><path class="cls-2" d="M183.38,911.09a.19.19,0,0,1,.19-.19h3.94a.19.19,0,0,1,.19.19v.29a.19.19,0,0,1-.19.19h-3.36V914H187a.2.2,0,0,1,.19.19v.29a.19.19,0,0,1-.19.19h-2.87v2.55h3.36a.19.19,0,0,1,.19.19v.29a.19.19,0,0,1-.19.19h-3.94a.19.19,0,0,1-.19-.19Z"/><path class="cls-2" d="M191.55,911.09a.19.19,0,0,1,.19-.19h2.59a2.15,2.15,0,0,1,2.18,2.13,2.23,2.23,0,0,1-1.48,2l1.37,2.54a.19.19,0,0,1-.17.29h-.51a.17.17,0,0,1-.16-.09l-1.33-2.65h-1.91v2.55a.2.2,0,0,1-.19.19h-.39a.19.19,0,0,1-.19-.19Zm2.73,3.41a1.44,1.44,0,1,0,0-2.87h-1.94v2.87Z"/><polyline class="cls-3" points="252.5 12.9 670 12.9 670 12.9 670 917.9 657.5 905.4 657.5 25.4 670 12.9"/><polyline class="cls-3" points="187.5 12.9 95 12.9 95 917.9 107.5 905.4 107.5 25.4 95 12.9"/><polygon class="cls-1" points="200 25.4 187.5 12.9 200 0.4 240 0.4 252.5 12.9 240 25.4 200 25.4"/><line class="cls-3" x1="107.5" y1="905.4" x2="657.5" y2="905.4"/><path class="cls-2" d="M200.87,19.75,206.61,14c1.51-1.52,2.4-2.88,2.4-4.29a3.33,3.33,0,0,0-3.64-3.34,4.28,4.28,0,0,0-3.29,1.75.28.28,0,0,1-.43.07L201.39,8a.27.27,0,0,1,0-.39,5,5,0,0,1,4-2.14c3.06,0,4.66,2,4.66,4.24,0,1.91-1.17,3.36-2.73,4.92l-4.94,4.92h7.28a.29.29,0,0,1,.28.28v.33a.29.29,0,0,1-.28.28h-8.49a.26.26,0,0,1-.28-.26Z"/><path class="cls-2" d="M215,18.32c.11-.09.2-.2.3-.28a.23.23,0,0,1,.37,0,4.41,4.41,0,0,0,3.58,1.65,4,4,0,0,0,4.07-4.1c0-2.16-1.36-3.59-4.07-3.59h-3.6a.44.44,0,0,1-.41-.46V5.93a.28.28,0,0,1,.28-.29h6.8a.29.29,0,0,1,.29.29v.34a.29.29,0,0,1-.29.28h-6.17v4.58h3.1c3.31,0,5.07,1.64,5.07,4.5a5,5,0,0,1-5.09,5,5.22,5.22,0,0,1-4.21-1.82C214.89,18.58,214.87,18.49,215,18.32Z"/><path class="cls-2" d="M228.39,8a3,3,0,1,1,3,3A3,3,0,0,1,228.39,8Zm5.16,0a2.17,2.17,0,1,0-2.17,2.18A2.17,2.17,0,0,0,233.55,8Zm4.79-2.67a.26.26,0,0,1,.26-.11H239c.19,0,.28.22.17.41l-8.25,14.61a.37.37,0,0,1-.26.15h-.39c-.2,0-.26-.2-.16-.37Zm-.17,9.3a3,3,0,1,1-3,3A3,3,0,0,1,238.17,14.64Zm0,5.18A2.17,2.17,0,1,0,236,17.65,2.16,2.16,0,0,0,238.17,19.82Z"/><path class="cls-2" d="M144.21,24.35l.15-.19c.1-.13.21-.21.35-.09a2.76,2.76,0,0,0,1.69.76,1.21,1.21,0,0,0,1.34-1.1c0-.69-.6-1.1-1.75-1.58s-1.76-.93-1.76-2.07a1.9,1.9,0,0,1,2.13-1.78,3.27,3.27,0,0,1,1.71.51.22.22,0,0,1,.06.34l-.12.19a.23.23,0,0,1-.35.09,2.8,2.8,0,0,0-1.31-.46c-1.06,0-1.38.68-1.38,1.1,0,.67.51,1.06,1.35,1.41,1.35.55,2.22,1.06,2.22,2.22a2,2,0,0,1-2.16,1.8,3.26,3.26,0,0,1-2.11-.81A.22.22,0,0,1,144.21,24.35Z"/><path class="cls-2" d="M155.34,18.3a3.52,3.52,0,0,1,2.42.93.19.19,0,0,1,0,.28l-.27.27c-.08.1-.16.09-.26,0a3,3,0,0,0-1.91-.75,2.88,2.88,0,0,0,0,5.75,2.91,2.91,0,0,0,1.91-.75.19.19,0,0,1,.24,0l.3.27a.19.19,0,0,1,0,.27,3.43,3.43,0,0,1-2.43,1,3.6,3.6,0,1,1,0-7.2Z"/><path class="cls-2" d="M160.6,25.14l3-6.73a.18.18,0,0,1,.17-.11h.1a.18.18,0,0,1,.17.11l3,6.73a.18.18,0,0,1-.17.26h-.4a.18.18,0,0,1-.17-.11l-.74-1.65h-3.55l-.73,1.65a.18.18,0,0,1-.17.11h-.4A.18.18,0,0,1,160.6,25.14ZM165.35,23c-.49-1.09-1-2.19-1.46-3.28h-.08L162.35,23Z"/><path class="cls-2" d="M170.44,18.59a.19.19,0,0,1,.19-.19H171a.2.2,0,0,1,.19.19v6.14h2.88a.19.19,0,0,1,.19.19v.29a.19.19,0,0,1-.19.19h-3.46a.19.19,0,0,1-.19-.19Z"/><path class="cls-2" d="M177.6,18.59a.19.19,0,0,1,.19-.19h3.94a.19.19,0,0,1,.19.19v.29a.19.19,0,0,1-.19.19h-3.36v2.44h2.87a.2.2,0,0,1,.19.19V22a.19.19,0,0,1-.19.19h-2.87v2.55h3.36a.19.19,0,0,1,.19.19v.29a.19.19,0,0,1-.19.19h-3.94a.19.19,0,0,1-.19-.19Z"/><path class="cls-2" d="M259.1,18.3a3.6,3.6,0,1,1-3.59,3.61A3.59,3.59,0,0,1,259.1,18.3Zm0,6.5a2.9,2.9,0,1,0-2.89-2.89A2.91,2.91,0,0,0,259.1,24.8Z"/><path class="cls-2" d="M266.48,18.59a.19.19,0,0,1,.19-.19h3.94a.19.19,0,0,1,.19.19v.29a.19.19,0,0,1-.19.19h-3.36v2.74h2.87a.2.2,0,0,1,.19.19v.29a.2.2,0,0,1-.19.19h-2.87v2.73a.2.2,0,0,1-.19.19h-.39a.19.19,0,0,1-.19-.19Z"/><path class="cls-2" d="M278.89,18.59a.19.19,0,0,1,.19-.19H283a.19.19,0,0,1,.19.19v.29a.19.19,0,0,1-.19.19h-3.36v2.74h2.87a.2.2,0,0,1,.19.19v.29a.2.2,0,0,1-.19.19h-2.87v2.73a.2.2,0,0,1-.19.19h-.39a.19.19,0,0,1-.19-.19Z"/><path class="cls-2" d="M286.74,18.59a.2.2,0,0,1,.19-.19h.38a.19.19,0,0,1,.19.19v4.17a1.89,1.89,0,1,0,3.78,0V18.59a.19.19,0,0,1,.19-.19h.38a.2.2,0,0,1,.19.19v4.23a2.65,2.65,0,1,1-5.3,0Z"/><path class="cls-2" d="M296.24,18.59a.19.19,0,0,1,.19-.19h.39a.2.2,0,0,1,.19.19v6.14h2.88a.19.19,0,0,1,.19.19v.29a.19.19,0,0,1-.19.19h-3.46a.19.19,0,0,1-.19-.19Z"/><path class="cls-2" d="M303.4,18.59a.19.19,0,0,1,.19-.19H304a.2.2,0,0,1,.19.19v6.14h2.88a.19.19,0,0,1,.19.19v.29a.19.19,0,0,1-.19.19h-3.46a.19.19,0,0,1-.19-.19Z"/></g></g></svg>