<svg xmlns="http://www.w3.org/2000/svg" viewBox="0 0 662 433.3"><defs><style>.cls-1,.cls-10,.cls-2,.cls-7,.cls-8,.cls-9{fill:none;}.cls-1,.cls-10,.cls-11,.cls-2,.cls-7,.cls-8,.cls-9{stroke:#fbae5c;}.cls-1,.cls-10,.cls-11,.cls-8,.cls-9{stroke-linejoin:round;}.cls-1,.cls-2{stroke-width:0.8px;}.cls-2,.cls-7{stroke-miterlimit:10;}.cls-3{font-size:20px;font-family:BrandonGrotesque-Light, Brandon Grotesque;font-weight:300;letter-spacing:0.25em;}.cls-3,.cls-4{fill:#fbae5c;}.cls-4{font-size:18px;font-family:BrandonGrotesque-Regular, Brandon Grotesque;letter-spacing:0.25em;}.cls-5{letter-spacing:0.21em;}.cls-6{letter-spacing:0.23em;}.cls-10,.cls-7{stroke-width:0.8px;}.cls-8{stroke-linecap:round;}.cls-11,.cls-9{stroke-width:0.72px;}.cls-11{fill:#fff;}</style></defs><g id="Layer_2" data-name="Layer 2"><g id="Stroke"><rect class="cls-1" x="47.5" y="0.4" width="80" height="80" transform="translate(175 80.8) rotate(-180)"/><rect class="cls-1" x="47.5" y="260.4" width="80" height="80" transform="translate(175 600.8) rotate(-180)"/><line class="cls-2" x1="240" y1="417.9" x2="225" y2="432.9"/><line class="cls-2" x1="240" y1="432.9" x2="225" y2="417.9"/><text class="cls-3" transform="translate(27.5 17.9)">1</text><text class="cls-3" transform="translate(27.5 147.9)">2</text><text class="cls-3" transform="translate(27.5 277.9)">3</text><rect class="cls-1" x="47.5" y="130.4" width="80" height="80" transform="translate(175 340.8) rotate(180)"/><text class="cls-4" transform="translate(502.99 407.9)">PRINT <tspan class="cls-5" x="81.23" y="0">V</tspan><tspan x="96.96" y="0">A</tspan><tspan class="cls-6" x="113.4" y="0">L</tspan><tspan x="126.47" y="0">UE</tspan></text><text class="cls-4" transform="translate(47.5 407.9)">ASSET <tspan class="cls-5" x="81.38" y="0">V</tspan><tspan x="97.11" y="0">A</tspan><tspan class="cls-6" x="113.54" y="0">L</tspan><tspan x="126.61" y="0">UE</tspan></text><line class="cls-7" x1="225" y1="432.9" x2="47.5" y2="432.9"/><line class="cls-7" x1="657.5" y1="432.9" x2="480" y2="432.9"/><path class="cls-2" d="M12.5.4h-.44A3.14,3.14,0,0,0,9.2,2.9l-6,22.5A3.5,3.5,0,0,1,0,27.9H0"/><path class="cls-2" d="M4,12.93h6L9.38,15.4a1.93,1.93,0,0,0,.54,2.07"/><path class="cls-2" d="M17.49,15.41a3.37,3.37,0,0,1-3,2.4,1.78,1.78,0,0,1-1.75-2.4,3,3,0,0,1,3-2.13,4.1,4.1,0,0,1,2.21.66"/><path class="cls-2" d="M18.15,12.93l-2,7.47A3.5,3.5,0,0,1,13,22.9h-.16"/><line class="cls-8" x1="11.35" y1="8.71" x2="11.35" y2="8.71"/><line class="cls-8" x1="22.5" y1="17.9" x2="22.5" y2="17.9"/><line class="cls-7" x1="480" y1="417.9" x2="465" y2="432.9"/><line class="cls-7" x1="480" y1="432.9" x2="465" y2="417.9"/><path class="cls-9" d="M545,322.9a40,40,0,0,1-40,40h0a40,40,0,0,1-40-40h0a40,40,0,0,1,40-40h0a40,40,0,0,1,40,40Z"/><line class="cls-7" x1="575" y1="317.9" x2="565" y2="317.9"/><line class="cls-7" x1="570" y1="322.9" x2="570" y2="312.9"/><path class="cls-10" d="M270,31.49c0-24.79-37.5-24.79-37.5,0V45h0c0,.24,0,.49,0,.73,0,10.86,8.39,19.67,18.75,19.67S270,56.59,270,45.73c0-.24,0-.49,0-.73h0Zm-30.34,13.2a3.23,3.23,0,1,1,3.23-3.23A3.23,3.23,0,0,1,239.66,44.69Zm22.44,0a3.23,3.23,0,1,1,3.23-3.23A3.23,3.23,0,0,1,262.1,44.69Z"/><line class="cls-11" x1="322.5" y1="40.4" x2="270" y2="40.4"/><path class="cls-2" d="M12.5,130.18h-.44a3.14,3.14,0,0,0-2.86,2.5l-6,22.5A3.5,3.5,0,0,1,0,157.68H0"/><path class="cls-2" d="M4,142.71h6l-.65,2.47a1.93,1.93,0,0,0,.54,2.07"/><path class="cls-2" d="M17.49,145.19a3.36,3.36,0,0,1-3,2.4,1.77,1.77,0,0,1-1.75-2.4,3,3,0,0,1,3-2.12,4.05,4.05,0,0,1,2.21.65"/><path class="cls-2" d="M18.15,142.71l-2,7.47a3.5,3.5,0,0,1-3.17,2.5h-.16"/><line class="cls-8" x1="11.35" y1="138.49" x2="11.35" y2="138.49"/><line class="cls-8" x1="22.5" y1="147.68" x2="22.5" y2="147.68"/><path class="cls-2" d="M12.5,260.24h-.44a3.14,3.14,0,0,0-2.86,2.5l-6,22.5A3.5,3.5,0,0,1,0,287.74H0"/><path class="cls-2" d="M4,272.77h6l-.65,2.47a1.93,1.93,0,0,0,.54,2.07"/><path class="cls-2" d="M17.49,275.25a3.37,3.37,0,0,1-3,2.4,1.78,1.78,0,0,1-1.75-2.4,3,3,0,0,1,3-2.12,4.05,4.05,0,0,1,2.21.65"/><path class="cls-2" d="M18.15,272.77l-2,7.47a3.5,3.5,0,0,1-3.17,2.5h-.16"/><line class="cls-8" x1="11.35" y1="268.55" x2="11.35" y2="268.55"/><line class="cls-8" x1="22.5" y1="277.74" x2="22.5" y2="277.74"/></g></g></svg>