<svg xmlns="http://www.w3.org/2000/svg" viewBox="0 0 25.88 11.52">
    <defs>
        <style>.cls-1{fill:#fbae5c;stroke-width: 1.8px}</style>
    </defs>
    <g id="Layer_2" data-name="Layer 2">
        <g id="Stroke">
            <path class="cls-1" d="M5.76,0a5.76,5.76,0,1,1,0,11.52A5.71,5.71,0,0,1,0,5.78,5.75,5.75,0,0,1,5.76,0Zm0,10.82a5.06,5.06,0,1,0-5.06-5A5.05,5.05,0,0,0,5.76,10.82Z" />
            <path class="cls-1" d="M18.13.37a.2.2,0,0,1,.21-.21h4a3.47,3.47,0,0,1,3.57,3.43,3.51,3.51,0,0,1-2.65,3.34l2.34,4.15c.08.12.05.28-.11.28H25a.22.22,0,0,1-.22-.14L22.42,7H18.88v4.12c0,.11-.1.2-.26.2h-.28a.2.2,0,0,1-.21-.2Zm4.14,6a2.8,2.8,0,0,0,2.84-2.78A2.76,2.76,0,0,0,22.26.9H18.9V6.37Z" />
        </g>
    </g>
</svg>